SplineFontDB: 3.0
FontName: LinBiolinumO
FullName: Linux Biolinum O
FamilyName: Linux Biolinum O
Weight: Book
Copyright: Linux Libertine by Philipp H. Poll, Open Font under Terms of following Free Software Licenses:\nGPL (General Public License) with font-exception and OFL (Open Font License).\nCreated with FontForge (http://fontforge.sf.net) Sept 2003, 2004, 2005, 2006, 2007, 2008
UComments: "2003-08-29: Created.+AAoA-2004-07-25: v(1.0) release candidate+AAoA-2005-12-28: v(1.1.0) stable+AAoA-2006-01-01: v(2.0.0) stable+AAoA-2006-09-05: v(2.2.0) stable+AAoA-2006-12-04: v(2.3.0) stable+AAoA-2007-03-11: v(2.4.0) stable+AAoA-2007-12-00: v(2.7.0) stable+AAoA-2008-06-00: v(2.8.14) stable+AAoA" 
Version: 0.4.4
ItalicAngle: 0
UnderlinePosition: -98
UnderlineWidth: 40
Ascent: 754
Descent: 246
LayerCount: 2
Layer: 0 0 "Back"  1
Layer: 1 0 "Fore"  0
NeedsXUIDChange: 1
XUID: [1021 993 1524925707 2876416]
FSType: 0
OS2Version: 0
OS2_WeightWidthSlopeOnly: 0
OS2_UseTypoMetrics: 0
CreationTime: 1156455862
ModificationTime: 1249508269
PfmFamily: 17
TTFWeight: 400
TTFWidth: 5
LineGap: 0
VLineGap: 0
OS2TypoAscent: 894
OS2TypoAOffset: 0
OS2TypoDescent: -246
OS2TypoDOffset: 0
OS2TypoLinegap: 0
OS2WinAscent: 894
OS2WinAOffset: 0
OS2WinDescent: 246
OS2WinDOffset: 0
HheadAscent: 894
HheadAOffset: 0
HheadDescent: -246
HheadDOffset: 0
OS2FamilyClass: 261
OS2Vendor: 'PfEd'
Lookup: 3 0 0 "'aalt' Alle Alternativen zeigen"  {"'aalt' Alle Alternativen zeigen 1"  } ['aalt' ('DFLT' <'dflt' > 'cyrl' <'dflt' > 'grek' <'dflt' > 'latn' <'AZE ' 'CRT ' 'DEU ' 'MOL ' 'ROM ' 'TRK ' 'dflt' > ) ]
Lookup: 1 0 0 "'locl' Localized Forms Romaenisch"  {"'locl' Localized Forms Romaenisch 1"  } ['locl' ('latn' <'MOL ' 'ROM ' > ) ]
Lookup: 1 0 0 "'smcp' Gemeine nach Kapitaelchen i > i.sc"  {"'smcp' Gemeine nach Kapitaelchen i > i.sc 1"  } ['smcp' ('DFLT' <'dflt' > 'cyrl' <'dflt' > 'grek' <'dflt' > 'latn' <'DEU ' 'MOL ' 'ROM ' 'dflt' > ) ]

StartChar: exclam
Encoding: 33 33 0
Width: 228
VWidth: 999
Flags: W
HStem: -10 112<76.3677 150.353> 638 20G<102 126.5>
VStem: 57 112<6.28114 82.4613> 59 110<425.857 643.461>
LayerCount: 2
Fore
SplineSet
113 658 m 0xd0
 140 658 169 635 169 585 c 0
 169 520 153 478 143 392 c 0
 130 284 129 224 127 210 c 0
 126 199 123 190 113 190 c 0
 102 190 100 197 99 203 c 0
 97 224 92 314 84 392 c 0
 75 480 59 515 59 585 c 0
 59 639 91 658 113 658 c 0xd0
EndSplineSet
Refer: 256 46 N 1 0 0 1 3 0 2
Validated: 35841
Colour: ff80cc
EndChar

StartChar: numbersign
Encoding: 35 35 2
Width: 440
VWidth: 487
Flags: W
HStem: 183 48<32 115 156 258 299 382> 341 49<58 140 181 284 324 407>
DStem2: 88 13 121 13 0.158835 0.987305<5.24156 172.13 226.033 332.095 386.986 553.875> 232 13 265 13 0.155313 0.987865<5.12534 171.975 225.761 332.096 386.714 553.719>
LayerCount: 2
Fore
SplineSet
317 341 m 1
 299 231 l 1
 389 231 l 1
 382 183 l 1
 293 183 l 1
 265 13 l 1
 232 13 l 1
 258 183 l 1
 149 183 l 1
 121 13 l 1
 88 13 l 1
 115 183 l 1
 25 183 l 1
 32 231 l 1
 123 231 l 1
 140 341 l 1
 50 341 l 1
 58 390 l 1
 148 390 l 1
 175 560 l 1
 209 560 l 1
 181 390 l 1
 292 390 l 1
 318 560 l 1
 351 560 l 1
 324 390 l 1
 415 390 l 1
 407 341 l 1
 317 341 l 1
267 231 m 1
 284 341 l 1
 174 341 l 1
 156 231 l 1
 267 231 l 1
EndSplineSet
Validated: 3073
EndChar

StartChar: dollar
Encoding: 36 36 3
Width: 440
VWidth: 999
Flags: W
HStem: -10 38<125.719 268.749> 537 35<147.385 268.858>
VStem: 47 64<387.28 494.938> 198 34<-81 627> 316 74<90.1876 201.177>
LayerCount: 2
Back
SplineSet
92 12 m 0
 76 12 79 1 58 1 c 1x6e
 58 38 50 90 42 146 c 1
 68 149 l 1
 85 83 136 23 214 23 c 0
 251 23 328 42 328 127 c 0xb6
 328 229 237 247 203 262 c 0
 144 288 46 333 46 434 c 0
 46 528 147 572 215 572 c 0
 272 572 307 564 348 564 c 1
 351 519 360 470 368 421 c 1
 342 417 l 1xad
 337 435 l 2
 315 507 281 542 215 542 c 0
 161 542 110 504 110 438 c 0
 110 379 188 344 225 330 c 0
 279 310 400 262 400 156 c 0
 400 122 391 -10 214 -10 c 0xae
 149 -10 113 12 92 12 c 0
46.875 578.125 m 25
 347.168 578.125 l 25
0 572.012 m 1
 438.965 572.012 l 1
 438.965 0 l 1
 0 0 l 1
 0 572.012 l 1
EndSplineSet
Fore
SplineSet
199 28 m 0
 258 28 316 61 316 131 c 0
 316 208 267 230 214 251 c 0
 135 282 47 324 47 422 c 0
 47 514 136 572 212 572 c 0
 318 572 354 533 354 533 c 1
 356 530 l 1
 348 504 342 478 339 447 c 1
 330 446 l 1
 306 500 267 537 204 537 c 0
 147 537 111 498 111 445 c 0
 111 373 190 343 227 329 c 0
 300 303 390 263 390 162 c 0
 390 73 291 -10 191 -10 c 0
 85 -10 34 30 34 30 c 1
 32 33 l 1
 39 59 46 87 50 118 c 1
 58 119 l 1
 83 65 136 28 199 28 c 0
198 -81 m 1
 198 627 l 1
 232 627 l 1
 232 -81 l 1
 198 -81 l 1
EndSplineSet
EndChar

StartChar: percent
Encoding: 37 37 4
Width: 637
VWidth: 999
Flags: W
HStem: -12 29<446.826 512.932> 225 31<488.229 553.742> 303 29<126.123 191.163> 484 37<279.857 459.046> 540 31<166.506 233.537>
VStem: 59 51<340.095 479.734> 246 31<405.445 504.773> 380 52<24.9702 164.687> 568 30<93.569 210.69>
DStem2: 102 3 136 -12 0.584454 0.811427<7.70004 615.532 651.531 704.931>
LayerCount: 2
Back
SplineSet
357.494 492.437 m 4
 360.602 492.437 361.489 492.881 362.821 492.881 c 4
 390.786 491.548 465.804 496.875 506.641 541.265 c 5
 524.399 518.628 l 5
 479.121 468.911 424.078 466.691 364.597 461.809 c 6
 357.494 461.365 l 6
 320.207 461.365 264.721 487.998 248.74 499.985 c 5
 263.39 521.733 l 5
 263.39 521.733 309.11 492.437 357.494 492.437 c 4
460.921 37.0049 m 4
 474.238 31.6777 487.999 35.2285 503.979 45.8828 c 4
 523.511 57.8672 534.609 80.5059 543.931 106.252 c 4
 553.252 130.666 558.135 156.411 555.913 179.05 c 4
 553.696 199.469 545.703 213.674 528.394 220.775 c 4
 527.949 221.22 l 4
 510.64 227.878 493.77 219.443 481.34 208.347 c 4
 464.028 193.254 454.263 175.942 445.385 153.748 c 4
 434.288 126.67 429.849 100.925 433.844 76.9551 c 4
 437.395 56.5352 445.829 43.2188 460.921 37.0049 c 4
579.438 200.801 m 4
 589.204 172.836 582.993 134.66 570.117 98.2617 c 4
 557.246 64.082 535.493 34.3408 510.64 20.1367 c 4
 481.784 3.71289 454.263 6.37598 433.844 16.1416 c 4
 412.537 26.7949 402.327 40.1123 392.118 68.9648 c 4
 383.24 93.8223 382.796 129.777 397.001 163.514 c 4
 410.762 198.137 432.068 224.326 461.809 240.751 c 4
 485.779 253.18 511.968 256.287 540.376 245.189 c 4
 566.567 234.536 570.117 228.766 579.438 200.801 c 4
546.592 542.153 m 5
 166.621 12.1465 l 5
 126.227 12.1465 l 5
 507.085 542.153 l 5
 546.592 542.153 l 5
168.396 323.759 m 4
 181.713 317.988 195.474 321.982 211.454 332.192 c 4
 230.985 344.621 242.083 366.816 251.848 393.006 c 4
 260.726 416.977 265.608 443.166 263.39 465.805 c 4
 261.17 486.223 253.18 500.43 235.868 507.529 c 4
 235.424 507.529 l 4
 218.112 514.189 201.244 505.757 188.815 495.103 c 4
 171.504 479.564 161.738 462.697 152.86 440.059 c 4
 141.763 412.98 137.324 387.68 141.318 363.266 c 4
 144.87 343.29 153.305 329.529 168.396 323.759 c 4
286.916 487.111 m 4
 296.682 459.146 290.467 420.971 277.594 384.572 c 4
 264.721 350.393 243.414 321.096 218.112 306.447 c 4
 189.259 290.023 161.738 293.13 141.763 302.451 c 4
 120.013 313.105 109.803 326.865 99.5928 355.275 c 4
 90.7158 380.133 90.7158 416.088 104.476 450.268 c 4
 118.236 484.892 139.544 510.64 169.284 527.061 c 4
 193.255 539.937 219.443 543.042 247.853 531.943 c 4
 274.043 520.845 277.594 515.078 286.916 487.111 c 4
EndSplineSet
Fore
SplineSet
110 398 m 0
 110 346 137 332 155 332 c 0
 210 332 246 421 246 479 c 0
 246 529 219 540 201 540 c 0
 152 540 110 456 110 398 c 0
364 521 m 0
 406 521 483 533 514 575 c 1
 546 559 l 1
 136 -12 l 1
 102 3 l 1
 461 503 l 1
 423 488 384 484 354 484 c 0
 331 484 293 494 274 505 c 1
 276 498 277 489 277 480 c 0
 277 416 233 303 149 303 c 0
 87 303 59 361 59 412 c 0
 59 489 118 571 190 571 c 0
 218 571 247 558 257 546 c 1
 311 521 346 521 364 521 c 0
380 98 m 0
 380 173 438 256 512 256 c 0
 552 256 598 238 598 165 c 0
 598 98 554 -12 471 -12 c 0
 410 -12 380 45 380 98 c 0
432 83 m 0
 432 31 458 17 477 17 c 0
 532 17 568 108 568 164 c 0
 568 216 537 225 523 225 c 0
 474 225 432 141 432 83 c 0
EndSplineSet
Validated: 3073
EndChar

StartChar: parenleft
Encoding: 40 40 5
Width: 300
VWidth: 999
Flags: HW
VStem: 44 78<97.6984 405.148>
LayerCount: 2
Back
SplineSet
101.562 -0.488281 m 4
 64.4531 81.0547 43.9453 164.551 43.9453 251.953 c 4
 43.9453 342.773 62.9883 424.805 102.051 503.418 c 4
 124.023 548.828 168.945 632.324 256.348 707.031 c 5
 273.926 689.453 l 5
 203.613 610.352 173.828 533.203 160.156 491.699 c 4
 134.277 416.504 121.582 337.891 121.582 251.953 c 4
 121.582 166.504 133.789 85.9375 160.156 10.7422 c 4
 174.316 -31.7383 203.613 -108.398 273.926 -187.012 c 5
 256.348 -203.613 l 5
 188.477 -145.02 138.184 -79.5898 101.562 -0.488281 c 4
EndSplineSet
Fore
SplineSet
44 252 m 0
 44 438 137 605 256 707 c 1
 279 689 l 1
 247 653 127 515 127 252 c 0
 127 -11 246 -149 279 -187 c 1
 256 -204 l 1
 48 -24 44 207 44 252 c 0
EndSplineSet
Substitution2: "'c2sc' Versale nach Kapitaelchen 1" parenleft.sc
AlternateSubs2: "'aalt' Alle Alternativen zeigen 1" parenleft.sc
Substitution2: "'sinf' Wissenschaftliche Indices 1" parenleft.inferior
Substitution2: "'sups' Hochgestellte 1" parenleft.superior
Substitution2: "'case' Versalformen 1" parenleft.sc
EndChar

StartChar: asterisk
Encoding: 42 42 7
Width: 433
VWidth: 999
Flags: HMW
LayerCount: 2
Back
SplineSet
155.273 557.129 m 4
 123.535 558.105 102.051 560.547 92.2852 566.406 c 4
 82.0312 572.266 76.6602 580.078 75.1953 588.867 c 4
 74.707 591.309 74.707 592.773 74.707 594.727 c 4
 74.707 600.586 76.1719 605.957 79.5898 610.84 c 4
 84.9609 619.141 91.7969 622.07 99.1211 623.535 c 4
 102.539 624.512 104.98 624.512 107.91 624.512 c 4
 114.258 624.512 119.629 623.535 125 621.582 c 4
 135.254 618.164 149.902 607.91 167.969 594.238 c 4
 180.176 584.473 192.383 578.125 204.102 573.242 c 5
 202.637 587.891 199.219 601.562 194.824 613.77 c 4
 186.035 637.207 181.641 653.32 181.152 663.086 c 4
 181.152 663.086 181.152 664.062 181.152 664.551 c 4
 181.152 673.828 183.105 681.641 187.012 688.477 c 4
 191.406 696.289 197.266 700.684 205.078 703.125 c 4
 208.496 704.102 210.938 704.59 213.867 704.102 c 4
 219.238 704.102 223.145 703.125 227.539 700.684 c 4
 236.816 695.312 241.699 687.012 243.652 677.734 c 4
 244.141 674.805 244.141 672.363 244.141 669.434 c 4
 244.141 656.25 239.746 637.207 233.398 614.746 c 4
 229.004 598.633 225.586 584.473 224.609 572.754 c 5
 238.281 578.613 250 585.449 260.742 593.75 c 4
 280.273 608.887 294.434 618.164 303.223 621.094 c 4
 309.57 623.535 314.941 624.023 320.312 624.023 c 4
 323.73 624.023 326.172 624.023 329.102 623.047 c 4
 338.379 621.582 344.238 617.188 348.633 610.352 c 4
 352.051 604.98 353.516 600.098 353.516 594.238 c 4
 353.516 591.797 353.516 590.332 353.027 588.379 c 4
 351.074 578.613 345.215 571.289 335.938 565.918 c 4
 324.707 559.57 300.781 557.617 272.949 557.129 c 4
 256.348 556.641 242.188 555.176 230.469 553.223 c 5
 240.723 541.992 251.465 533.203 262.207 526.367 c 4
 282.715 513.184 296.387 502.93 302.246 495.605 c 4
 308.594 487.793 312.012 479.98 312.988 471.68 c 4
 313.477 469.727 313.477 468.262 313.477 466.797 c 4
 313.477 459.473 311.523 454.102 307.617 449.219 c 4
 302.734 442.383 296.387 438.477 288.574 437.5 c 4
 286.621 437.012 285.645 437.012 284.18 437.012 c 4
 274.902 437.012 267.578 440.918 261.719 446.289 c 4
 251.953 454.59 241.699 475.586 231.934 501.953 c 4
 225.586 518.555 219.727 531.25 213.379 541.504 c 5
 207.031 530.273 201.172 517.578 195.312 501.953 c 4
 184.082 472.656 174.316 453.125 165.527 446.289 c 4
 158.203 439.941 150.879 437.012 143.066 437.012 c 4
 141.113 437.012 140.137 437.012 138.672 437.5 c 4
 129.395 438.965 124.023 442.871 119.141 449.219 c 4
 115.234 455.078 113.281 460.449 113.77 466.797 c 4
 113.77 468.75 113.77 470.215 113.77 471.68 c 4
 115.234 480.469 119.141 488.281 124.512 495.605 c 4
 131.348 503.906 146.484 514.648 165.039 526.367 c 4
 178.711 534.668 189.453 543.945 198.242 553.711 c 5
 185.059 556.152 170.41 557.129 155.273 557.129 c 4
EndSplineSet
Fore
SplineSet
198 567 m 1
 185 570 171 571 156 571 c 0
 107 571 75 578 75 608 c 0
 75 622 84 638 108 638 c 0
 142 638 160 605 204 587 c 1
 200 626 181 653 181 679 c 0
 181 700 193 718 211 718 c 0
 229 718 244 707 244 683 c 0
 244 656 227 616 225 586 c 1
 271 606 287 638 320 638 c 0
 347 638 354 618 354 608 c 0
 354 578 319 571 285 571 c 0
 266 571 248 570 230 567 c 1
 264 530 313 520 313 480 c 0
 313 462 298 451 284 451 c 0
 245 451 238 516 213 555 c 1
 188 510 181 451 143 451 c 0
 126 451 114 464 114 479 c 0
 114 522 165 530 198 567 c 1
EndSplineSet
Validated: 3073
EndChar

StartChar: plus
Encoding: 43 43 8
Width: 527
VWidth: 999
Flags: MW
HStem: 208 49<66 238 289 461>
VStem: 238 51<34 208 257 431>
LayerCount: 2
Back
SplineSet
-58 257 m 29
 565 257 l 29
0 572 m 5
 527 572 l 5
 527 0 l 5
 0 0 l 5
 0 572 l 5
EndSplineSet
Fore
SplineSet
289 257 m 1
 461 257 l 1
 461 208 l 1
 289 208 l 1
 289 34 l 1
 238 34 l 1
 238 208 l 1
 66 208 l 1
 66 257 l 1
 238 257 l 1
 238 431 l 1
 289 431 l 1
 289 257 l 1
EndSplineSet
Validated: 3073
AlternateSubs2: "'aalt' Alle Alternativen zeigen 1" plus.superior plus.inferior uni2098
Substitution2: "'sinf' Wissenschaftliche Indices 1" plus.inferior
Substitution2: "'sups' Hochgestellte 1" plus.superior
EndChar

StartChar: slash
Encoding: 47 47 9
Width: 323
VWidth: 999
Flags: W
HStem: 626 20G<245.277 293>
VStem: 15 278
DStem2: 15 -59 56 -59 0.318647 0.947874<13.0645 743.77>
LayerCount: 2
Back
SplineSet
267.97 661.299 m 1
 50.0186 17.6553 l 1
 14.5068 17.6553 l 1
 232.458 661.299 l 1
 267.97 661.299 l 1
EndSplineSet
Fore
SplineSet
293 646 m 1
 56 -59 l 1
 15 -59 l 1
 252 646 l 1
 293 646 l 1
EndSplineSet
Validated: 3073
Ligature2: "'frac' Brueche 1" uni2215
AlternateSubs2: "'aalt' Alle Alternativen zeigen 1" uni2215
EndChar

StartChar: one
Encoding: 49 49 10
Width: 440
VWidth: 999
Flags: W
HStem: -3 21G<230 277 277 323> 476 31<117.548 168.818> 558 20G<285 317.75>
VStem: 238 77<2.61911 480.813>
LayerCount: 2
Back
SplineSet
46.875 578.125 m 25
 347.168 578.125 l 25
0 572.012 m 1
 438.965 572.012 l 1
 438.965 0 l 1
 0 0 l 1
 0 572.012 l 1
EndSplineSet
Fore
SplineSet
315 179 m 6
 315 103.766 316 56 323 0 c 5
 321 -3 l 5
 321 -3 295.248 0 277 0 c 7
 259.883 0 231 -3 231 -3 c 5
 230 0 l 5
 236 54 238 105 238 179 c 6
 238 410 l 6
 238 444 237.5 482 221 482 c 7
 202 482 160 480 118 476 c 5
 116 507 l 5
 204 527 254 558 316 578 c 5
 319.5 578 322 577.75 322 573 c 5
 320.333 560 315 521 315 419 c 6
 315 179 l 6
EndSplineSet
AlternateSubs2: "'aalt' Alle Alternativen zeigen 1" one.oldstyle one.superior one.fitted
Substitution2: "'sups' Hochgestellte 1" one.superior
Substitution2: "'sinf' Wissenschaftliche Indices 1" one.inferior
Substitution2: "'pnum' Proportionalziffern 1" one.fitted
Substitution2: "'onum' Minuskelziffern 1" one.taboldstyle
EndChar

StartChar: two
Encoding: 50 50 11
Width: 440
VWidth: 487
Flags: W
HStem: -4 79<145 388.969> 537 41<139.822 261.852>
VStem: 304 86<342.923 495.896>
DStem2: 158 194 209 176 0.718358 0.695673<-79.712 211.062>
LayerCount: 2
Back
SplineSet
46.875 578.125 m 25
 347.168 578.125 l 25
0 572.012 m 1
 438.965 572.012 l 5
 438.965 0 l 1
 0 0 l 1
 0 572.012 l 1
EndSplineSet
Fore
SplineSet
205 537 m 3
 159 537 117 512 86 456 c 1
 73 457 l 1
 53 522 l 1
 56 526 l 1
 80 547 145 578 213 578 c 3
 326 578 390 531 390 429 c 3
 390 357 358 320 304 268 c 2
 209 176 l 2
 169.998 138.23 145 90 145 75 c 1
 233 75 l 2
 328 75 339 79 394 83 c 1
 391 71 389 43 389 31 c 3
 389 19 391 8 394 -4 c 1
 323 -1 315 0 244 0 c 3
 172 0 124 -2 48 -4 c 25
 47 0 l 17
 47 56 65 99 158 194 c 2
 228 263 l 2
 284 320 304 349.975 304 430 c 3
 304 509 239 537 205 537 c 3
EndSplineSet
AlternateSubs2: "'aalt' Alle Alternativen zeigen 1" two.oldstyle two.superior two.fitted
Substitution2: "'sups' Hochgestellte 1" two.superior
Substitution2: "'sinf' Wissenschaftliche Indices 1" two.inferior
Substitution2: "'pnum' Proportionalziffern 1" two.fitted
Substitution2: "'onum' Minuskelziffern 1" two.taboldstyle
EndChar

StartChar: three
Encoding: 51 51 12
Width: 440
VWidth: 487
Flags: W
HStem: -10 39<118.252 250.357> 287 33<145 181.572> 539 39<141.07 253.816>
VStem: 289 81<371.344 504.643> 306 88<86.5251 235.281>
LayerCount: 2
Back
SplineSet
46.875 578.125 m 29
 347.168 578.125 l 29
0 572.012 m 1
 438.965 572.012 l 1
 438.965 0 l 1
 0 0 l 1
 0 572.012 l 1
EndSplineSet
Fore
SplineSet
183 29 m 3xe8
 111.937 29 99 67 68 123 c 1
 55 122 l 1
 35 47 l 1
 38 43 l 1
 62 22 109 -10 181 -10 c 3
 280 -10 394 46.3809 394 171 c 3xe8
 394 246.06 344 302 274 309 c 1
 274 312 l 1
 336 330 370 377.76 370 457 c 3
 370 523.189 293.1 578 213 578 c 3
 141 578 82 546 58 525 c 1
 55 521 l 1
 75 446 l 1
 88 445 l 1
 119 501 136.992 539 204 539 c 3
 241.121 539 289 504.008 289 442 c 3xf0
 289 367 237 325 145 320 c 1
 145 287 l 1
 156 289 173 289 182 289 c 3
 236 289 306 246 306 168 c 3
 306 43.9639 216 29 183 29 c 3xe8
EndSplineSet
AlternateSubs2: "'aalt' Alle Alternativen zeigen 1" three.oldstyle three.superior three.fitted
Substitution2: "'sups' Hochgestellte 1" three.superior
Substitution2: "'sinf' Wissenschaftliche Indices 1" three.inferior
Substitution2: "'pnum' Proportionalziffern 1" three.fitted
Substitution2: "'onum' Minuskelziffern 1" three.taboldstyle
EndChar

StartChar: four
Encoding: 52 52 13
Width: 440
VWidth: 487
Flags: MW
HStem: -3 21G<259 307 341.5 346.5> 140 52<96 266 343 415.957> 552 20G<274 307 341.39 346.5>
VStem: 266 77<2.22899 140 192 485>
DStem2: 50 196 96 192 0.501851 0.864954<19.6253 358.372>
LayerCount: 2
Back
SplineSet
227 189 m 6
 -12 189 l 6
 -21 189 -26 196 -26 206 c 4
 -26 218 -22 224 -8 244 c 6
 313 692 l 6
 320 701 326 706 336 706 c 6
 353 706 l 6
 363 706 368 703 368 698 c 4
 368 695 366 691 363 687 c 6
 45 247 l 6
 33 231 47 231 73 231 c 6
 228 231 l 6
 252 231 256 234 256 257 c 6
 256 441 l 6
 256 448 257 456 265 461 c 4
 277 469 300 477 316 478 c 4
 330 479 330 467 330 447 c 6
 330 254 l 6
 330 235 333 231 350 231 c 6
 414 231 l 5
 423 224 423 198 414 189 c 5
 360 189 l 6
 335 189 330 188 330 167 c 6
 330 122 l 6
 330 43 332 30 373 25 c 6
 399 22 l 5
 405 16 404 0 397 -3 c 5
 361 -1 324 0 293 0 c 4
 257 0 212 -1 168 -3 c 5
 161 0 160 16 166 22 c 5
 211 25 l 6
 253 28 256 45 256 122 c 6
 256 164 l 6
 256 188 253 189 227 189 c 6
46.875 578.125 m 25
 347.168 578.125 l 25
-58.1055 256.836 m 25
 565.43 256.836 l 25
0 572.012 m 1
 438.965 572.012 l 1
 438.965 0 l 1
 0 0 l 1
 0 572.012 l 1
EndSplineSet
Fore
SplineSet
266 485 m 1
 96 192 l 1
 266 192 l 1
 266 485 l 1
266 140 m 1
 93 140 l 2
 59 140 38 145 38 159 c 3
 38 169 40 179 50 196 c 0
 99.5637 280.258 216 490 274 569 c 1
 274 570 275 572 275 572 c 1
 275 572 292 569 307 569 c 3
 320.928 569 336.78 572 346 572 c 3
 347 572 348 570 348 569 c 27
 348 514 343 483 343 428 c 27
 343 336 343 284 343 192 c 1
 366 192 405 192 405 192 c 2
 415 192 419 182 419 173 c 0
 419 162 405 140 392 140 c 2
 392 140 377 140 343 140 c 1
 343 85 348 55 348 0 c 27
 348 -1 347 -3 346 -3 c 3
 337 -3 322 0 307 0 c 3
 291.867 0 260 -3 260 -3 c 1
 259 0 l 1
 264 48 265.973 66.8816 266 140 c 1
EndSplineSet
AlternateSubs2: "'aalt' Alle Alternativen zeigen 1" four.oldstyle four.superior four.fitted
Substitution2: "'sups' Hochgestellte 1" four.superior
Substitution2: "'sinf' Wissenschaftliche Indices 1" four.inferior
Substitution2: "'pnum' Proportionalziffern 1" four.fitted
Substitution2: "'onum' Minuskelziffern 1" four.taboldstyle
EndChar

StartChar: five
Encoding: 53 53 14
Width: 440
VWidth: 487
Flags: MW
HStem: -10 39<128.252 250.808> 313 47<121.546 256.278> 505 63<139.884 352.798>
VStem: 301 82<91.5089 264.326>
DStem2: 67 290 121 345 0.112358 0.993668<60.7191 229.795>
LayerCount: 2
Back
SplineSet
46.875 578.125 m 25
 377.93 578.125 l 29
308.838 169.678 m 0
 308.838 273.438 245.117 323.242 188.477 323.242 c 0
 140.625 323.242 98.6328 311.523 74.2188 300.293 c 1
 106.445 572.754 l 1
 369.629 572.754 l 1
 355.469 514.648 l 1
 355.469 512.695 l 1
 142.09 512.695 l 1
 123.047 355.469 l 1
 140.625 365.234 170.898 370.117 212.891 370.117 c 0
 312.5 370.117 381.104 297.363 381.104 186.279 c 0
 381.104 54.9316 305.664 -9.27734 187.988 -9.27734 c 0
 130.859 -9.27734 47.8516 22.4609 47.8516 62.0117 c 0
 47.8516 81.0547 63.9648 93.75 82.0312 93.75 c 0
 102.051 93.75 114.258 79.1016 126.953 62.9883 c 0
 141.113 44.9219 157.715 24.9023 189.453 24.9023 c 0
 259.766 24.9023 308.838 75.1953 308.838 169.678 c 0
0 572.012 m 1
 438.965 572.012 l 1
 438.965 0 l 1
 0 0 l 1
 0 572.012 l 1
EndSplineSet
Fore
SplineSet
191 -10 m 3
 119 -10 72 22 48 43 c 1
 45 47 l 1
 65 122 l 1
 78 123 l 1
 109 67 121.937 29 193 29 c 3
 257 29 301 82 301 169 c 3
 301 272 254 313 192 313 c 3
 146 313 106 306 67 290 c 1
 99 573 l 1
 132 570 171 568 206 568 c 3
 256 568 308 572 362 578 c 1
 368 575 l 1
 353 510 l 1
 314 506 282 505 254 505 c 3
 209 505 175 509 140 513 c 1
 121 345 l 1
 142 353 178 360 217 360 c 3
 323 360 383 278 383 186 c 3
 383 74 304 -10 191 -10 c 3
EndSplineSet
AlternateSubs2: "'aalt' Alle Alternativen zeigen 1" five.oldstyle five.superior five.fitted
Substitution2: "'sups' Hochgestellte 1" five.superior
Substitution2: "'sinf' Wissenschaftliche Indices 1" five.inferior
Substitution2: "'pnum' Proportionalziffern 1" five.fitted
Substitution2: "'onum' Minuskelziffern 1" five.taboldstyle
EndChar

StartChar: six
Encoding: 54 54 15
Width: 440
VWidth: 487
Flags: W
HStem: -10 34<186.729 285.73> 303 36<169.149 275.391> 552 26<309.619 376.808>
VStem: 44 80<101.897 306.795> 326 79<79.8432 254.373>
LayerCount: 2
Back
SplineSet
46.875 578.125 m 25
 406.25 578.125 l 25
0 572.012 m 1
 438.965 572.012 l 1
 438.965 0 l 1
 0 0 l 1
 0 572.012 l 1
375.977 561.035 m 1
 295.898 543.945 258.403 525.747 227.051 500.977 c 0
 197.85 477.906 176.758 453.125 154.297 405.762 c 0
 135.949 367.065 124.211 330.648 118.615 290.749 c 1
 141.601 318.168 194.727 339.844 232.422 339.844 c 0
 284.18 339.844 322.266 333.008 361.328 292.48 c 0
 386.23 266.113 402.344 213.867 402.344 177.246 c 0
 402.344 129.395 383.489 72.0898 354.492 43.9453 c 0
 321.289 11.7188 277.344 -2.44141 230.469 -2.44141 c 0
 184.567 -2.44141 148.438 10.7422 118.164 37.5977 c 0
 69.2656 80.9756 45.8984 131.836 45.8984 235.84 c 0
 45.8984 295.898 62.0117 358.398 85.4492 403.809 c 0
 110.84 452.637 146.6 491.05 192.871 524.414 c 0
 239.374 557.944 293.945 573.242 375.488 580.566 c 1
 375.977 561.035 l 1
115.692 262.137 m 1
 115.06 252.512 114.746 242.629 114.746 232.422 c 0
 114.746 164.062 128.018 107.486 149.414 78.125 c 0
 170.007 49.8672 205.078 26.8555 240.234 26.8555 c 0
 270.02 26.8555 293.457 41.9922 306.641 61.5234 c 0
 328.125 91.3086 334.961 131.51 334.961 169.434 c 0
 334.961 201.188 322.754 245.117 303.223 268.066 c 0
 280.762 294.434 251.465 307.129 215.332 307.129 c 0
 194.572 307.129 156.109 305.244 115.692 262.137 c 1
EndSplineSet
Fore
SplineSet
379 552 m 1
 314 546 258 529 210 482 c 0
 164 437 139 370 128 290 c 1
 151 318 198 339 236 339 c 3
 384 339 405 217 405 171 c 3
 405 103 369 -10 231 -10 c 3
 158 -10 44 31 44 230 c 3
 44 322 78 412 147 481 c 0
 211 546 278 573 376 578 c 1
 379 552 l 1
125 262 m 1
 124 252 124 237 124 227 c 3
 124 59 191 24 241 24 c 3
 287 24 326 60 326 164 c 3
 326 211 312 303 216 303 c 3
 195 303 162 300 125 262 c 1
EndSplineSet
AlternateSubs2: "'aalt' Alle Alternativen zeigen 1" six.oldstyle six.superior six.fitted
Substitution2: "'sups' Hochgestellte 1" six.superior
Substitution2: "'sinf' Wissenschaftliche Indices 1" six.inferior
Substitution2: "'pnum' Proportionalziffern 1" six.fitted
Substitution2: "'onum' Minuskelziffern 1" six.taboldstyle
EndChar

StartChar: seven
Encoding: 55 55 16
Width: 440
VWidth: 487
Flags: MW
HStem: -12 21G<117 185> 503 65<98.1355 327.687>
LayerCount: 2
Back
SplineSet
164.062 522.432 m 2
 133.789 522.432 100.098 505.342 80.0781 433.075 c 1
 53.2227 436.005 l 1
 62.0117 484.833 67.3828 528.779 68.6035 573.701 c 1
 93.2617 573.701 l 1
 95.2148 567.842 104.441 561.523 120.361 561.523 c 2
46.875 578.125 m 25
 347.168 578.125 l 25
0 572.012 m 1
 438.965 572.012 l 1
 438.965 0 l 1
 0 0 l 1
 0 572.012 l 1
EndSplineSet
Fore
SplineSet
329 503 m 1
 274 503 202 502 60 494 c 1
 62 508 64 522 64 536 c 1
 64 550 62 560 60 574 c 1
 100.25 568.75 184 568 325 568 c 4
 354 568 372 574 386 578 c 1
 402 568 l 1
 296 310 239 152 185 -9 c 1
 120 -12 l 1
 117 -6 l 1
 180 136 255 321 329 503 c 1
EndSplineSet
Validated: 3073
AlternateSubs2: "'aalt' Alle Alternativen zeigen 1" seven.oldstyle seven.superior seven.fitted
Substitution2: "'sups' Hochgestellte 1" seven.superior
Substitution2: "'sinf' Wissenschaftliche Indices 1" seven.inferior
Substitution2: "'pnum' Proportionalziffern 1" seven.fitted
Substitution2: "'onum' Minuskelziffern 1" seven.taboldstyle
EndChar

StartChar: nine
Encoding: 57 57 17
Width: 440
VWidth: 487
Flags: W
HStem: -10 26<59.1923 126.381> 229 36<160.609 266.852> 544 34<150.27 249.271>
VStem: 31 79<313.627 488.157> 312 80<261.205 466.103>
LayerCount: 2
Back
SplineSet
46.875 578.125 m 29
 347.168 578.125 l 29
0 572.012 m 1
 438.965 572.012 l 1
 438.965 0 l 1
 0 0 l 1
 0 572.012 l 1
EndSplineSet
Fore
Refer: 15 54 N -1 0 0 -1 436 568 2
AlternateSubs2: "'aalt' Alle Alternativen zeigen 1" nine.oldstyle nine.superior nine.fitted
Substitution2: "'sups' Hochgestellte 1" nine.superior
Substitution2: "'sinf' Wissenschaftliche Indices 1" nine.inferior
Substitution2: "'pnum' Proportionalziffern 1" nine.fitted
Substitution2: "'onum' Minuskelziffern 1" nine.taboldstyle
Colour: ff00ff
EndChar

StartChar: less
Encoding: 60 60 19
Width: 487
VWidth: 999
Flags: W
HStem: 73 331
DStem2: 49 263 122 239 0.940425 0.34<60.4911 397.706> 122 239 49 215 0.939653 -0.34213<0 337.557>
LayerCount: 2
Fore
SplineSet
122 239 m 1
 439 123 l 1
 439 73 l 1
 49 215 l 1
 49 263 l 1
 439 404 l 1
 439 354 l 1
 122 239 l 1
EndSplineSet
Validated: 3073
EndChar

StartChar: equal
Encoding: 61 61 20
Width: 527
VWidth: 999
Flags: W
HStem: 144 49<66 461> 269 49<66 461>
LayerCount: 2
Back
SplineSet
-58 257 m 25
 565 257 l 25
0 572 m 1
 527 572 l 1
 527 0 l 1
 0 0 l 1
 0 572 l 1
EndSplineSet
Fore
SplineSet
461 193 m 1
 461 144 l 1
 66 144 l 1
 66 193 l 1
 461 193 l 1
461 318 m 1
 461 269 l 1
 66 269 l 1
 66 318 l 1
 461 318 l 1
EndSplineSet
Validated: 3073
AlternateSubs2: "'aalt' Alle Alternativen zeigen 1" equal.superior
Substitution2: "'sinf' Wissenschaftliche Indices 1" equal.inferior
Substitution2: "'sups' Hochgestellte 1" equal.superior
EndChar

StartChar: question
Encoding: 63 63 22
Width: 405
VWidth: 487
Flags: W
HStem: -10 112<143.368 217.353> 619 40<136.736 250.119>
VStem: 124 112<6.28114 82.4613> 167 26<174.002 289.255> 294 75<434.552 577.274>
LayerCount: 2
Back
SplineSet
497.5 375.775 m 0
 511.406 395.306 532.124 412.618 559.648 427.71 c 0
 578.589 437.771 600.186 454.344 624.453 477.426 c 128
 647.236 498.73 658.491 522.847 658.188 549.78 c 0
 657.891 581.152 651.089 603.936 637.773 618.14 c 128
 616.763 640.034 594.414 650.986 570.742 650.986 c 0
 545.298 650.986 522.358 640.776 501.938 620.361 c 128
 485.662 603.789 475.896 585.293 472.644 564.873 c 1
 435.357 564.873 l 1
 435.357 615.918 l 1
 442.459 625.684 459.622 639.004 486.849 655.869 c 128
 508.154 669.487 537.451 676.289 574.741 676.289 c 0
 626.528 676.289 664.106 661.787 687.485 632.788 c 128
 706.431 609.116 715.898 581.597 715.898 550.225 c 0
 715.898 520.928 704.653 492.222 682.163 464.109 c 128
 662.93 440.139 633.335 416.465 593.384 393.086 c 0
 571.187 380.065 554.766 364.678 544.111 346.922 c 0
 534.048 330.646 529.019 314.221 529.019 297.65 c 0
 529.019 282.261 533.604 269.685 542.778 259.919 c 0
 555.796 246.307 571.777 239.352 590.718 239.056 c 0
 611.138 238.76 637.471 242.459 669.731 250.152 c 1
 669.731 237.281 l 1
 662.632 231.066 652.275 224.852 638.657 218.637 c 0
 623.569 212.127 605.225 208.724 583.618 208.428 c 0
 552.246 207.836 525.469 215.974 503.271 232.842 c 0
 481.667 249.117 471.167 271.756 471.756 300.758 c 8
 472.345 327.095 480.933 352.101 497.5 375.775 c 0
EndSplineSet
Fore
SplineSet
195 619 m 0xd8
 139 619 98 570 72 525 c 1
 59 526 l 1
 43 593 l 1
 46 597 l 1
 70.5 617.5 131.5 659 204 659 c 0
 306 659 369 599 369 508 c 0
 369 429 310 385 263 351 c 0
 240 334 220 318 211 301 c 0
 198 276 193 252 193 228 c 10
 193 184 l 2
 193 177 188 174 180 174 c 0
 172 174 167 177 167 184 c 2
 167 230 l 2
 167 273 169 332 234 391 c 0
 274 428 294 457 294 504 c 0
 294 569 252 619 195 619 c 0xd8
EndSplineSet
Refer: 256 46 N 1 0 0 1 70 0 2
Validated: 35841
Colour: ff80cc
EndChar

StartChar: at
Encoding: 64 64 23
Width: 895
VWidth: 999
Flags: HMW
HStem: -158 33<366.698 569.227> 27 43<368.151 451.044> 27 35<536.5 668.322> 379 31<449.098 547.769> 581 30<366.475 546.302>
VStem: 59 80<106.897 345.058> 273 73<90.7683 252.641> 760 79<177.345 388.516>
LayerCount: 2
Back
SplineSet
658.691 46.875 m 0xbf
 658.691 35.6445 668.945 33.2031 671.387 33.2031 c 0
 791.992 33.2031 872.07 77.1484 872.07 289.062 c 0
 872.07 551.758 671.387 648.926 523.926 648.926 c 0
 345.215 648.926 142.09 521.484 142.09 242.676 c 0
 142.09 100.098 220.215 -187.988 534.18 -187.988 c 0
 634.277 -187.988 707.52 -159.668 770.996 -109.863 c 1
 786.621 -131.348 l 1
 715.82 -184.57 645.02 -226.562 512.207 -226.562 c 0
 245.605 -226.562 58.5938 -22.9492 58.5938 228.027 c 0
 58.5938 481.445 250.977 684.57 524.414 684.57 c 0
 776.855 684.57 948.242 505.859 948.242 285.156 c 0
 948.242 151.367 882.324 -5.37109 626.953 -5.37109 c 0xdf
 592.773 -5.37109 584.473 20.9961 584.473 40.0391 c 0
 584.473 58.5938 589.355 83.4961 599.121 114.746 c 1
 530.273 14.6484 474.121 -2.92969 442.871 -2.92969 c 0
 325.684 -2.92969 305.176 92.7734 305.176 139.16 c 0
 305.176 308.105 448.73 441.895 573.242 441.895 c 0
 612.793 441.895 652.344 421.875 664.062 391.602 c 1
 669.922 419.922 l 1
 726.074 434.57 l 1
 744.141 428.711 l 1
 674.316 125 l 2
 666.992 93.2617 658.691 56.6406 658.691 46.875 c 0xbf
647.949 334.961 m 0
 647.949 378.418 618.164 411.133 576.66 411.133 c 0
 556.152 411.133 506.836 410.645 464.355 363.77 c 0
 407.227 302.246 385.742 222.656 385.742 150.391 c 0
 385.742 94.2383 404.297 39.0625 478.027 39.0625 c 0xbf
 509.766 39.0625 582.031 103.516 612.793 183.105 c 0
 626.953 220.703 647.949 306.152 647.949 334.961 c 0
EndSplineSet
Fore
SplineSet
583 74 m 3xbf
 583 64 592 62 594 62 c 3
 696 62 760 109 760 275 c 3
 760 481 584 581 459 581 c 3
 307 581 139 478 139 241 c 3
 139 91 215 -125 473 -125 c 3
 558 -125 620 -102 674 -59 c 1
 687 -77 l 1
 627 -123 567 -158 454 -158 c 3
 215 -158 59 10 59 223 c 3
 59 438 244 611 469 611 c 3
 684 611 839 469 839 282 c 3
 839 168 769 27 551 27 c 3
 522 27 515 52 515 68 c 3
 515 83 522 106 530 131 c 1
 528 132 l 1
 484 58 430 29 395 29 c 7
 295 29 273 113 273 153 c 3
 273 296 400 410 506 410 c 3
 539 410 573 393 583 367 c 1
 588 391 l 1
 641 404 l 1
 656 399 l 1
 596 141 l 2
 590 114 583 80.5 583 74 c 3xbf
569 316 m 0
 569 354 540 379 504 379 c 3
 487 379 444 370 414 339 c 0
 363 288 346 224 346 162 c 3
 346 114 361 70 424 70 c 3xdf
 459 70 508 127 539 200 c 0
 552 231 569 282 569 316 c 0
EndSplineSet
EndChar

StartChar: A
Encoding: 65 65 24
Width: 633
Flags: W
HStem: -3 21G<24 68.5 92 115.444 500.087 513.5 590 606.5> 230 44<188.935 310> 638 20G<265 387>
AnchorPoint: "unten_punkt" 270 -108 basechar 0
AnchorPoint: "unten_anhang" 58 8 basechar 0
AnchorPoint: "top_akzent" 322 798 basechar 0
AnchorPoint: "top_punkt" 322 700 basechar 0
LayerCount: 2
Back
SplineSet
132 79 m 6
 121.979 53.5967 134.54 31.583 172 29 c 6
 201 27 l 6
 204.991 26.7246 209 24 209 19 c 6
 209 0 l 5
 207 -2 l 5
 207 -2 98 0 74 0 c 4
 48 0 -16 -2 -16 -2 c 5
 -18 0 l 5
 -18 19 l 6
 -18 24 -14.9883 26.6562 -10 27 c 4
 33.5 30 59.1699 37.7783 86.9834 102 c 6
 309.333 622.333 l 6
 318.036 642.698 331.667 658 344 658 c 4
 355 658 362.389 648.121 370 628 c 6
 575 86 l 6
 589 47 609.193 31.6191 649 28 c 6
 660 27 l 6
 664.98 26.5469 670 24 670 19 c 6
 670 0 l 5
 667 -2 l 5
 667 -2 590 0 551 0 c 4
 516 0 418 -2 418 -2 c 5
 417 0 l 5
 417 19 l 6
 417 24 419.013 26.6436 424 27 c 6
 452 29 l 6
 489.772 31.6982 503.995 44.3066 494 72 c 6
 433 241 l 5
 225 241 l 6
 201 241 195.06 236.649 190 224 c 6
 132 79 l 6
243 283 m 6
 417 283 l 5
 319 550 l 5
 318 550 l 5
 217.826 296.333 l 6
 213.576 285.571 226.965 283 243 283 c 6
EndSplineSet
Fore
SplineSet
191.667 275.992 m 5
 223.654 275.855 273.218 274 305 274 c 4
 339.111 274 389.174 274.95 423.333 275.924 c 5
 435.667 228.081 l 5
 395.777 229.054 350.861 230 310 230 c 4
 273.191 230 211.384 229.049 173.667 228.081 c 5
 173.667 228.081 191.11 275.992 191.667 275.992 c 5
306.032 521.764 m 5
 234.2 354.739 132.888 127.827 98 -3 c 5
 86 0 64 0 53 0 c 4
 42 0 30 0 18 -3 c 5
 119 218 217 436 313 658 c 5
 341 658 l 5
 433 439 565 98 615 -3 c 5
 598 0 572 0 555 0 c 4
 538 0 522 0 505 -3 c 5
 495.174 32.4844 443.246 210.993 308.032 521.764 c 5
 306.032 521.764 l 5
EndSplineSet
Validated: 3077
Position2: "'cpsp' Versalabstaende 1" dx=2 dy=0 dh=5 dv=0
Substitution2: "'c2sc' Versale nach Kapitaelchen 1" a.sc
EndChar

StartChar: B
Encoding: 66 66 25
Width: 582
VWidth: 999
Flags: HW
HStem: -3 44<171.13 393.675> 327 44<189 355.197> 604 44<169.378 351.471>
VStem: 103 86<49.3073 327 371 597.325> 395 87<424.724 562.128> 442 99<97.3818 255.662>
AnchorPoint: "unten_punkt" 268 -108 basechar 0
AnchorPoint: "unten_anhang" 250 0 basechar 0
AnchorPoint: "top_punkt" 282 700 basechar 0
AnchorPoint: "top_akzent" 281 798 basechar 0
LayerCount: 2
Fore
SplineSet
146 645 m 11xf4
 193.204 645 232 648 267 648 c 3
 453 648 482 560 482 493 c 3xf8
 482 438 440 385 389 360 c 1
 476 335 541 280 541 184 c 3
 541 98 488 -3 289 -3 c 3
 200 -3 201.782 0 146 0 c 19
 111 0 94 -3 94 -3 c 1
 93 0 l 1
 101 54 103 124.999 103 200 c 2
 103 445 l 2
 103 520 101 588 93 645 c 1
 95 648 l 1
 95 648 112 645 146 645 c 11xf4
189 327 m 1
 189 88 l 2
 189 55 200 41 270 41 c 3
 422 41 442 92 442 165 c 3xf4
 442 255 393 327 276 327 c 2
 189 327 l 1
189 559 m 2
 189 371 l 1
 261 371 l 2
 344 371 395 396 395 481 c 3xf8
 395 583 330 604 274 604 c 3
 193 604 189 592.333 189 559 c 2
EndSplineSet
Position2: "'cpsp' Versalabstaende 1" dx=2 dy=0 dh=5 dv=0
Substitution2: "'c2sc' Versale nach Kapitaelchen 1" b.sc
EndChar

StartChar: C
Encoding: 67 67 26
Width: 650
VWidth: 999
Flags: HW
HStem: -10 51<269.467 470.143> 611 47<271.061 460.844>
VStem: 37 103<195.742 435.455>
AnchorPoint: "unten_punkt" 369 -110 basechar 0
AnchorPoint: "unten_anhang" 362 -7 basechar 0
AnchorPoint: "top_punkt" 366 700 basechar 0
AnchorPoint: "top_akzent" 366 798 basechar 0
LayerCount: 2
Back
SplineSet
572.754 645.508 m 5
 591.797 471.68 l 5
 562.012 468.75 l 5
 554.688 511.719 519.043 606.445 467.285 606.445 c 6
EndSplineSet
Fore
SplineSet
365 658 m 7
 487 658 583 613 583 613 c 5
 585 609.999 l 5
 573.238 560.747 568.554 549.993 565 499 c 5
 555 498 l 5
 514 580 441 611 351 611 c 7
 269 611 140 537 140 334 c 3
 140 188 205 41 360 41 c 3
 453 41 521 62 592 140 c 1
 615 125 l 1
 547 36 448 -10 351 -10 c 3
 136 -10 37 154 37 315 c 3
 37 512 196 658 365 658 c 7
EndSplineSet
Position2: "'cpsp' Versalabstaende 1" dx=2 dy=0 dh=5 dv=0
Substitution2: "'c2sc' Versale nach Kapitaelchen 1" c.sc
EndChar

StartChar: D
Encoding: 68 68 27
Width: 698
VWidth: 999
Flags: W
HStem: -2 44<168.537 432.266> 604 44<169.393 389.698>
VStem: 101 86<49.3073 594.385> 552 103<179.784 425.325>
AnchorPoint: "unten_punkt" 279 -107 basechar 0
AnchorPoint: "unten_anhang" 279 4 basechar 0
AnchorPoint: "top_punkt" 306 700 basechar 0
AnchorPoint: "top_akzent" 306 798 basechar 0
LayerCount: 2
Fore
SplineSet
144 645 m 11
 208 645 245 648 309 648 c 19
 501 648 655 494 655 308 c 3
 655 62 468 -2 327 -2 c 3
 224 -2 215 0 144 0 c 19
 109 0 92 -3 92 -3 c 1
 91 0 l 1
 99 54 101 124.999 101 200 c 2
 101 445 l 2
 101 520 99 588 91 645 c 1
 93 648 l 1
 93 648 110 645 144 645 c 11
187 82 m 2
 187 50 198 42 296 42 c 3
 437 42 552 82 552 284 c 3
 552 438 487 604 271 604 c 3
 222 604 187 599 187 564 c 2
 187 82 l 2
EndSplineSet
Position2: "'cpsp' Versalabstaende 1" dx=2 dy=0 dh=5 dv=0
Substitution2: "'c2sc' Versale nach Kapitaelchen 1" d.sc
EndChar

StartChar: E
Encoding: 69 69 28
Width: 522
VWidth: 999
Flags: HW
HStem: 0 54<186.656 409.594> 321 42<182 388.188> 596 49<186.656 403.188>
VStem: 96 86<55.2087 321 363 594.385>
AnchorPoint: "unten_anhang" 279 4 basechar 0
AnchorPoint: "unten_punkt" 279 -107 basechar 0
AnchorPoint: "top_punkt" 280 700 basechar 0
AnchorPoint: "top_akzent" 283 805 basechar 0
LayerCount: 2
Back
SplineSet
98 150 m 6x3d
 98 510 l 6
 98 614 96 629 37 636 c 6
 21 638 l 5
 15 642 17 660 23 663 c 5x3b
 66 661 100 660 141 660 c 6
 329 660 l 6x3d
 393 660 452 660 464 663 c 5x3b
 470 646 476 574 480 530 c 5
 476 524 460 522 455 528 c 5
 440 575 431 610 379 623 c 4
 358 628 326 629 282 629 c 6
 210 629 l 6
 180 629 180 627 180 589 c 6
 180 389 l 6
 180 361 183 361 213 361 c 6
 271 361 l 6
 313 361 344 363 356 367 c 4
 368 371 375 377 380 402 c 6
 388 443 l 5
 393 449 410 449 414 442 c 5
 414 418 410 379 410 341 c 4
 410 305 414 267 414 245 c 5
 410 238 393 238 388 244 c 5
 379 283 l 6
 375 301 368 316 348 321 c 4
 334 325 310 326 271 326 c 6
 213 326 l 6
 183 326 180 325 180 299 c 6
 180 158 l 6
 180 105 183 71 199 54 c 4
 211 42 232 31 320 31 c 4
 397 31 426 35 448 46 c 4
 466 56 493 91 519 143 c 5
 526 148 540 145 544 136 c 5
 537 101 512 24 499 -3 c 5
 409 -1 320 0 231 0 c 6
 141 0 l 6x3d
 98 0 64 -1 5 -3 c 5x9d
 -1 0 -3 16 3 22 c 5
 36 25 l 6x5d
 93 30 98 45 98 150 c 6x3d
EndSplineSet
Fore
SplineSet
182 200 m 2
 182 183 183 78 190 54 c 1
 324 54 472 66 472 66 c 1
 474 62 l 1
 473 54 472 39 472 29 c 7
 472 19 473 14 474 0 c 1
 472 -3 l 1
 456 -1 433 0 412 0 c 2
 139 0 l 7
 104 0 87 -3 87 -3 c 1
 86 0 l 1
 94 54 96 125 96 200 c 2
 96 445 l 2
 96 520 94 588 86 645 c 1
 88 648 l 1
 88 648 105 645 139 645 c 7
 169 645 402 645 402 645 c 2
 423 645 446 646 462 648 c 1
 464 645 l 1
 463 631 462 622 462 614 c 7
 462 605 463 596 464 588 c 1
 462 584 l 1
 462 584 324 596 190 596 c 1
 183 572 182 462 182 445 c 2
 182 363 l 1
 300 363 346 368 405 373 c 1
 408 370 l 1
 406 361 405 351 405 342 c 7
 405 333 406 323 408 314 c 1
 405 311 l 1
 336 318 230 321 182 321 c 1
 182 200 l 2
EndSplineSet
Position2: "'cpsp' Versalabstaende 1" dx=2 dy=0 dh=5 dv=0
Substitution2: "'c2sc' Versale nach Kapitaelchen 1" e.sc
EndChar

StartChar: F
Encoding: 70 70 29
Width: 477
VWidth: 999
Flags: W
HStem: -3 21G<88 141 141 194> 321 42<184 390.196> 596 49<188.662 405.195>
VStem: 98 86<2.67992 321 363 594.385>
AnchorPoint: "unten_anhang" 145 -1 basechar 0
AnchorPoint: "unten_punkt" 201 -111 basechar 0
AnchorPoint: "top_punkt" 287 700 basechar 0
AnchorPoint: "top_akzent" 286 798 basechar 0
LayerCount: 2
Fore
SplineSet
401 645 m 6
 425 645 448 646 464 648 c 5
 466 645 l 5
 465 631 464 622 464 614 c 4
 464 605 465 596 466 588 c 5
 464 584 l 5
 464 584 326 596 192 596 c 5
 185 572 184 462 184 445 c 6
 184 363 l 5
 302 363 348 368 407 373 c 5
 410 370 l 5
 408 361 407 351 407 342 c 4
 407 333 408 323 410 314 c 5
 407 311 l 5
 338 318 232 321 184 321 c 5
 184 200 l 6
 184 125 186 57 194 0 c 5
 192 -3 l 5
 192 -3 175 0 141 0 c 4
 106 0 89 -3 89 -3 c 5
 88 0 l 5
 96 54 98 125 98 200 c 6
 98 445 l 6
 98 520 96 588 88 645 c 5
 90 648 l 5
 90 648 107 645 141 645 c 6
 401 645 l 6
EndSplineSet
Validated: 3073
Position2: "'cpsp' Versalabstaende 1" dx=2 dy=0 dh=5 dv=0
Substitution2: "'c2sc' Versale nach Kapitaelchen 1" f.sc
EndChar

StartChar: G
Encoding: 71 71 30
Width: 699
VWidth: 999
Flags: MW
HStem: -10 46<295.106 519.78> 611 47<271.555 476.844>
VStem: 32 103<213.43 430.807> 546 86<83.5114 304.327>
AnchorPoint: "unten_anhang" 371 2 basechar 0
AnchorPoint: "unten_punkt" 371 -111 basechar 0
AnchorPoint: "top_punkt" 369 700 basechar 0
AnchorPoint: "top_akzent" 369 798 basechar 0
LayerCount: 2
Back
SplineSet
593.262 612.793 m 5
 596.309 558.179 605.469 509.766 615.234 458.496 c 5
 584.961 453.613 l 5
 559.082 539.551 501.465 621.094 362.793 621.094 c 4
EndSplineSet
Fore
SplineSet
546 117 m 6
 544.529 191.985 544 250 536 307 c 5
 538 310 l 5
 538 310 555 307 589 307 c 4
 624 307 641 310 641 310 c 5
 642 307 l 5
 634 254 632 212 632 137 c 6
 632 131 l 2
 632 120 633.333 93.667 642 83 c 1
 642 80 l 1
 574.548 23.3506 492.461 -10 376 -10 c 0
 175 -10 32 134 32 307 c 0
 32 527 209 658 381 658 c 0
 503 658 599 613 599 613 c 1
 601 609.999 l 1
 589.238 560.747 584.554 549.993 581 499 c 1
 571 498 l 1
 530 580 457 611 367 611 c 0
 232 611 135 502 135 327 c 0
 135 195 221 36 399 36 c 0
 453 36 512 42 546 74 c 1
 546 117 l 6
EndSplineSet
Validated: 3073
Position2: "'cpsp' Versalabstaende 1" dx=2 dy=0 dh=5 dv=0
Substitution2: "'c2sc' Versale nach Kapitaelchen 1" g.sc
EndChar

StartChar: ograve
Encoding: 242 242 32
Width: 510
VWidth: 999
Flags: HW
HStem: -10 41<204.375 329.082> 398 41<186.898 318.163>
VStem: 36 90<124.397 311.463> 384 90<116.419 317.676>
LayerCount: 2
Back
SplineSet
-90.8203 672.852 m 5
 528.32 672.852 l 5
 528.32 510.254 l 5
 -90.8203 510.254 l 5
 -90.8203 672.852 l 5
EndSplineSet
Fore
Refer: 669 768 N 1 0 0 1 390 -37 2
Refer: 295 111 N 1 0 0 1 0 0 3
Substitution2: "'smcp' Gemeine nach Kapitaelchen 1" ograve.sc
AlternateSubs2: "'aalt' Alle Alternativen zeigen 1" ograve.sc
Colour: ff00ff
EndChar

StartChar: oacute
Encoding: 243 243 33
Width: 510
VWidth: 999
Flags: HW
HStem: -10 41<204.375 329.082> 398 41<186.898 318.163>
VStem: 36 90<124.397 311.463> 384 90<116.419 317.676>
LayerCount: 2
Back
SplineSet
-90.8203 672.852 m 5
 528.32 672.852 l 5
 528.32 510.254 l 5
 -90.8203 510.254 l 5
 -90.8203 672.852 l 5
EndSplineSet
Fore
Refer: 670 769 N 1 0 0 1 432 -37 2
Refer: 295 111 N 1 0 0 1 0 0 3
Substitution2: "'smcp' Gemeine nach Kapitaelchen 1" oacute.sc
AlternateSubs2: "'aalt' Alle Alternativen zeigen 1" oacute.sc
Colour: ff00ff
EndChar

StartChar: ocircumflex
Encoding: 244 244 34
Width: 510
VWidth: 999
Flags: HW
HStem: -10 41<204.375 329.082> 398 41<186.898 318.163>
VStem: 36 90<124.397 311.463> 125 253<517 517> 384 90<116.419 317.676>
LayerCount: 2
Back
SplineSet
151.855 645.508 m 1
 180.664 598.633 217.285 555.664 252.93 515.625 c 1
 232.422 502.441 l 1
 193.359 531.25 159.668 556.152 125.977 592.285 c 1
 88.8672 554.199 56.1523 529.297 19.043 502.441 c 1
 -0.488281 515.625 l 1
 34.668 555.176 72.7539 599.609 102.051 645.508 c 1
 151.855 645.508 l 1
-90.5762 664.062 m 1
 528.076 664.062 l 1
 528.076 500.732 l 1
 -90.5762 500.732 l 1
 -90.5762 664.062 l 1
EndSplineSet
Fore
Refer: 656 710 N 1 0 0 1 74 -22 2
Refer: 295 111 N 1 0 0 1 0 0 3
Substitution2: "'smcp' Gemeine nach Kapitaelchen 1" ocircumflex.sc
AlternateSubs2: "'aalt' Alle Alternativen zeigen 1" ocircumflex.sc
Colour: ff00ff
EndChar

StartChar: otilde
Encoding: 245 245 35
Width: 510
VWidth: 999
Flags: HW
HStem: -10 41<204.375 329.082> 398 41<186.898 318.163> 526 44<263 350> 574 46<145 236> 613 10
VStem: 36 90<124.397 311.463> 384 90<116.419 317.676>
LayerCount: 2
Back
SplineSet
-87.8906 622.07 m 5
 531.25 622.07 l 5
 531.25 525.391 l 5
 -87.8906 525.391 l 5
 -87.8906 622.07 l 5
EndSplineSet
Fore
Refer: 667 732 N 1 0 0 1 105 -48 2
Refer: 295 111 N 1 0 0 1 0 0 3
Substitution2: "'smcp' Gemeine nach Kapitaelchen 1" otilde.sc
AlternateSubs2: "'aalt' Alle Alternativen zeigen 1" otilde.sc
Colour: ff00ff
EndChar

StartChar: odieresis
Encoding: 246 246 36
Width: 510
VWidth: 999
Flags: HW
HStem: -10 41<204.375 329.082> 398 41<186.898 318.163> 527 92<133.347 210.653 293.347 370.653>
VStem: 36 90<124.397 311.463> 126 92<534.347 611.653> 286 92<534.347 611.653> 384 90<116.419 317.676>
LayerCount: 2
Back
SplineSet
-90.8203 617.676 m 5
 528.32 617.676 l 5
 528.32 526.855 l 5
 -90.8203 526.855 l 5
 -90.8203 617.676 l 5
EndSplineSet
Fore
Refer: 319 168 N 1 0 0 1 72 -2 2
Refer: 295 111 N 1 0 0 1 0 0 3
Substitution2: "'smcp' Gemeine nach Kapitaelchen 1" odieresis.sc
AlternateSubs2: "'aalt' Alle Alternativen zeigen 1" odieresis.sc
Colour: ff00ff
EndChar

StartChar: divide
Encoding: 247 247 37
Width: 527
VWidth: 999
Flags: W
HStem: 53.6186 93.8717<234.492 296.502> 208 49<66 461> 321.619 93.8717<234.492 296.502>
VStem: 218.26 93.8717<67.2645 131.114> 218.26 93.8717<335.264 399.114>
LayerCount: 2
Back
SplineSet
-58.1055 256.836 m 29
 565.43 256.836 l 29
0 572.012 m 5
 527.344 572.012 l 5
 527.344 0 l 5
 0 0 l 5
 0 572.012 l 5
EndSplineSet
Fore
Refer: 256 46 N 0.83814 0 0 0.83814 173 330 2
Refer: 256 46 N 0.83814 0 0 0.83814 173 62 2
Refer: 1205 8722 N 1 0 0 1 0 0 3
Validated: 32769
Colour: ff00ff
EndChar

StartChar: ugrave
Encoding: 249 249 38
Width: 521
VWidth: 999
Flags: HW
HStem: -10 55<189.219 288.154> -3 21<363 372.667 438.5 447> 412 20<74 124 124 174 340 390 390 440>
VStem: 84 80<69.7019 426.335> 350 80<96.6489 426.335>
LayerCount: 2
Back
SplineSet
-90.8203 672.852 m 5
 528.32 672.852 l 5
 528.32 510.254 l 5
 -90.8203 510.254 l 5
 -90.8203 672.852 l 5
EndSplineSet
Fore
Refer: 669 768 N 1 0 0 1 384 -37 2
Refer: 301 117 N 1 0 0 1 0 0 3
Substitution2: "'smcp' Gemeine nach Kapitaelchen 1" ugrave.sc
AlternateSubs2: "'aalt' Alle Alternativen zeigen 1" ugrave.sc
Colour: ff00ff
EndChar

StartChar: uacute
Encoding: 250 250 39
Width: 521
VWidth: 999
Flags: HW
HStem: -10 55<189.219 288.154> -3 21<363 372.667 438.5 447> 412 20<74 124 124 174 340 390 390 440>
VStem: 84 80<69.7019 426.335> 350 80<96.6489 426.335>
LayerCount: 2
Back
SplineSet
-90.8203 672.852 m 5
 528.32 672.852 l 5
 528.32 510.254 l 5
 -90.8203 510.254 l 5
 -90.8203 672.852 l 5
EndSplineSet
Fore
Refer: 670 769 N 1 0 0 1 458 -37 2
Refer: 301 117 N 1 0 0 1 0 0 3
Substitution2: "'smcp' Gemeine nach Kapitaelchen 1" uacute.sc
AlternateSubs2: "'aalt' Alle Alternativen zeigen 1" uacute.sc
Colour: ff00ff
EndChar

StartChar: edotaccent
Encoding: 279 279 43
Width: 442
VWidth: 999
Flags: HW
HStem: -10 59<197.345 335.48> 243 44<125 319.997> 399 40<175.584 290.389> 519 104<188.248 271.458>
VStem: 34 88<132.133 243> 178 104<529.542 612.752> 320 89<254.5 358.106>
LayerCount: 2
Back
SplineSet
-98.3887 618.652 m 5
 520.264 618.652 l 5
 520.508 522.949 l 5
 -98.6328 522.949 l 5
 -98.3887 618.652 l 5
510.742 502.441 m 5
 481.934 549.316 444.336 594.727 409.668 632.324 c 5
 430.176 645.508 l 5
 469.238 616.699 501.465 591.309 535.645 555.176 c 5
 572.754 593.262 606.445 618.652 643.555 645.508 c 5
 662.598 632.324 l 5
 627.93 592.773 589.844 548.34 560.547 502.441 c 5
 510.742 502.441 l 5
-210.449 647.949 m 5
 -208.496 596.68 -162.109 556.152 -101.562 556.152 c 4
 -55.6641 556.152 3.90625 585.938 6.34766 647.949 c 5
 32.7148 634.277 l 5
 22.9492 533.691 -51.7578 499.023 -101.562 499.023 c 4
 -179.199 499.023 -229.98 556.641 -237.305 634.277 c 5
 -210.449 647.949 l 5
144.043 645.508 m 5
 172.852 598.633 209.473 555.664 245.117 515.625 c 5
 224.609 502.441 l 5
 185.547 531.25 151.855 556.152 118.164 592.285 c 5
 81.0547 554.199 48.3398 529.297 11.2305 502.441 c 5
 -8.30078 515.625 l 5
 26.8555 555.176 64.9414 599.609 94.2383 645.508 c 5
 144.043 645.508 l 5
-98.3887 664.062 m 5
 520.264 664.062 l 5
 520.264 500.732 l 5
 -98.3887 500.732 l 5
 -98.3887 664.062 l 5
438.477 662.598 m 21
 441.895 664.062 448.242 665.039 453.125 665.039 c 4
 481.123 665.039 493.569 654.214 501.953 646.704 c 4
 504.258 644.639 506.309 642.856 508.301 641.602 c 5
 510.742 630.859 l 5
 395.996 521.973 l 6
 380.371 507.324 373.535 502.441 367.188 502.441 c 4
 359.375 502.441 352.539 507.974 352.539 514.487 c 4
 352.539 519.858 352.631 527.246 358.887 537.109 c 6
 438.477 662.598 l 21
-98.3887 616.211 m 5
 520.264 616.211 l 5
 520.508 525.391 l 5
 -98.6328 525.391 l 5
 -98.3887 616.211 l 5
80.0781 570.801 m 4
 80.0781 595.703 100.586 616.211 125.488 616.211 c 4
 150.391 616.211 170.898 595.703 170.898 570.801 c 4
 170.898 545.898 150.391 525.391 125.488 525.391 c 4
 100.586 525.391 80.0781 545.898 80.0781 570.801 c 4
240.723 570.801 m 4
 240.723 595.703 261.23 616.211 286.133 616.211 c 4
 311.035 616.211 331.543 595.703 331.543 570.801 c 4
 331.543 545.898 311.035 525.391 286.133 525.391 c 4
 261.23 525.391 240.723 545.898 240.723 570.801 c 4
EndSplineSet
Fore
Refer: 664 729 N 1 0 0 1 84 -69 2
Refer: 285 101 N 1 0 0 1 0 0 3
Colour: ff00ff
EndChar

StartChar: Eogonek
Encoding: 280 280 44
Width: 522
VWidth: 999
Flags: HW
HStem: -224 39<325.188 408.938> 0 25<394.25 430.875> 0 54<186.656 409.594> 321 42<182 388.188> 596 49<186.656 403.188>
VStem: 96 86<55.2087 321 363 594.385> 251 60<-173.091 -74.5789>
LayerCount: 2
Fore
SplineSet
344 -224 m 0xbe
 291 -224 251 -193 251 -139 c 0
 251 -74 326 11 425 25 c 1xde
 446 0 l 1
 366 0 311 -75 311 -126 c 0
 311 -158 333 -185 369 -185 c 0
 399 -185 419 -170 439 -149 c 1
 454 -157 l 1
 430 -204 380 -224 344 -224 c 0xbe
EndSplineSet
Refer: 28 69 N 1 0 0 1 0 0 3
Position2: "'cpsp' Versalabstaende 1" dx=2 dy=0 dh=5 dv=0
Substitution2: "'c2sc' Versale nach Kapitaelchen 1" eogonek.sc
Colour: ff80cc
EndChar

StartChar: eogonek
Encoding: 281 281 45
Width: 442
VWidth: 999
Flags: HW
HStem: -214 38<271.124 354.226> -10 59<197.345 335.48> 243 44<125 319.997> 399 40<175.584 290.389>
VStem: 34 88<132.133 243> 197 60<-164.209 -65.2215> 320 89<254.5 358.106>
LayerCount: 2
Back
SplineSet
311.768 -193.359 m 4
 258.057 -193.359 218.506 -162.598 218.506 -107.91 c 4
 218.506 -42.9688 293.213 41.5039 392.334 56.1523 c 5
 413.33 30.7617 l 5
 333.13 30.7617 278.564 -43.9453 278.564 -95.7031 c 4
 278.564 -127.441 300.537 -153.809 336.67 -153.809 c 4
 366.455 -153.809 386.963 -139.404 406.25 -118.652 c 5
 421.387 -126.221 l 5
 397.705 -173.34 347.21 -193.359 311.768 -193.359 c 4
EndSplineSet
Fore
Refer: 285 101 N 1 0 0 1 0 0 3
Refer: 666 731 S 1 0 0 1 135 8 2
AlternateSubs2: "'aalt' Alle Alternativen zeigen 1" eogonek.sc
Substitution2: "'smcp' Gemeine nach Kapitaelchen 1" eogonek.sc
Colour: ff00ff
EndChar

StartChar: ecaron
Encoding: 283 283 47
Width: 442
VWidth: 999
Flags: HW
HStem: -10 59<197.345 335.48> 243 44<125 319.997> 399 40<175.584 290.389>
VStem: 34 88<132.133 243> 320 89<254.5 358.106>
LayerCount: 2
Back
SplineSet
518.555 502.441 m 5
 489.746 549.316 452.148 594.727 417.48 632.324 c 5
 437.988 645.508 l 5
 477.051 616.699 509.277 591.309 543.457 555.176 c 5
 580.566 593.262 614.258 618.652 651.367 645.508 c 5
 670.41 632.324 l 5
 635.742 592.773 597.656 548.34 568.359 502.441 c 5
 518.555 502.441 l 5
-202.637 647.949 m 5
 -200.684 596.68 -154.297 556.152 -93.75 556.152 c 4
 -47.8516 556.152 11.7188 585.938 14.1602 647.949 c 5
 40.5273 634.277 l 5
 30.7617 533.691 -43.9453 499.023 -93.75 499.023 c 4
 -171.387 499.023 -222.168 556.641 -229.492 634.277 c 5
 -202.637 647.949 l 5
151.855 645.508 m 5
 180.664 598.633 217.285 555.664 252.93 515.625 c 5
 232.422 502.441 l 5
 193.359 531.25 159.668 556.152 125.977 592.285 c 5
 88.8672 554.199 56.1523 529.297 19.043 502.441 c 5
 -0.488281 515.625 l 5
 34.668 555.176 72.7539 599.609 102.051 645.508 c 5
 151.855 645.508 l 5
-90.5762 664.062 m 5
 528.076 664.062 l 5
 528.076 500.732 l 5
 -90.5762 500.732 l 5
 -90.5762 664.062 l 5
446.289 662.598 m 21
 449.707 664.062 456.055 665.039 460.938 665.039 c 4
 488.936 665.039 501.382 654.214 509.766 646.704 c 4
 512.07 644.639 514.121 642.856 516.113 641.602 c 5
 518.555 630.859 l 5
 403.809 521.973 l 6
 388.184 507.324 381.348 502.441 375 502.441 c 4
 367.188 502.441 360.352 507.974 360.352 514.487 c 4
 360.352 519.858 360.443 527.246 366.699 537.109 c 6
 446.289 662.598 l 21
-90.5762 616.211 m 5
 528.076 616.211 l 5
 528.076 525.635 l 5
 -90.5762 525.635 l 5
 -90.5762 616.211 l 5
87.8906 570.801 m 4
 87.8906 595.703 108.398 616.211 133.301 616.211 c 4
 158.203 616.211 178.711 595.703 178.711 570.801 c 4
 178.711 545.898 158.203 525.391 133.301 525.391 c 4
 108.398 525.391 87.8906 545.898 87.8906 570.801 c 4
248.535 570.801 m 4
 248.535 595.703 269.043 616.211 293.945 616.211 c 4
 318.848 616.211 339.355 595.703 339.355 570.801 c 4
 339.355 545.898 318.848 525.391 293.945 525.391 c 4
 269.043 525.391 248.535 545.898 248.535 570.801 c 4
EndSplineSet
Fore
Refer: 657 711 N 1 0 0 1 50 -17 2
Refer: 285 101 N 1 0 0 1 0 0 3
AlternateSubs2: "'aalt' Alle Alternativen zeigen 1" ecaron.sc
Substitution2: "'smcp' Gemeine nach Kapitaelchen 1" ecaron.sc
Colour: ff00ff
EndChar

StartChar: gdotaccent
Encoding: 289 289 53
Width: 479
VWidth: 999
Flags: HW
HStem: -238 43<141.427 314.366> -15 62<137.607 251.772> -12 66<172.809 355.253> 136 44<169.974 279.135> 395 44<163.808 275.455> 518 104<183.248 266.458>
VStem: 32 66<-157.208 -57.419> 59 78<215.424 363.363> 64 56<55.5258 149.891> 173 104<528.542 611.752> 308 76<209.668 361.501> 392 61<-135.741 -44.0939>
LayerCount: 2
Back
SplineSet
-98.3887 618.652 m 5
 520.264 618.652 l 5
 520.508 522.949 l 5
 -98.6328 522.949 l 5
 -98.3887 618.652 l 5
510.742 502.441 m 5
 481.934 549.316 444.336 594.727 409.668 632.324 c 5
 430.176 645.508 l 5
 469.238 616.699 501.465 591.309 535.645 555.176 c 5
 572.754 593.262 606.445 618.652 643.555 645.508 c 5
 662.598 632.324 l 5
 627.93 592.773 589.844 548.34 560.547 502.441 c 5
 510.742 502.441 l 5
-210.449 647.949 m 5
 -208.496 596.68 -162.109 556.152 -101.562 556.152 c 4
 -55.6641 556.152 3.90625 585.938 6.34766 647.949 c 5
 32.7148 634.277 l 5
 22.9492 533.691 -51.7578 499.023 -101.562 499.023 c 4
 -179.199 499.023 -229.98 556.641 -237.305 634.277 c 5
 -210.449 647.949 l 5
144.043 645.508 m 5
 172.852 598.633 209.473 555.664 245.117 515.625 c 5
 224.609 502.441 l 5
 185.547 531.25 151.855 556.152 118.164 592.285 c 5
 81.0547 554.199 48.3398 529.297 11.2305 502.441 c 5
 -8.30078 515.625 l 5
 26.8555 555.176 64.9414 599.609 94.2383 645.508 c 5
 144.043 645.508 l 5
-98.3887 664.062 m 5
 520.264 664.062 l 5
 520.264 500.732 l 5
 -98.3887 500.732 l 5
 -98.3887 664.062 l 5
438.477 662.598 m 21
 441.895 664.062 448.242 665.039 453.125 665.039 c 4
 481.123 665.039 493.569 654.214 501.953 646.704 c 4
 504.258 644.639 506.309 642.856 508.301 641.602 c 5
 510.742 630.859 l 5
 395.996 521.973 l 6
 380.371 507.324 373.535 502.441 367.188 502.441 c 4
 359.375 502.441 352.539 507.974 352.539 514.487 c 4
 352.539 519.858 352.631 527.246 358.887 537.109 c 6
 438.477 662.598 l 21
-98.3887 616.211 m 5
 520.264 616.211 l 5
 520.508 525.391 l 5
 -98.6328 525.391 l 5
 -98.3887 616.211 l 5
80.0781 570.801 m 4
 80.0781 595.703 100.586 616.211 125.488 616.211 c 4
 150.391 616.211 170.898 595.703 170.898 570.801 c 4
 170.898 545.898 150.391 525.391 125.488 525.391 c 4
 100.586 525.391 80.0781 545.898 80.0781 570.801 c 4
240.723 570.801 m 4
 240.723 595.703 261.23 616.211 286.133 616.211 c 4
 311.035 616.211 331.543 595.703 331.543 570.801 c 4
 331.543 545.898 311.035 525.391 286.133 525.391 c 4
 261.23 525.391 240.723 545.898 240.723 570.801 c 4
EndSplineSet
Fore
Refer: 673 775 N 1 0 0 1 405 -34 2
Refer: 287 103 N 1 0 0 1 0 0 3
Colour: ff00ff
EndChar

StartChar: gcommaaccent
Encoding: 291 291 55
Width: 479
VWidth: 999
Flags: HW
HStem: -238 43<141.427 314.366> -15 62<137.607 251.772> -12 66<172.809 355.253> 136 44<169.974 279.135> 395 44<163.808 275.455> 511 82<199.561 272.708> 673 17<251.498 273>
VStem: 32 66<-157.208 -57.419> 59 78<215.424 363.363> 64 56<55.5258 149.891> 166 32<584 635.93> 308 76<209.668 361.501> 392 61<-135.741 -44.0939>
LayerCount: 2
Back
SplineSet
518.555 502.441 m 5
 489.746 549.316 452.148 594.727 417.48 632.324 c 5
 437.988 645.508 l 5
 477.051 616.699 509.277 591.309 543.457 555.176 c 5
 580.566 593.262 614.258 618.652 651.367 645.508 c 5
 670.41 632.324 l 5
 635.742 592.773 597.656 548.34 568.359 502.441 c 5
 518.555 502.441 l 5
-202.637 647.949 m 5
 -200.684 596.68 -154.297 556.152 -93.75 556.152 c 4
 -47.8516 556.152 11.7188 585.938 14.1602 647.949 c 5
 40.5273 634.277 l 5
 30.7617 533.691 -43.9453 499.023 -93.75 499.023 c 4
 -171.387 499.023 -222.168 556.641 -229.492 634.277 c 5
 -202.637 647.949 l 5
151.855 645.508 m 5
 180.664 598.633 217.285 555.664 252.93 515.625 c 5
 232.422 502.441 l 5
 193.359 531.25 159.668 556.152 125.977 592.285 c 5
 88.8672 554.199 56.1523 529.297 19.043 502.441 c 5
 -0.488281 515.625 l 5
 34.668 555.176 72.7539 599.609 102.051 645.508 c 5
 151.855 645.508 l 5
-90.5762 664.062 m 5
 528.076 664.062 l 5
 528.076 500.732 l 5
 -90.5762 500.732 l 5
 -90.5762 664.062 l 5
446.289 662.598 m 21
 449.707 664.062 456.055 665.039 460.938 665.039 c 4
 488.936 665.039 501.382 654.214 509.766 646.704 c 4
 512.07 644.639 514.121 642.856 516.113 641.602 c 5
 518.555 630.859 l 5
 403.809 521.973 l 6
 388.184 507.324 381.348 502.441 375 502.441 c 4
 367.188 502.441 360.352 507.974 360.352 514.487 c 4
 360.352 519.858 360.443 527.246 366.699 537.109 c 6
 446.289 662.598 l 21
-90.5762 616.211 m 5
 528.076 616.211 l 5
 528.076 525.635 l 5
 -90.5762 525.635 l 5
 -90.5762 616.211 l 5
87.8906 570.801 m 4
 87.8906 595.703 108.398 616.211 133.301 616.211 c 4
 158.203 616.211 178.711 595.703 178.711 570.801 c 4
 178.711 545.898 158.203 525.391 133.301 525.391 c 4
 108.398 525.391 87.8906 545.898 87.8906 570.801 c 4
248.535 570.801 m 4
 248.535 595.703 269.043 616.211 293.945 616.211 c 4
 318.848 616.211 339.355 595.703 339.355 570.801 c 4
 339.355 545.898 318.848 525.391 293.945 525.391 c 4
 269.043 525.391 248.535 545.898 248.535 570.801 c 4
EndSplineSet
Fore
Refer: 1427 786 N 1 0 0 1 324 43 2
Refer: 287 103 N 1 0 0 1 0 0 3
Colour: ff00ff
EndChar

StartChar: Hbar
Encoding: 294 294 58
Width: 700
VWidth: 999
Flags: W
HStem: -3 21<93 146 146 199 501 554 554 607> 321 42<187 513> 512 34<41 656> 628 20<93 146 146 199 501 554 554 607>
VStem: 103 86<2.67992 642.32> 511 86<2.67992 642.32>
LayerCount: 2
Fore
SplineSet
41 546 m 17
 656 546 l 9
 656 512 l 25
 41 512 l 25
 41 546 l 17
EndSplineSet
Refer: 2270 72 N 1 0 0 1 0 0 3
Position2: "'cpsp' Versalabstaende 1" dx=2 dy=0 dh=5 dv=0
Colour: ff80cc
EndChar

StartChar: hbar
Encoding: 295 295 59
Width: 520
VWidth: 999
Flags: W
HStem: -3 21<73 123 123 173 348 398 398 448> 382 57<239.694 343.936> 530 39<26 341> 678 20<151.465 167.167>
VStem: 83 80<2.66453 327.568 360 667.98> 358 80<2.66453 368.709>
LayerCount: 2
Fore
SplineSet
26 569 m 25
 341 569 l 25
 341 530 l 25
 26 530 l 25
 26 569 l 25
EndSplineSet
Refer: 288 104 N 1 0 0 1 0 0 3
Validated: 35845
Colour: ff80cc
EndChar

StartChar: itilde
Encoding: 297 297 61
Width: 268
VWidth: 999
Flags: HW
HStem: -3 21<84 134 134 184> 419 20<162.5 178> 526 44<149.2 227.5> 574 46<43 124.9> 613 10
VStem: 94 80<2.6647 408.973>
LayerCount: 2
Back
SplineSet
-87.8906 622.07 m 5
 531.25 622.07 l 5
 531.25 525.391 l 5
 -87.8906 525.391 l 5
 -87.8906 622.07 l 5
EndSplineSet
Fore
Refer: 667 732 N 0.9 0 0 1 7 -48 2
Refer: 419 305 N 1 0 0 1 0 0 3
Colour: ff00ff
EndChar

StartChar: imacron
Encoding: 299 299 63
Width: 268
VWidth: 999
Flags: HW
HStem: -3 21<84 134 134 184> 419 20<162.5 178> 538 44<9.57884 260.164>
VStem: 8.6 252.9<538.205 582> 94 80<2.6647 408.973>
LayerCount: 2
Back
SplineSet
326.66 538.574 m 2
 -70.3125 538.574 l 2
 -78.2227 538.574 -81.2988 546.387 -81.2988 553.223 c 0
 -81.2988 564.941 -72.0703 582.52 -61.5234 582.52 c 2
 335.449 582.52 l 2
 344.238 582.52 347.754 574.707 347.754 567.871 c 0
 347.754 556.152 338.085 538.574 326.66 538.574 c 2
EndSplineSet
Fore
Refer: 659 713 N 0.9 0 0 1 -49 32 2
Refer: 419 305 N 1 0 0 1 0 0 3
Colour: ff00ff
EndChar

StartChar: Iogonek
Encoding: 302 302 66
Width: 293
VWidth: 999
Flags: W
HStem: -225 39<73.1814 157.134> -3 21<96 149 149 202> -1 25<142.256 178.88> 628 20<96 149 149 202>
VStem: -1 60<-174.091 -75.5789> 106 86<2.67992 642.32>
LayerCount: 2
Fore
SplineSet
92 -225 m 0xbc
 39 -225 -1 -194 -1 -140 c 0
 -1 -75 74 10 173 24 c 1
 194 -1 l 1
 114 -1 59 -76 59 -127 c 0
 59 -159 81 -186 117 -186 c 0
 147 -186 168 -171 187 -150 c 1
 202 -158 l 1
 178 -205 128 -225 92 -225 c 0xbc
EndSplineSet
Refer: 258 73 N 1 0 0 1 0 0 3
Validated: 35845
Position2: "'cpsp' Versalabstaende 1" dx=2 dy=0 dh=5 dv=0
Colour: ff80cc
EndChar

StartChar: iogonek
Encoding: 303 303 67
Width: 268
VWidth: 999
Flags: HW
HStem: -225 39<52.2133 135.045> -3 21<84 134 134 184> -1 25<119.395 156.6> 419 20<162.5 178> 518 104<92.248 175.458>
VStem: -23 60<-174.091 -75.5789> 82 104<528.542 611.752> 94 80<2.6647 408.973>
LayerCount: 2
Fore
SplineSet
70 -225 m 0xbc
 16 -225 -23 -194 -23 -140 c 0
 -23 -75 51 10 151 24 c 1
 171 -1 l 1
 91 -1 37 -76 37 -127 c 0
 37 -159 59 -186 95 -186 c 0
 124 -186 145 -171 164 -150 c 1
 180 -158 l 1
 156 -205 105 -225 70 -225 c 0xbc
EndSplineSet
Refer: 289 105 N 1 0 0 1 0 0 3
Colour: ff80cc
EndChar

StartChar: afii10057
Encoding: 1032 1032 69
Width: 385
VWidth: 999
Flags: W
HStem: -10 60<57.8935 169.935> 628 20G<200 253 253 306>
VStem: 210 86<132.814 642.32>
AnchorPoint: "top_akzent" 252 806 basechar 0
AnchorPoint: "top_punkt" 251 723 basechar 0
LayerCount: 2
Back
SplineSet
208.019 94.2383 m 4
 186.861 0 136.831 -12.207 114.258 -12.207 c 4
 72.2656 -12.207 34.668 7.8125 34.668 41.9922 c 4
 34.668 63.4766 44.4336 82.5195 69.3359 82.5195 c 4
 86.9141 82.5195 101.9 71.8691 105.957 56.1523 c 4
 109.863 41.0156 117.676 32.7148 127.441 32.7148 c 4
 138.389 32.7148 147.876 44.2939 155.241 65.4297 c 4
EndSplineSet
Fore
SplineSet
210 258 m 6
 210 445 l 6
 210 520 208 588 200 645 c 5
 202 648 l 5
 202 648 219 645 253 645 c 4
 288 645 305 648 305 648 c 5
 306 645 l 5
 298 592 296 520 296 445 c 6
 296 280 l 6
 296 165.5 286 135 233 66 c 28
 192 12 138 -10 75 -10 c 4
 56 -10 38 -6 30 -1 c 5
 29 2 l 5
 40 21 50 57 57 84 c 5
 68 85 l 5
 79 65 97 50 126 50 c 4
 205 50 210 170.021 210 258 c 6
EndSplineSet
EndChar

StartChar: afii10021
Encoding: 1044 1044 74
Width: 708
VWidth: 999
Flags: HW
HStem: 0 44<630 903> 601 44<632 819> 618 28<898 936>
VStem: 1024 27<-140 -94> 538 86<47 587> 479 36<-138 -60>
LayerCount: 2
Fore
SplineSet
178 0 m 2
 98 0 86 -65 75 -138 c 1
 73 -141 l 1
 41 -141 l 1
 39 -138 l 1
 27 11 l 1
 27 21 32 29 57 32 c 0
 77.0797 34.4096 98 32 112 47 c 0
 138 73 156 145 188 301 c 0
 210 415 222 518 222 581 c 0
 222 603 219 625 216 645 c 1
 217 648 l 1
 217 648 244 645 278 645 c 2
 504 645 l 2
 538 645 556 648 556 648 c 1
 557 645 l 1
 549 591 547 520 547 445 c 2
 547 200 l 2
 547 90 554 35 588 32 c 0
 613 30 618 21 618 11 c 1
 606 -138 l 1
 604 -141 l 1
 572 -141 l 1
 570 -138 l 1
 559 -65 547 0 467 0 c 2
 178 0 l 2
425 44 m 2xdc
 443 44 450 50 453 59 c 0
 460 83 461 183 461 200 c 2
 461 445 l 2
 461 462 460 564 453 588 c 1
 446 597 442 601 427 601 c 2
 313 601 l 2
 286 601 276 591 274 566 c 0
 266 465 251 361 239 293 c 0
 217 176 192 77 192 56 c 0
 192 44 205 44 219 44 c 2
 425 44 l 2xdc
EndSplineSet
EndChar

StartChar: afii10024
Encoding: 1046 1046 75
Width: 924
VWidth: 999
Flags: HW
HStem: -4 21G<35 44 147 181 743 777 880 889> -3 21<412 462 462 512> 312 45<364 424 500 560> 569 89<70 172 752 854> 628 20<412 462 462 512>
VStem: 421 82<3 642>
LayerCount: 2
Back
SplineSet
19.043 -0.976562 m 1xaa
 17.0898 0.976562 l 1x42
 17.0898 19.5312 l 2
 17.0898 24.9023 20.9961 27.832 24.9023 27.832 c 2
 33.6914 27.832 l 2
 66.4062 27.832 118.652 103.516 169.922 235.84 c 0
 193.344 296.293 219.238 358.398 281.25 358.398 c 1x92
 209.473 383.789 194.336 467.773 184.57 530.273 c 0
 180.176 559.57 161.621 587.402 141.113 587.402 c 0
 128.906 587.402 117.188 582.031 105.469 575.195 c 0
 94.2383 568.359 82.0312 562.5 70.3125 562.5 c 0
 51.2695 562.5 30.7617 580.566 30.7617 604.98 c 0
 30.7617 628.418 44.9219 652.344 92.2852 652.344 c 0
 155.762 652.344 211.426 599.609 219.238 541.992 c 0
 226.562 485.352 234.375 428.711 287.598 396.484 c 0
 311.523 381.836 355.957 381.348 389.16 381.348 c 1
 389.16 338.379 l 1
 282.715 338.379 261.719 281.25 224.609 179.688 c 0
 184.57 71.7773 156.25 0.976562 83.9844 0 c 2
 19.043 -0.976562 l 1xaa
836.914 -0.976562 m 1x82
 770.508 0 l 2
 698.242 0.976562 669.941 71.4258 630.859 179.688 c 0
 594.727 279.785 573.242 338.379 466.797 338.379 c 1
 466.797 381.348 l 1xa2
 500 381.348 542.969 381.836 566.895 396.484 c 0
 620.117 428.711 629.395 485.352 636.719 541.992 c 0
 644.531 599.609 700.195 652.344 763.672 652.344 c 0
 811.035 652.344 825.195 628.418 825.195 604.98 c 0
 825.195 580.566 804.688 562.5 785.645 562.5 c 0
 773.926 562.5 761.719 568.359 750.488 575.195 c 0
 738.77 582.031 727.051 587.402 714.844 587.402 c 0
 694.336 587.402 675.781 559.57 671.387 530.273 c 0
 661.621 467.773 646.484 383.789 574.707 358.398 c 1
 636.719 358.398 662.148 296.111 686.035 235.84 c 0
 738.281 104.004 789.551 27.832 822.266 27.832 c 2
 831.055 27.832 l 2x9a
 834.961 27.832 838.867 24.9023 838.867 19.5312 c 2
 838.867 0.976562 l 1x42
 836.914 -0.976562 l 1x82
EndSplineSet
Fore
SplineSet
249 169 m 4x34
 223 117 204 73 158 -4 c 5
 136 -2 136 0 111 0 c 4
 88 0 51 -2 38 -4 c 5
 35 0 l 5
 115 89 113 140 194 237 c 4
 244 297 262 325 331 337 c 5
 331 340 l 5
 290 360 275 443 233 502 c 4
 199 550 165 569 143 569 c 4xb4
 116 569 100 562 81 548 c 5
 70 551 l 5
 42 642 l 5
 47 648 l 5x2c
 72 655 75 658 101 658 c 4
 175 658 231 593 272 531 c 4
 331 442 335 357 424 357 c 5
 424 312 l 5
 318 305 289 247 249 169 c 4x34
675 169 m 4
 635 247 606 305 500 312 c 5
 500 357 l 5
 589 357 593 442 652 531 c 4
 693 593 749 658 823 658 c 4xb4
 849 658 852 655 877 648 c 5x2c
 882 642 l 5
 854 551 l 5
 843 548 l 5
 824 562 808 569 781 569 c 4
 759 569 725 550 691 502 c 4
 649 443 634 360 593 340 c 5
 593 337 l 5
 662 325 680 297 730 237 c 4
 811 140 809 89 889 0 c 5
 886 -4 l 5
 873 -2 836 0 813 0 c 4
 788 0 788 -2 766 -4 c 5
 720 73 701 117 675 169 c 4
EndSplineSet
Refer: 258 73 N 1 0 0 1 313 0 2
Colour: ff80cc
EndChar

StartChar: afii10025
Encoding: 1047 1047 76
Width: 542
VWidth: 999
Flags: W
HStem: -12 37<172.536 324.196> 336 37<158.005 306.843> 469 21G<49 91> 624 34<165.85 309.892>
VStem: 49 30<470.533 513.383> 375 80<432.684 569.184> 405 92<100.605 254.446>
LayerCount: 2
Back
SplineSet
257.324 -12.207 m 4
 171.387 -12.207 114.746 19.043 83.4961 43.457 c 4
 56.6406 64.4531 35.6445 95.2148 35.6445 122.07 c 4
 35.6445 147.949 48.3398 164.551 66.4062 164.551 c 4
 94.7266 164.551 106.445 152.344 117.188 119.629 c 4
 140.625 48.3398 195.801 21.4844 267.578 21.4844 c 4
68.3594 645.508 m 1
 49.3164 471.68 l 1
 79.1016 468.75 l 1
 86.4258 511.719 122.07 606.445 173.828 606.445 c 2
EndSplineSet
Fore
SplineSet
248 25 m 0xfa
 318 25 405 68 405 176 c 0xfa
 405 227 366 336 249 336 c 2
 176 336 l 2
 165 336 158 343 158 354 c 0
 158 365 165 373 176 373 c 2
 223 373 l 2
 342 373 375 451 375 506 c 0
 375 573 311 624 249 624 c 0
 126 624 103 550 79 469 c 9
 49 471 l 25
 69 646 l 17
 156 646 191 658 251 658 c 0
 344 658 455 611 455 516 c 0xfc
 455 437 412 387 340 360 c 1
 411 340 497 299 497 192 c 0
 497 41 363 -12 245 -12 c 0
 164 -12 115 19 84 43 c 0
 57 64 36 91 36 118 c 0
 36 144 47 165 70 165 c 0
 98 165 108 152 119 120 c 0
 140 59 172 25 248 25 c 0xfa
EndSplineSet
Validated: 3073
EndChar

StartChar: afii10026
Encoding: 1048 1048 77
Width: 700
VWidth: 999
Flags: W
HStem: -3 21<96 149 149 202 502 555 555 608> 628 20<96 149 149 202 502 555 555 608>
VStem: 106 86<2.67992 642.32> 512 86<2.67992 642.32>
DStem2: 187 134 187 78 0.608002 0.793935<0 493.367>
LayerCount: 2
Fore
SplineSet
514 505 m 2
 187 78 l 1
 187 134 l 2
 514 561 l 1
 514 505 l 2
EndSplineSet
Refer: 258 73 S 1 0 0 1 406 0 2
Refer: 258 73 N 1 0 0 1 0 0 2
EndChar

StartChar: afii10035
Encoding: 1057 1057 81
Width: 650
VWidth: 999
Flags: HW
HStem: -10 51<269.467 470.143> 611 47<271.061 460.844>
VStem: 37 103<195.742 435.455>
LayerCount: 2
Back
SplineSet
574.707 645.508 m 5
 593.75 471.68 l 5
 563.965 468.75 l 5
 556.641 511.719 520.996 606.445 469.238 606.445 c 6
EndSplineSet
Fore
Refer: 26 67 N 1 0 0 1 0 0 3
Colour: ff00ff
EndChar

StartChar: afii10037
Encoding: 1059 1059 83
Width: 580
VWidth: 999
Flags: W
HStem: -22 67<133 228.079> 628 20G<54.5 65.8588 152.5 165.28 462.421 482 552.006 555>
DStem2: 278.595 138.281 342 161 0.410131 0.912027<-105.377 13.9628 113.393 328.053>
LayerCount: 2
Fore
SplineSet
342 161 m 2
 293.943 54.1328 244 -22 154 -22 c 0
 112 -22 66 1 66 33 c 0
 66 61 81 84 113 84 c 0
 127 84 149 77 159 65 c 0
 166 56 181 45 195 45 c 0
 237.734 45 253.917 81.1111 278.595 138.281 c 1
 192.32 339.888 85.7176 567.771 46 648 c 1
 63 645 89 645 106 645 c 4
 123 645 144 645 161 648 c 5
 169.56 618.041 224.159 470.161 323.242 242.534 c 1
 384.445 386.903 448.842 546.352 476 648 c 1
 488 645 515 645 526 645 c 0
 537 645 549 645 561 648 c 1
 342 161 l 2
EndSplineSet
EndChar

StartChar: afii10040
Encoding: 1062 1062 85
Width: 639
VWidth: 999
Flags: W
HStem: 0 44<183.144 451.533> 628 20G<78 132 132 185 448 501 501 555>
VStem: 89 86<60.1801 642.32> 458 86<46.9378 642.32> 566 36<-138 -59.6869>
LayerCount: 2
Back
SplineSet
428.711 36.6211 m 2
 464.355 36.6211 467.773 51.2695 467.773 83.4961 c 10
548.34 76.6602 m 18
 548.34 51.7578 564.453 27.832 589.517 27.832 c 0
 614.15 27.832 618.276 16.585 618.652 7.8125 c 2
 625 -140.625 l 1
 598.145 -140.625 l 1
 583.74 -70.3125 540.039 2.44141 462.891 2.44141 c 2
622.07 644.204 m 25
 622.07 -297.852 l 25
EndSplineSet
Fore
SplineSet
544 200 m 2
 544 90 550.25 35 584 32 c 0
 608.902 29.7865 614 20.667 614 11 c 1
 602 -138 l 1
 600 -141 l 1
 568 -141 l 1
 566 -138 l 1
 555.096 -65.4004 542.721 1.20799e-05 463 0 c 2
 132 0 l 6
 98 0 80 -3 80 -3 c 5
 79 0 l 5
 87 54 89 125 89 200 c 6
 89 445 l 6
 89 520.008 86 588 78 645 c 5
 80 648 l 5
 80 648 98 645 132 645 c 4
 167 645 184 648 184 648 c 5
 185 645 l 5
 177 592 175 520.005 175 445 c 6
 175 200 l 6
 175 183 176 83 183 59 c 4
 186 50 193 44 211 44 c 6
 422 44 l 2
 440 44 447 50 450 59 c 0
 457 83 458 183 458 200 c 2
 458 445 l 2
 458 520.005 456 592 448 645 c 1
 449 648 l 1
 449 648 466 645 501 645 c 0
 535 645 553 648 553 648 c 1
 555 645 l 1
 547 588 544 520.008 544 445 c 2
 544 200 l 2
EndSplineSet
EndChar

StartChar: afii10041
Encoding: 1063 1063 86
Width: 633
VWidth: 999
Flags: W
HStem: -3 21<436 489 489 542> 244 64<213.903 364.049> 628 20G<84 137 137 190 436 489 489 542>
VStem: 94 86<340.66 642.32> 446 86<2.67992 642.32>
LayerCount: 2
Back
SplineSet
400.391 2.44141 m 6x78
 400.391 2.44141 202.911 3.44141 76.6602 2.44141 c 20x78
 -31.25 -0.976562 l 5
 -33.6914 0.976562 l 5
 -33.6914 17.5781 l 6
 -33.6914 23.4375 -29.541 27.832 -24.9023 27.832 c 6
 1.46484 27.832 l 6xb8
 34.1797 28.8086 41.0156 35.1562 41.0156 74.707 c 14
 41.0156 571.777 l 6
 41.0156 610.84 34.9121 617.676 1.46484 617.676 c 6
 -28.3203 617.676 l 6
 -31.7383 617.676 -33.6914 619.141 -33.6914 622.559 c 6
 -33.6914 644.531 l 5
 -31.7383 646.484 l 5
 76.6602 644.531 l 4
 193.848 646.484 l 5
 195.801 644.692 l 5
 195.801 623.047 l 6
 195.801 619.629 193.848 617.676 190.43 617.676 c 6
 160.645 617.676 l 6
 128.418 617.676 121.582 611.816 121.582 571.777 c 6
 121.582 83.4961 l 22
 121.582 41.9922 129.395 36.6211 160.645 36.6211 c 6
 373.047 36.6211 l 6x78
 408.691 36.6211 412.109 51.2695 412.109 83.4961 c 14
 412.109 571.777 l 6
 412.109 603.516 410.635 617.061 373.047 617.676 c 6
 343.262 617.676 l 6
 339.844 617.676 337.891 619.141 337.891 622.559 c 6
 337.891 644.287 l 5
 340.332 646.484 l 5
 447.754 644.531 l 4
 563.477 646.484 l 5
 566.406 644.287 l 5
 566.406 623.047 l 6
 566.406 619.629 564.453 617.676 560.547 617.676 c 6
 531.25 617.676 l 6
 494.639 617.065 492.676 605.469 492.676 571.777 c 6
 492.676 76.6602 l 22
 492.676 45.8984 495.117 27.832 528.32 27.832 c 6
 544.922 27.832 l 6xb8
 552.246 27.832 565.918 20.5078 565.918 7.8125 c 6
 566.162 -142.822 l 5
 553.467 -142.822 547.607 -142.822 538.818 -142.822 c 5
 524.414 -72.5098 477.539 2.44141 400.391 2.44141 c 6x78
EndSplineSet
Fore
SplineSet
180 445 m 2
 180 417 l 18
 180 335 220 308 292 308 c 0
 321 308 385 312 449 355 c 1
 449 311 l 17
 376 260 308 244 250 244 c 0
 136 244 94 323 94 422 c 10
 94 445 l 2
 94 520 92 588 84 645 c 1
 86 648 l 1
 86 648 103 645 137 645 c 0
 172 645 189 648 189 648 c 1
 190 645 l 1
 182 592 180 520 180 445 c 2
EndSplineSet
Refer: 258 73 N 1 0 0 1 340 0 2
EndChar

StartChar: afii10042
Encoding: 1064 1064 87
Width: 960
VWidth: 999
Flags: W
HStem: 0 44<197.144 430.533 531.144 766.533> 628 20G<92 146 146 199 426 480 480 533 763 816 816 870>
VStem: 103 86<60.1801 642.32> 437 86<60.1801 642.32> 773 86<47.6754 642.32>
LayerCount: 2
Fore
SplineSet
859 200 m 2
 859.306 125.001 861 57 869 0 c 1
 867 -3 l 1
 867 -3 850 0 816 0 c 2
 147 0 l 2
 112 0 94 -3 94 -3 c 1
 93 0 l 1
 101 54 103 125 103 200 c 2
 103 445 l 2
 103 520.008 100 588 92 645 c 1
 94 648 l 1
 94 648 112 645 146 645 c 0
 181 645 198 648 198 648 c 1
 199 645 l 1
 191 592 189 520.005 189 445 c 2
 189 200 l 2
 189 183 190 83 197 59 c 0
 200 50 207 44 225 44 c 2
 401 44 l 2
 419 44 426 50 429 59 c 0
 436 83 437 183 437 200 c 2
 437 445 l 2
 437 520.008 434 588 426 645 c 1
 428 648 l 1
 428 648 446 645 480 645 c 0
 515 645 532 648 532 648 c 1
 533 645 l 1
 525 592 523 520.005 523 445 c 2
 523 200 l 2
 523 183 524 83 531 59 c 0
 534 50 541 44 559 44 c 2
 737 44 l 2
 755 44 762 50 765 59 c 0
 772 83 773 183 773 200 c 2
 773 445 l 2
 773 520.005 771 592 763 645 c 1
 764 648 l 1
 764 648 781 645 816 645 c 0
 850 645 868 648 868 648 c 1
 870 645 l 1
 862 588 859 520.008 859 445 c 2
 859 200 l 2
EndSplineSet
EndChar

StartChar: afii10043
Encoding: 1065 1065 88
Width: 948
VWidth: 999
Flags: W
HStem: 0 44<197.144 430.533 531.144 766.533> 628 20G<92 146 146 199 426 480 480 533 763 816 816 870>
VStem: 103 86<60.1801 642.32> 437 86<60.1801 642.32> 773 86<46.9378 642.32> 881 36<-138 -59.6869>
LayerCount: 2
Back
SplineSet
732.422 36.6211 m 6
 768.066 36.6211 771.484 51.2695 771.484 83.4961 c 14
852.051 76.6602 m 22
 852.051 51.7578 868.164 27.832 893.228 27.832 c 4
 917.861 27.832 921.987 16.585 922.363 7.8125 c 6
 928.711 -140.625 l 5
 901.855 -140.625 l 5
 887.451 -70.3125 843.75 2.44141 766.602 2.44141 c 6
EndSplineSet
Fore
SplineSet
147 0 m 2
 112 0 94 -3 94 -3 c 1
 93 0 l 1
 101 54 103 125 103 200 c 2
 103 445 l 2
 103 520.008 100 588 92 645 c 1
 94 648 l 1
 94 648 112 645 146 645 c 0
 181 645 198 648 198 648 c 1
 199 645 l 1
 191 592 189 520.005 189 445 c 2
 189 200 l 2
 189 183 190 83 197 59 c 0
 200 50 207 44 225 44 c 2
 401 44 l 2
 419 44 426 50 429 59 c 0
 436 83 437 183 437 200 c 2
 437 445 l 2
 437 520.008 434 588 426 645 c 1
 428 648 l 1
 428 648 446 645 480 645 c 0
 515 645 532 648 532 648 c 1
 533 645 l 1
 525 592 523 520.005 523 445 c 2
 523 200 l 2
 523 183 524 83 531 59 c 0
 534 50 541 44 559 44 c 2
 737 44 l 6
 755 44 762 50 765 59 c 4
 772 83 773 183 773 200 c 6
 773 445 l 2
 773 520.005 771 592 763 645 c 1
 764 648 l 1
 764 648 781 645 816 645 c 0
 850 645 868 648 868 648 c 1
 870 645 l 1
 862 588 859 520.008 859 445 c 2
 859 200 l 2
 859 90 865.25 35 899 32 c 0
 923.902 29.7861 929 20.667 929 11 c 1
 917 -138 l 1
 915 -141 l 1
 883 -141 l 1
 881 -138 l 1
 870.096 -65.4004 857.721 0 778 0 c 2
 147 0 l 2
EndSplineSet
EndChar

StartChar: afii10044
Encoding: 1066 1066 89
Width: 717
VWidth: 999
Flags: W
HStem: -2 35<330.629 502.725> 329 44<348 522.728> 569 21G<50 254> 581 64<52.7551 257.32>
VStem: 262 86<37.7419 329 373 578.197> 587 94<103.061 266.903>
LayerCount: 2
Back
SplineSet
41.2598 645.508 m 5
 25.6348 471.68 l 5
 55.4199 468.75 l 5
 62.7441 511.719 94.9707 606.445 146.729 606.445 c 6
EndSplineSet
Fore
SplineSet
302 645 m 6xdc
 340 645 357 648 357 648 c 5
 358 645 l 5
 350 592 350.083 519.976 348 445 c 6
 348 373 l 5
 406 373 l 6
 652 373 681 272 681 183 c 4
 681 16 524 -2 403 -2 c 4
 367 -2 336 0 307 0 c 4
 273 0 253 -3 253 -3 c 5
 252 0 l 5
 260 54 262 125 262 200 c 6
 262 445 l 6
 261.792 461.999 261 557 254 581 c 5xdc
 120 581 52 569 52 569 c 5xec
 50 573 l 5
 52 588 52 617 50 645 c 5
 52 648 l 5
 68 646 91 645 112 645 c 6
 302 645 l 6xdc
348 329 m 5
 348 84 l 6
 348 51 350 33 405 33 c 4
 557 33 587 121 587 183 c 4
 587 243 561 329 433 329 c 6
 348 329 l 5
EndSplineSet
EndChar

StartChar: afii10045
Encoding: 1067 1067 90
Width: 786
VWidth: 999
Flags: HW
HStem: -2 21<588 641 641 694> -2 30<19 51 194.478 332.526> 333 40<187 355.567> 618 28<19 51 241 274> 629 20<588 641 641 694>
VStem: 106 81<36.1947 333 373 608.615> 433 89<103.729 266.225> 598 86<3.67992 643.32>
LayerCount: 2
Back
SplineSet
592.759 599.272 m 22
 592.759 608.74 592.461 615.552 591.87 619.692 c 4
 590.684 627.983 586.987 634.341 580.771 638.779 c 4
 576.924 642.031 568.643 643.662 555.913 643.662 c 6
 527.949 644.106 l 6
 524.697 644.404 523.066 645.884 523.066 648.545 c 6
 523.066 664.082 l 5
 626.05 661.865 l 4
 733.472 664.082 l 5
 733.472 649.434 l 6
 733.472 646.182 731.694 644.404 728.145 644.106 c 6
 700.625 643.662 l 6
 687.896 643.662 679.614 642.031 675.767 638.779 c 4
 668.96 633.452 665.259 627.095 664.668 619.692 c 4
 664.077 613.179 663.779 606.377 663.779 599.272 c 14
 663.779 92.7939 l 6
 663.779 85.6914 664.077 78.8857 664.668 72.375 c 4
 665.259 64.9766 668.96 58.6133 675.767 53.2871 c 4
 679.614 50.3281 687.896 48.7002 700.625 48.4043 c 6
 728.145 47.9609 l 6
 731.694 47.9609 733.472 46.333 733.472 43.0771 c 6
 733.472 27.9854 l 5
 626.05 30.2051 l 4
 523.066 27.9854 l 5
 523.066 43.5215 l 6
 523.066 46.4805 524.697 47.9609 527.949 47.9609 c 6
 555.913 48.4043 l 6
 568.643 48.7002 576.924 50.3281 580.771 53.2871 c 4
 586.987 57.7266 590.684 64.0889 591.87 72.375 c 4
 592.456 76.5176 592.759 83.3242 592.759 92.7939 c 6
 592.759 599.272 l 22
197.693 597.5 m 14
 197.693 386.207 l 21
 250.96 386.207 l 6
 329.092 386.207 386.649 377.328 423.635 359.572 c 4
 492.29 326.725 526.616 274.789 526.616 203.767 c 4
 526.616 145.173 504.126 99.748 459.146 67.4922 c 4
 423.635 42.042 381.465 29.3174 332.637 29.3174 c 6
 56.9795 29.3174 l 5
 56.9795 44.8535 l 6
 56.9795 47.7607 58.6074 49.2402 61.8623 49.293 c 6
 89.8271 49.7363 l 6
 102.428 49.9365 110.714 51.5645 114.686 54.6191 c 4
 120.899 59.0586 124.6 65.4199 125.782 73.707 c 4
 126.375 77.8477 126.67 84.6533 126.67 94.125 c 14
 126.67 597.5 l 22
 126.67 606.968 126.375 613.779 125.782 617.92 c 4
 124.732 625.273 121.033 631.636 114.686 637.007 c 4
 111.082 640.054 102.797 641.68 89.8271 641.89 c 6
 61.8623 642.334 l 6
 58.6074 642.378 56.9795 643.862 56.9795 646.772 c 6
 56.9795 662.305 l 5
 159.962 660.088 l 4
 267.385 662.305 l 5
 267.385 647.661 l 6
 267.385 644.165 265.608 642.388 262.058 642.334 c 6
 234.536 641.89 l 6
 221.564 641.68 213.277 640.054 209.678 637.007 c 4
 202.873 631.68 199.172 625.317 198.581 617.92 c 4
 197.989 611.406 197.693 604.6 197.693 597.5 c 14
197.693 354.689 m 13
 197.693 61.7207 l 21
 238.235 54.0273 277.594 52.252 315.769 56.3945 c 4
 362.229 61.7207 397.149 80.2168 420.527 111.881 c 4
 438.283 135.555 447.16 166.628 447.16 205.099 c 4
 447.16 240.313 437.543 272.126 418.308 300.535 c 4
 393.746 336.639 349.356 354.689 285.14 354.689 c 6
 197.693 354.689 l 13
EndSplineSet
Fore
Refer: 258 73 N 1 0 0 1 492 1 2
Refer: 91 1068 N 1 0 0 1 0 0 2
Colour: ff00ff
EndChar

StartChar: afii10046
Encoding: 1068 1068 91
Width: 558
VWidth: 999
Flags: W
HStem: -2 35<171.629 343.725> 329 44<189 363.728> 628 20G<92 146 146 199>
VStem: 103 86<37.7419 329 373 642.32> 428 94<103.061 266.903>
LayerCount: 2
Fore
SplineSet
189 329 m 1
 189 84 l 2
 189 51 191 33 246 33 c 0
 398 33 428 121 428 183 c 0
 428 243 402 329 274 329 c 2
 189 329 l 1
148 0 m 0
 114 0 94 -3 94 -3 c 1
 93 0 l 1
 101 54 103 125 103 200 c 2
 103 445 l 2
 103 520.008 100 588 92 645 c 1
 94 648 l 1
 94 648 112 645 146 645 c 0
 181 645 198 648 198 648 c 1
 199 645 l 1
 191 592 189 520.005 189 445 c 2
 189 373 l 1
 247 373 l 2
 493 373 522 272 522 183 c 0
 522 16 365 -2 244 -2 c 0
 208 -2 177 0 148 0 c 0
EndSplineSet
EndChar

StartChar: afii10047
Encoding: 1069 1069 92
Width: 604
VWidth: 999
Flags: HMW
HStem: -12 34<194 359> 273 56<309 422> 311 49<155 284> 621 37<189 346>
VStem: 472 89<186 307 344 460>
LayerCount: 2
Back
SplineSet
278.809 657.715 m 0x9c
 439.453 657.715 556.152 545.41 556.152 324.219 c 0
 556.152 143.066 434.082 -12.207 264.16 -12.207 c 0
 178.16 -12.207 120.117 19.043 88.8672 43.457 c 0
 62.0977 64.3711 43.457 91.1641 43.457 118.164 c 0
 43.457 144.043 60.0586 164.551 83.0078 164.551 c 0
 111.328 164.551 124.487 152.379 135.254 119.629 c 0
 158.691 48.3398 207.52 21.4844 279.297 21.4844 c 0
 406.738 21.4844 464.844 190.43 466.797 301.758 c 1x9c
 263.184 296.391 l 2xac
 247.494 296.02 225.374 292.479 205.866 292.479 c 0
 182.292 292.479 162.531 297.648 162.531 319.824 c 0
 162.531 344.693 180.365 350.412 202.663 350.412 c 0xcc
 220.644 350.412 241.526 346.693 258.301 346.297 c 2xac
 466.797 340.82 l 1
 460.938 563.477 349.609 621.094 270.508 621.094 c 0
 176.27 621.094 97.6562 539.551 71.7773 453.613 c 1
 41.5039 458.496 l 1
 51.2695 509.766 60.4297 558.179 63.4766 612.793 c 1
 121.094 616.211 173.828 657.715 278.809 657.715 c 0x9c
EndSplineSet
Fore
SplineSet
472 307 m 1xd8
 417 273 373 273 360 273 c 0xd8
 298 273 255 311 196 311 c 0
 158 311 142 295 134 295 c 0
 130 295 125 298 125 307 c 0
 125 332 188 360 247 360 c 0xb8
 313 360 342 329 400 329 c 0
 429 329 452 335 471 344 c 1
 461 550 352 621 271 621 c 0
 176 621 98 540 72 454 c 1
 42 458 l 1
 53 511 61 558 63 613 c 1
 121 616 174 658 279 658 c 0
 444 658 561 550 561 333 c 0
 561 113 445 -12 275 -12 c 0
 189 -12 133 19 102 43 c 0
 75 64 54 95 54 122 c 0
 54 148 66 165 84 165 c 0
 113 165 125 152 135 120 c 0
 159 48 214 21 286 21 c 0
 413 21 471 169 472 307 c 1xd8
EndSplineSet
Validated: 3073
EndChar

StartChar: afii10048
Encoding: 1070 1070 93
Width: 905
VWidth: 999
Flags: W
HStem: -12 39<517.224 661.561> -3 21<96 149 149 202> 302 44<187 285> 619 39<495.321 644.165> 628 20<96 149 149 202>
VStem: 106 86<2.67992 642.32> 285 96<193.326 302 346 446.919> 770 96<190.805 458.298>
LayerCount: 2
Fore
SplineSet
562 619 m 0xb7
 478 619 381 537 381 327 c 0
 381 135 484 27 592 27 c 0
 695 27 770 131 770 310 c 0
 770 518 687 619 562 619 c 0xb7
187 346 m 1
 286 346 l 1
 299 525 417 658 573 658 c 0
 741 658 866 527 866 329 c 0
 866 129 752 -12 574 -12 c 0
 416 -12 287 108 285 302 c 1
 187 302 l 1
 187 346 l 1
EndSplineSet
Refer: 258 73 N 1 0 0 1 0 0 2
EndChar

StartChar: afii10049
Encoding: 1071 1071 94
Width: 561
VWidth: 999
Flags: HW
HStem: -3 21G<0 11.833 112.333 127.333 369.833 422.833 422.833 475.833> 286 44<272.871 379.833> 613 39<216.489 397.534>
VStem: 70.833 97<391.208 564.52> 379.833 86<2.67992 286 330 603.161>
LayerCount: 2
Back
SplineSet
387.695 322.754 m 21
 281.25 322.754 266.602 281.738 230.469 179.688 c 4
 191.895 70.3125 163.085 1.07129 91.3086 0 c 6
 25.8789 -0.976562 l 5xa2
 24.4141 0.976562 l 5x62
 24.4141 19.5312 l 6
 24.4141 24.9023 27.832 27.832 31.7383 27.832 c 6xb2
 41.0156 27.832 l 6
 73.7305 27.832 125 102.539 176.758 235.84 c 4
 200.684 296.387 219.238 342.773 281.25 342.773 c 5
 263.021 350.424 84.1318 351.723 83.9844 504.395 c 5
 83.9844 562.5 117.676 646.484 303.711 646.484 c 4
 338.867 646.484 397.461 644.531 430.176 644.531 c 4
 461.914 644.531 558.594 646.484 558.594 646.484 c 5
 558.594 624.512 l 6
 558.594 620.605 556.763 617.676 551.27 617.676 c 6
 521.484 617.676 l 6
 479.98 617.676 468.262 607.939 468.262 573.73 c 6
 468.262 71.2891 l 6
 468.262 40.5273 483.398 27.832 522.949 27.832 c 6
 549.316 27.832 l 6
 553.711 27.832 557.617 24.9023 557.617 19.5312 c 6
 557.617 0.976562 l 5
 555.664 -0.976562 l 5
 555.664 -0.976562 468.75 0.976562 429.688 0.976562 c 4
 394.043 0.976562 300.781 -0.976562 300.781 -0.976562 c 5
 298.828 0.976562 l 5
 298.828 19.5312 l 6
 298.828 24.9023 301.758 27.832 306.641 27.832 c 6
 333.008 27.832 l 6
 374.023 27.832 387.695 43.457 387.695 71.2891 c 6
 387.695 322.754 l 21
387.695 575.195 m 6
 387.695 365.723 l 5
 310.059 365.723 l 6
 227.051 365.723 161.133 417.969 161.133 502.441 c 4
 161.133 594.727 240.723 611.328 296.875 611.328 c 4x36
 383.301 611.328 387.695 607.91 387.695 575.195 c 6
EndSplineSet
Fore
SplineSet
230 314 m 1
 325 300 l 1
 293 265 260 220 229 176 c 0
 178 104 133 31 122 -3 c 1
 103 0 73 0 54 0 c 0
 34 0 22 0 2 -3 c 1
 0 0 l 1
 53 60 168 235 230 314 c 1
380 286 m 1
 254 286 206 300 171 318 c 0
 117 345 71 397 71 479 c 0
 71 529 88 570 124 604 c 0
 172 649 235 652 298 652 c 0
 323 652 393 645 423 645 c 0
 457 645 474 648 474 648 c 1
 476 645 l 1
 468 588 466 520 466 445 c 2
 466 200 l 2
 466 125 468 54 476 0 c 1
 475 -3 l 1
 475 -3 458 0 423 0 c 0
 389 0 372 -3 372 -3 c 1
 370 0 l 1
 378 57 380 125 380 200 c 2
 380 286 l 1
297 613 m 0
 236 613 168 596 168 478 c 0
 168 353 235 330 332 330 c 2
 380 330 l 1
 380 569 l 2
 380 598 368 613 297 613 c 0
EndSplineSet
EndChar

StartChar: afii10089
Encoding: 1095 1095 95
Width: 510
VWidth: 999
Flags: W
HStem: -3 21<323 373 373 423> 137 44<162.252 301.419> 412 20G<57 107 107 157 323 373 373 423>
VStem: 68 80<195.691 426.366> 333 80<2.66468 426.335>
LayerCount: 2
Back
SplineSet
664.062 430.664 m 5
 666.016 428.711 l 5
 666.016 410.156 l 6
 666.016 404.785 663.086 401.855 658.203 401.855 c 6
 631.836 401.855 l 6
 590.82 401.855 74.2188 401.855 34.668 401.855 c 6
 8.30078 401.855 l 6
 3.90625 401.855 0 404.785 0 410.156 c 6
 0 428.711 l 5
 1.95312 430.664 l 5
 664.062 430.664 l 5
-122.07 428.711 m 5
 785.156 428.711 l 5
-57.1289 0.976562 m 5
 990.234 0.976562 l 5
741.699 27.832 m 6
 768.066 27.832 l 6
 772.461 27.832 776.367 24.9023 776.367 19.5312 c 6
 776.367 0.976562 l 5
 774.414 -0.976562 l 5
 9.27734 -0.976562 l 5
 7.32422 0.976562 l 5
 7.32422 19.5312 l 6
 7.32422 24.9023 10.2539 27.832 15.1367 27.832 c 6
 41.5039 27.832 l 6
 82.5195 27.832 702.148 27.832 741.699 27.832 c 6
EndSplineSet
Fore
SplineSet
68 291 m 0
 68 366.5 65 376 57 429 c 1
 58 432 l 1
 58 432 72 429 107 429 c 0
 141 429 155 432 155 432 c 1
 157 429 l 1
 149 372 148 368.007 148 293 c 0
 148 215 155 181 217 181 c 0
 266 181 303 193 335 225 c 9
 335 180 l 1
 296 151 264 137 204 137 c 0
 106 137 68 185 68 291 c 0
EndSplineSet
Refer: 636 618 N 1 0 0 1 238 0 2
EndChar

StartChar: afii10090
Encoding: 1096 1096 96
Width: 807
VWidth: 999
Flags: W
HStem: 0 41<185.326 354.674 451.326 622.533> 412 20G<87 137 137 187 353 403 403 453 619 670 670 720>
VStem: 97 80<55.1837 426.335> 363 80<55.1837 426.335> 629 80<43.5547 426.335>
CounterMasks: 1 38
LayerCount: 2
Fore
SplineSet
709 200 m 22
 709 125.5 711 54 719 0 c 1
 718 -3 l 1
 718 -3 700 0 666 0 c 2
 140 0 l 2
 106 0 88 -3 88 -3 c 1
 87 0 l 1
 95 54 97 125 97 200 c 10
 97 250 l 2
 97 325.026 96 372 87 429 c 1
 89 432 l 1
 89 432 103 429 137 429 c 0
 172 429 186 432 186 432 c 1
 187 429 l 1
 178 375 177 324.007 177 250 c 2
 177 200 l 18
 177 183 178 78 185 54 c 1
 192 45 196 41 211 41 c 2
 329 41 l 2
 344 41 348 45 355 54 c 1
 362 78 363 183 363 200 c 10
 363 250 l 2
 363 325.026 362 372 353 429 c 1
 355 432 l 1
 355 432 369 429 403 429 c 0
 438 429 452 432 452 432 c 1
 453 429 l 1
 444 375 443 324.007 443 250 c 2
 443 200 l 18
 443 183 444 78 451 54 c 1
 458 45 462 41 477 41 c 2
 609 41 l 2
 624 41 614 45 621 54 c 1
 628 78 629 183 629 200 c 10
 629 249 l 2
 629 325.007 627.5 372 619 429 c 1
 621 432 l 1
 621 432 635.667 429 670 429 c 0
 705 429 719 432 719 432 c 1
 720 429 l 1
 711.5 375.5 709 324.06 709 249 c 2
 709 200 l 22
EndSplineSet
EndChar

StartChar: afii10091
Encoding: 1097 1097 97
Width: 813
VWidth: 999
Flags: HW
HStem: 0 41<185.326 354.674 451.326 622.533> 412 20G<87 137 137 187 353 403 403 453 619 670 670 720>
VStem: 97 80<55.1837 426.335> 363 80<55.1837 426.335> 629 80<41.465 426.335> 731 36<-125 -51.0881>
LayerCount: 2
Back
SplineSet
496.094 31.7383 m 6
 463.379 31.7383 459.961 45.4102 459.961 75.1953 c 14
385.254 72.7539 m 22
 385.254 49.8047 370.605 27.832 347.168 27.832 c 4
 324.219 27.832 320.312 17.0898 320.312 9.27734 c 6
 314.453 -128.418 l 5
 339.355 -128.418 l 5
 352.539 -63.4766 393.066 3.90625 464.355 3.90625 c 6
601.562 35.6445 m 6
 634.277 35.6445 637.695 49.3164 637.695 79.1016 c 14
712.402 72.7539 m 22
 712.402 49.8047 727.051 27.832 750.488 27.832 c 4
 773.438 27.832 777.344 17.0898 777.344 9.27734 c 6
 783.203 -128.418 l 5
 758.301 -128.418 l 5
 745.117 -63.4766 704.59 3.90625 633.301 3.90625 c 6
EndSplineSet
Fore
SplineSet
140 0 m 6
 106 0 88 -3 88 -3 c 5
 87 0 l 5
 95 54 97 125 97 200 c 14
 97 250 l 6
 97 325.026 96 372 87 429 c 5
 89 432 l 5
 89 432 103 429 137 429 c 4
 172 429 186 432 186 432 c 5
 187 429 l 5
 178 375 177 324.007 177 250 c 6
 177 200 l 22
 177 183 178 78 185 54 c 5
 192 45 196 41 211 41 c 6
 329 41 l 6
 344 41 348 45 355 54 c 5
 362 78 363 183 363 200 c 14
 363 250 l 6
 363 325.026 362 372 353 429 c 5
 355 432 l 5
 355 432 369 429 403 429 c 4
 438 429 452 432 452 432 c 5
 453 429 l 5
 444 375 443 324.007 443 250 c 6
 443 200 l 22
 443 183 444 78 451 54 c 5
 458 45 462 41 477 41 c 6
 609 41 l 6
 624 41 614 45 621 54 c 5
 628 78 629 183 629 200 c 14
 629 249 l 6
 629 325.007 627.5 372 619 429 c 5
 621 432 l 5
 621 432 635.667 429 670 429 c 4
 705 429 719 432 719 432 c 5
 720 429 l 5
 711.5 375.5 709 324.06 709 249 c 6
 709 200 l 22
 709 90 715.25 35 749 32 c 0
 773.902 29.7861 779 20.667 779 11 c 1
 767 -125 l 1
 765 -128 l 1
 733 -128 l 1
 731 -125 l 1
 720.096 -52.4004 707.721 0 628 0 c 6
 140 0 l 6
EndSplineSet
EndChar

StartChar: afii10092
Encoding: 1098 1098 98
Width: 539
VWidth: 999
Flags: W
HStem: -2 36<257.183 402.245> 219 37<273 402.262> 374 55<34.7075 190>
VStem: 193 80<40.3429 219 256 372.311> 428 80<60.92 197.087>
LayerCount: 2
Back
SplineSet
38.0859 429.688 m 9
 26.3672 277.832 l 25
 53.2227 275.391 l 17
 65.4297 332.52 79.5898 391.113 137.207 391.113 c 10
EndSplineSet
Fore
SplineSet
193 250 m 22
 193 321 190 374 190 374 c 5
 65 374 34 363 34 363 c 1
 32 366 l 1
 34 380 34 403 32 429 c 1
 34 431 l 1
 49 430 70 429 89 429 c 6
 233 429 l 6
 267 429 281 432 281 432 c 5
 283 429 l 5
 274 372 273 334.007 273 259.001 c 14
 273 256 l 21
 330 256 l 6
 426 256 508 230 508 136 c 4
 508 52 446 -2 335 -2 c 12
 295.212 -2 272.788 0 233 0 c 20
 198 0 184 -3 184 -3 c 5
 183 0 l 5
 192 54 193 104.994 193 179 c 6
 193 250 l 22
428 126 m 4
 428 179 411 219 340 219 c 6
 273 219 l 5
 273 79 l 6
 273 44 290 34 336 34 c 4
 386 34 428 44 428 126 c 4
EndSplineSet
EndChar

StartChar: afii10094
Encoding: 1100 1100 100
Width: 447
VWidth: 999
Flags: W
HStem: -2 36<165.183 310.245> 219 37<181 310.262> 412 20G<91 141 141 191>
VStem: 101 80<40.3429 219 256 426.342> 336 80<60.92 197.087>
LayerCount: 2
Back
SplineSet
180.664 357.422 m 6
 180.664 385.742 190.918 401.367 223.633 401.367 c 6
 242.676 401.367 l 6
 247.07 401.367 250.977 404.297 250.977 409.668 c 6
 250.977 428.223 l 5
 249.023 430.176 l 5
 249.023 430.176 180.664 428.223 141.602 428.223 c 4
 105.957 428.223 38.0859 430.176 38.0859 430.176 c 5
 36.1328 428.223 l 5
 36.1328 409.668 l 6
 36.1328 404.297 39.0625 401.367 43.9453 401.367 c 6
 62.9883 401.367 l 6
 96.6797 401.367 105.957 385.742 105.957 357.422 c 6
 105.957 108.398 l 2
 105.957 55.1758 97.168 46.875 83.4961 46.875 c 0
 70.3125 46.875 58.5938 48.3398 41.5039 51.7578 c 1
 36.6211 24.4141 l 1
 100.146 13.8271 112.061 9.0332 140.625 -4.45605 c 0
 151.082 -9.39453 158.317 -12.6953 165.527 -12.6953 c 2
 180.664 -12.6953 l 1
 180.664 357.422 l 6
EndSplineSet
Fore
SplineSet
181 259.001 m 14
 181 256 l 21
 238 256 l 6
 334 256 416 230 416 136 c 4
 416 52 354 -2 243 -2 c 12
 203.212 -2 180.788 0 141 0 c 20
 106 0 92 -3 92 -3 c 5
 91 0 l 5
 100 54 101 104.994 101 179 c 6
 101 250 l 22
 101 321 100 375 91 429 c 5
 92 432 l 5
 92 432 106 429 141 429 c 4
 175 429 189 432 189 432 c 5
 191 429 l 5
 182 372 181 334.007 181 259.001 c 14
336 126 m 4
 336 179 319 219 248 219 c 6
 181 219 l 5
 181 79 l 6
 181 44 198 34 244 34 c 4
 294 34 336 44 336 126 c 4
EndSplineSet
EndChar

StartChar: afii10095
Encoding: 1101 1101 101
Width: 434
VWidth: 999
Flags: MW
HStem: -10 31<133.489 237.744> 180 49<160.832 302.074> 207 41<92.6331 188.46> 408 31<122.738 236.146>
VStem: 314 77<116.594 208 230.421 318.818>
LayerCount: 2
Back
SplineSet
136.23 390.625 m 6
 105.957 390.625 76.6602 377.93 58.1055 294.434 c 5
 31.7383 298.828 l 5
 63.4766 451.172 l 5
 86.9141 446.777 l 5
 87.6465 432.129 91.9902 429.688 107.91 429.688 c 6
309.03 207.447 m 1
 204.102 204.59 l 2
 192.383 204.59 175.781 201.66 161.133 201.66 c 0
 143.555 201.66 128.906 205.566 128.906 222.168 c 0
 128.906 241.211 142.09 245.117 158.691 245.117 c 0
 172.363 245.117 187.988 242.676 200.684 242.188 c 2
 307.162 239.663 l 1
 298.34 375 228.516 410.645 182.129 410.645 c 0
 101.562 410.645 79.5898 354.004 65.4297 287.598 c 1
 39.5508 291.992 l 1
 45.5518 336.016 48.9209 387.496 51.2695 441.865 c 1
 63.9648 441.895 l 1
 73.4863 441.895 77.3926 430.664 84.9609 430.664 c 1
 115.723 430.664 132.324 441.895 192.383 441.895 c 0
 315.43 441.895 385.742 330.566 385.742 220.215 c 0
 385.742 62.9883 271.973 -12.207 183.105 -12.207 c 0
 92.2852 -12.207 36.6211 24.4141 36.6211 84.4727 c 0
 36.6211 98.1445 48.8281 113.281 66.8945 113.281 c 0
 77.6367 113.281 103.027 109.375 107.91 76.1719 c 0
 112.863 42.4912 131.836 18.5547 182.617 18.5547 c 0
 234.276 18.5547 305.664 58.5938 309.03 207.447 c 1
EndSplineSet
Fore
SplineSet
313 236 m 1xd8
 306 309 272 408 182 408 c 0
 102 408 81 351 67 290 c 1
 40 294 l 1
 46 338 49 372 51 427 c 1
 121 427 121 439 192 439 c 0
 315 439 391 335 391 225 c 0
 391 68 284 -10 178 -10 c 0
 96 -10 37 34 37 86 c 0
 37 100 49 115 67 115 c 0
 78 115 100 111 105 78 c 0
 111 44 142 21 185 21 c 0
 279 21 314 130 314 208 c 1
 292 196 259 180 228 180 c 0xd8
 184 180 155 207 120 207 c 0
 108 207 98 202 90 202 c 0
 84 202 83 211 83 215 c 0
 83 230 128 248 171 248 c 0xb8
 216 248 233 229 271 229 c 0
 287 229 301 231 313 236 c 1xd8
EndSplineSet
Validated: 3073
EndChar

StartChar: afii10096
Encoding: 1102 1102 102
Width: 686
VWidth: 999
Flags: HW
HStem: -10 35<422.78 523.403> -2 29<29 54 214 240> 198 39<171 268> 402 29<29 54 214 240> 406 33<403.08 503.112>
VStem: 97 74<33.7976 198 237 394.785> 268 80<113.871 198 237 323.327> 569 80<107.111 329.997>
LayerCount: 2
Fore
SplineSet
171 237 m 6
 269 237 l 5x77
 279 356 344 439 459 439 c 0
 603 439 649 321 649 217 c 0
 649 117 597 -10 458 -10 c 0xaf
 330 -10 270 97 268 198 c 5
 171 198 l 5
 171 237 l 6
449 401 m 0
 375 401 353 313 353 226 c 0
 353 149 381 30 475 30 c 0
 516 30 564 53 564 185 c 0
 564 331 527 401 449 401 c 0
EndSplineSet
Refer: 636 618 S 1 0 0 1 -2 0 2
EndChar

StartChar: afii10097
Encoding: 1103 1103 103
Width: 429
VWidth: 999
Flags: W
HStem: -3 30<10 25> 195 35<206.934 268> 204 26<157.163 165> 402 30<151.259 285.062>
VStem: 38 85<253.842 371.816> 268 80<2.65817 195 230 398.777>
LayerCount: 2
Back
SplineSet
287.598 243.652 m 1xe8
 287.598 210.449 l 1
 204.102 210.449 186.035 172.363 164.062 112.793 c 4
 148.926 72.2656 122.559 0.976562 77.6367 0 c 6
 12.6953 -0.976562 l 5
 10.2539 0.976562 l 5
 10.2539 19.5312 l 6
 10.2539 26.8555 16.1133 27.832 20.5078 27.832 c 6
 27.832 27.832 l 6
 61.0352 27.832 97.168 119.141 111.328 156.738 c 4
 129.395 205.566 164.551 226.562 212.891 226.562 c 1
 173.34 234.375 153.32 274.902 140.137 318.359 c 0
 130.371 348.633 116.699 370.605 106.934 370.605 c 0
 99.1211 370.605 93.75 368.164 89.3555 363.77 c 0
 83.9844 357.91 71.7773 354.492 62.9883 354.492 c 0
 45.8984 354.492 28.3203 373.047 28.3203 393.066 c 0
 28.3203 417.48 38.0859 437.5 75.1953 437.5 c 0
 118.164 437.5 146.973 383.789 163.086 337.402 c 0
 182.129 281.738 208.496 243.652 269.531 243.652 c 2
 287.598 243.652 l 1xe8
EndSplineSet
Fore
SplineSet
348 251 m 2xbc
 348 178 l 2
 348 108 349 54 358 0 c 1
 357 -3 l 1
 357 -3 343 0 308 0 c 0
 274 0 260 -3 260 -3 c 1
 258 0 l 1
 267 57 268 95 268 169 c 2
 268 195 l 1
 243 195 l 2xdc
 203 195 179 145 159 84 c 0
 145 43 118 1 83 0 c 2
 10 -3 l 1
 7 0 l 1
 7 19 l 2
 7 26 13 27 17 27 c 2
 25 28 l 2
 52 31 86 98 100 136 c 0
 116 177 137 198 165 204 c 5
 110 204 38 239 38 310 c 0
 38 339 56 432 217 432 c 0
 254 432 272 429 308 429 c 16
 343 429 357 432 357 432 c 1
 358 429 l 1
 349 375 348 324 348 251 c 2xbc
268 230 m 1
 268 366 l 2
 268 398 253 402 214 402 c 0
 140 402 123 368 123 321 c 0
 123 271 146 230 203 230 c 2xbc
 268 230 l 1
EndSplineSet
EndChar

StartChar: uni04DB
Encoding: 1243 1243 117
Width: 442
VWidth: 999
Flags: HW
HStem: -11 40<137.611 252.416> 141 44<108.003 303> 379 59<92.52 230.655> 527 92<94.3474 171.653 254.347 331.653>
VStem: 19 89<69.8942 173.5> 87 92<534.347 611.653> 247 92<534.347 611.653> 306 88<185 295.867>
LayerCount: 2
Back
SplineSet
-90.8203 617.676 m 5
 528.32 617.676 l 5
 528.32 526.855 l 5
 -90.8203 526.855 l 5
 -90.8203 617.676 l 5
EndSplineSet
Fore
Refer: 319 168 N 1 0 0 1 33 -2 2
Refer: 115 1241 N 1 0 0 1 0 0 3
LCarets2: 1 0 
Colour: ff00ff
EndChar

StartChar: uni04E7
Encoding: 1255 1255 121
Width: 510
VWidth: 999
Flags: HW
HStem: -10 41<204.375 329.082> 398 41<186.898 318.163> 528 92<135.347 212.653 295.347 372.653>
VStem: 36 90<124.397 311.463> 128 92<535.347 612.653> 288 92<535.347 612.653> 384 90<116.419 317.676>
LayerCount: 2
Back
SplineSet
518.555 502.441 m 5
 489.746 549.316 452.148 594.727 417.48 632.324 c 5
 437.988 645.508 l 5
 477.051 616.699 509.277 591.309 543.457 555.176 c 5
 580.566 593.262 614.258 618.652 651.367 645.508 c 5
 670.41 632.324 l 5
 635.742 592.773 597.656 548.34 568.359 502.441 c 5
 518.555 502.441 l 5
-202.637 647.949 m 5
 -200.684 596.68 -154.297 556.152 -93.75 556.152 c 4
 -47.8516 556.152 11.7188 585.938 14.1602 647.949 c 5
 40.5273 634.277 l 5
 30.7617 533.691 -43.9453 499.023 -93.75 499.023 c 4
 -171.387 499.023 -222.168 556.641 -229.492 634.277 c 5
 -202.637 647.949 l 5
151.855 645.508 m 5
 180.664 598.633 217.285 555.664 252.93 515.625 c 5
 232.422 502.441 l 5
 193.359 531.25 159.668 556.152 125.977 592.285 c 5
 88.8672 554.199 56.1523 529.297 19.043 502.441 c 5
 -0.488281 515.625 l 5
 34.668 555.176 72.7539 599.609 102.051 645.508 c 5
 151.855 645.508 l 5
-90.5762 664.062 m 5
 528.076 664.062 l 5
 528.076 500.732 l 5
 -90.5762 500.732 l 5
 -90.5762 664.062 l 5
446.289 662.598 m 21
 449.707 664.062 456.055 665.039 460.938 665.039 c 4
 488.936 665.039 501.382 654.214 509.766 646.704 c 4
 512.07 644.639 514.121 642.856 516.113 641.602 c 5
 518.555 630.859 l 5
 403.809 521.973 l 6
 388.184 507.324 381.348 502.441 375 502.441 c 4
 367.188 502.441 360.352 507.974 360.352 514.487 c 4
 360.352 519.858 360.443 527.246 366.699 537.109 c 6
 446.289 662.598 l 21
-90.5762 616.211 m 5
 528.076 616.211 l 5
 528.076 525.635 l 5
 -90.5762 525.635 l 5
 -90.5762 616.211 l 5
87.8906 570.801 m 4
 87.8906 595.703 108.398 616.211 133.301 616.211 c 4
 158.203 616.211 178.711 595.703 178.711 570.801 c 4
 178.711 545.898 158.203 525.391 133.301 525.391 c 4
 108.398 525.391 87.8906 545.898 87.8906 570.801 c 4
248.535 570.801 m 4
 248.535 595.703 269.043 616.211 293.945 616.211 c 4
 318.848 616.211 339.355 595.703 339.355 570.801 c 4
 339.355 545.898 318.848 525.391 293.945 525.391 c 4
 269.043 525.391 248.535 545.898 248.535 570.801 c 4
EndSplineSet
Fore
Refer: 790 1086 N 1 0 0 1 0 0 3
Refer: 319 168 N 1 0 0 1 74 -1 2
LCarets2: 1 0 
Colour: ff00ff
EndChar

StartChar: uni04E8
Encoding: 1256 1256 122
Width: 721
VWidth: 999
Flags: HW
HStem: -10 44<287.518 460.882> 266 57<387.324 534.392> 312 58<177.336 340.102> 614 44<261.342 446.336>
VStem: 42 103<199.871 439.073> 576 103<198.639 454.348>
LayerCount: 2
Back
SplineSet
592.285 296.875 m 5
 107.422 296.875 l 5
 107.422 353.027 l 5
 590.82 353.027 l 5
 592.285 296.875 l 5
EndSplineSet
Fore
Refer: 1999 1138 N 1 0 0 1 0 0 3
Colour: ff00ff
EndChar

StartChar: uni04E9
Encoding: 1257 1257 123
Width: 510
VWidth: 999
Flags: HMW
HStem: -12 36<202 328> 179 49<204 349> 207 42<118 238> 409 33<183 304>
VStem: 44 79<124 320> 377 79<113 318>
AnchorPoint: "unten_punkt" 246 -107 basechar 0
AnchorPoint: "top_punkt" 245 550 basechar 0
AnchorPoint: "top_akzent" 236 645 basechar 0
LayerCount: 2
Fore
SplineSet
380 219 m 1xdc
 361 206 315 179 274 179 c 0xdc
 231 179 197 207 162 207 c 0
 150 207 119 200 112 200 c 0
 105 200 104 209 104 213 c 0
 104 228 170 249 213 249 c 0xbc
 258 249 280 229 318 229 c 0
 340 229 362 237 377 244 c 1
 380 219 l 1xdc
EndSplineSet
Refer: 790 1086 N 1 0 0 1 0 0 3
Colour: ff80cc
EndChar

StartChar: uni04EB
Encoding: 1259 1259 125
Width: 510
VWidth: 999
Flags: HW
HStem: -12 36<202 328> 179 49<204 349> 207 42<118 238> 409 33<183 304> 527 92<137.347 214.653 297.347 374.653>
VStem: 44 79<124 320> 130 92<534.347 611.653> 290 92<534.347 611.653> 377 79<113 318>
LayerCount: 2
Back
SplineSet
-90.8203 617.676 m 5
 528.32 617.676 l 5
 528.32 526.855 l 5
 -90.8203 526.855 l 5
 -90.8203 617.676 l 5
EndSplineSet
Fore
Refer: 123 1257 N 1 0 0 1 0 0 3
Refer: 319 168 N 1 0 0 1 76 -2 2
LCarets2: 1 0 
Colour: ff00ff
EndChar

StartChar: uni04EF
Encoding: 1263 1263 126
Width: 486
VWidth: 999
Flags: HW
HStem: 412 20<25 37.8974 112.5 137.704 367.982 391 451.5 463> 538 44<111.088 389.515>
VStem: 18 101<384.934 432> 89 84<-246 -210.595> 110 281<538.205 582>
LayerCount: 2
Back
SplineSet
326.66 538.574 m 6
 -70.3125 538.574 l 6
 -78.2227 538.574 -81.2988 546.387 -81.2988 553.223 c 4
 -81.2988 564.941 -72.0703 582.52 -61.5234 582.52 c 6
 335.449 582.52 l 6
 344.238 582.52 347.754 574.707 347.754 567.871 c 4
 347.754 556.152 338.085 538.574 326.66 538.574 c 6
EndSplineSet
Fore
Refer: 795 1091 N 1 0 0 1 0 0 3
Refer: 659 713 N 1 0 0 1 46 32 2
LCarets2: 1 0 
Colour: ff00ff
EndChar

StartChar: uni04F1
Encoding: 1265 1265 127
Width: 486
VWidth: 999
Flags: HW
HStem: 412 20<25 37.8974 112.5 137.704 367.982 391 451.5 463> 527 92<142.347 219.653 302.347 379.653>
VStem: 18 101<384.934 432> 89 84<-246 -210.595> 135 92<534.347 611.653> 295 92<534.347 611.653>
LayerCount: 2
Back
SplineSet
-90.8203 617.676 m 5
 528.32 617.676 l 5
 528.32 526.855 l 5
 -90.8203 526.855 l 5
 -90.8203 617.676 l 5
EndSplineSet
Fore
Refer: 795 1091 N 1 0 0 1 0 0 3
Refer: 319 168 N 1 0 0 1 81 -2 2
LCarets2: 1 0 
Colour: ff00ff
EndChar

StartChar: uni1E03
Encoding: 7683 7683 132
Width: 497
VWidth: 999
Flags: HW
HStem: -10 44<179.548 305.024> 385 54<196.637 317.65> 519 104<223.248 306.458> 678 20<143.465 159.167>
VStem: 75 80<58.0308 360.44 384 667.981> 213 104<529.542 612.752> 375 85<134.529 320.197>
LayerCount: 2
Back
SplineSet
-98.3887 618.652 m 5
 520.264 618.652 l 5
 520.508 522.949 l 5
 -98.6328 522.949 l 5
 -98.3887 618.652 l 5
-98.3887 664.062 m 5
 520.264 664.062 l 5
 520.264 500.732 l 5
 -98.3887 500.732 l 5
 -98.3887 664.062 l 5
-98.3887 616.211 m 5
 520.264 616.211 l 5
 520.508 525.391 l 5
 -98.6328 525.391 l 5
 -98.3887 616.211 l 5
240.723 570.801 m 4
 240.723 595.703 261.23 616.211 286.133 616.211 c 4
 311.035 616.211 331.543 595.703 331.543 570.801 c 4
 331.543 545.898 311.035 525.391 286.133 525.391 c 4
 261.23 525.391 240.723 545.898 240.723 570.801 c 4
EndSplineSet
Fore
Refer: 664 729 N 1 0 0 1 119 -69 2
Refer: 282 98 N 1 0 0 1 0 0 3
LCarets2: 1 0 
Colour: ff00ff
EndChar

StartChar: uni1E09
Encoding: 7689 7689 138
Width: 437
VWidth: 999
Flags: W
HStem: -198 29<156.047 256.231> -94 32<231.31 261.355> -10 54<198.612 332.08> 394 45<189.998 317.695>
VStem: 36 85<130.336 304.92> 266 62<-163.259 -95.4563>
DStem2: 182 -94 231 -65 0.384615 0.923077<45.6154 104>
LayerCount: 2
Back
SplineSet
-90.8203 672.852 m 5
 528.32 672.852 l 5
 528.32 510.254 l 5
 -90.8203 510.254 l 5
 -90.8203 672.852 l 5
EndSplineSet
Fore
Refer: 670 769 N 1 0 0 1 452 -37 2
Refer: 382 231 N 1 0 0 1 0 0 3
LCarets2: 1 0 
Colour: ff00ff
EndChar

StartChar: uni1E0B
Encoding: 7691 7691 140
Width: 514
VWidth: 999
Flags: HW
HStem: -10 57<184.507 297.415> -3 21<374 383.667 449.5 458> 394 45<189.467 329.898> 519 104<190.248 273.458> 678 20<429.466 445.167>
VStem: 40 85<116.128 302.432> 180 104<529.542 612.752> 361 80<87.1288 364.244 417 667.981>
LayerCount: 2
Back
SplineSet
-98.3887 618.652 m 5
 520.264 618.652 l 5
 520.508 522.949 l 5
 -98.6328 522.949 l 5
 -98.3887 618.652 l 5
-98.3887 664.062 m 5
 520.264 664.062 l 5
 520.264 500.732 l 5
 -98.3887 500.732 l 5
 -98.3887 664.062 l 5
-98.3887 616.211 m 5
 520.264 616.211 l 5
 520.508 525.391 l 5
 -98.6328 525.391 l 5
 -98.3887 616.211 l 5
240.723 570.801 m 4
 240.723 595.703 261.23 616.211 286.133 616.211 c 4
 311.035 616.211 331.543 595.703 331.543 570.801 c 4
 331.543 545.898 311.035 525.391 286.133 525.391 c 4
 261.23 525.391 240.723 545.898 240.723 570.801 c 4
EndSplineSet
Fore
Refer: 664 729 N 1 0 0 1 86 -69 2
Refer: 284 100 N 1 0 0 1 0 0 3
LCarets2: 1 0 
Colour: ff00ff
EndChar

StartChar: uni1E21
Encoding: 7713 7713 162
Width: 479
VWidth: 999
Flags: HW
HStem: -238 43<141.427 314.366> -15 62<137.607 251.772> -12 66<172.809 355.253> 136 44<169.974 279.135> 395 44<163.808 275.455> 538 44<102.088 380.515>
VStem: 32 66<-157.208 -57.419> 59 78<215.424 363.363> 64 56<55.5258 149.891> 101 281<538.205 582> 308 76<209.668 361.501> 392 61<-135.741 -44.0939>
LayerCount: 2
Back
SplineSet
326.66 538.574 m 6
 -70.3125 538.574 l 6
 -78.2227 538.574 -81.2988 546.387 -81.2988 553.223 c 4
 -81.2988 564.941 -72.0703 582.52 -61.5234 582.52 c 6
 335.449 582.52 l 6
 344.238 582.52 347.754 574.707 347.754 567.871 c 4
 347.754 556.152 338.085 538.574 326.66 538.574 c 6
EndSplineSet
Fore
Refer: 659 713 N 1 0 0 1 37 32 2
Refer: 287 103 N 1 0 0 1 0 0 3
LCarets2: 1 0 
Colour: ff00ff
EndChar

StartChar: uni1E23
Encoding: 7715 7715 164
Width: 520
VWidth: 999
Flags: HW
HStem: -3 21<73 123 123 173 348 398 398 448> 382 57<239.694 343.936> 519 104<246.248 329.458> 678 20<151.465 167.167>
VStem: 83 80<2.66453 327.568 360 667.98> 236 104<529.542 612.752> 358 80<2.66453 368.709>
LayerCount: 2
Back
SplineSet
-98.3887 618.652 m 5
 520.264 618.652 l 5
 520.508 522.949 l 5
 -98.6328 522.949 l 5
 -98.3887 618.652 l 5
-98.3887 664.062 m 5
 520.264 664.062 l 5
 520.264 500.732 l 5
 -98.3887 500.732 l 5
 -98.3887 664.062 l 5
-98.3887 616.211 m 5
 520.264 616.211 l 5
 520.508 525.391 l 5
 -98.6328 525.391 l 5
 -98.3887 616.211 l 5
240.723 570.801 m 4
 240.723 595.703 261.23 616.211 286.133 616.211 c 4
 311.035 616.211 331.543 595.703 331.543 570.801 c 4
 331.543 545.898 311.035 525.391 286.133 525.391 c 4
 261.23 525.391 240.723 545.898 240.723 570.801 c 4
EndSplineSet
Fore
Refer: 664 729 N 1 0 0 1 142 -69 2
Refer: 288 104 N 1 0 0 1 0 0 3
LCarets2: 1 0 
Colour: ff00ff
EndChar

StartChar: uni1E27
Encoding: 7719 7719 168
Width: 520
VWidth: 999
Flags: W
HStem: -3 21<73 123 123 173 348 398 398 448> 382 57<239.694 343.936> 527 91<215.053 290.947 352.053 428.653> 678 20<151.465 167.167>
VStem: 83 80<2.66453 327.568 360 667.98> 208 90<533.481 611.246> 345 91<534.053 610.653> 358 80<2.66453 368.709>
LayerCount: 2
Back
SplineSet
-90.8203 617.676 m 5
 528.32 617.676 l 5
 528.32 526.855 l 5
 -90.8203 526.855 l 5
 -90.8203 617.676 l 5
EndSplineSet
Fore
SplineSet
208 572 m 0xfc
 208 597 228 618 253 618 c 0
 278 618 298 597 298 572 c 0
 298 547 278 527 253 527 c 0
 228 527 208 547 208 572 c 0xfc
345 572 m 0xfe
 345 597 365 618 390 618 c 0
 415 618 436 597 436 572 c 0
 436 547 415 527 390 527 c 0
 365 527 345 547 345 572 c 0xfe
EndSplineSet
Refer: 288 104 N 1 0 0 1 0 0 3
Validated: 35841
LCarets2: 1 0 
Colour: ff80cc
EndChar

StartChar: uni1E31
Encoding: 7729 7729 178
Width: 476
VWidth: 999
Flags: HW
HStem: -3 21<75 125 125 175 330.524 373.667 479.5 486> 212 25<164 188.776> 412 20<450.5 462> 678 20<153.465 169.167>
VStem: 85 80<2.67975 667.981>
LayerCount: 2
Back
SplineSet
-90.8203 672.852 m 5
 528.32 672.852 l 5
 528.32 510.254 l 5
 -90.8203 510.254 l 5
 -90.8203 672.852 l 5
EndSplineSet
Fore
Refer: 670 769 N 1 0 0 1 499 -37 2
Refer: 291 107 N 1 0 0 1 0 0 3
LCarets2: 1 0 
Colour: ff00ff
EndChar

StartChar: uni1E3F
Encoding: 7743 7743 192
Width: 765
VWidth: 999
Flags: HW
HStem: -3 21<70 120 120 170 332 382 382 432 595 645 645 695> 381 58<226.093 320.744 483.539 587.727>
VStem: 80 80<2.6647 331.01> 342 80<2.66453 310.443> 605 80<2.66453 366.224>
LayerCount: 2
Back
SplineSet
-90.8203 672.852 m 5
 528.32 672.852 l 5
 528.32 510.254 l 5
 -90.8203 510.254 l 5
 -90.8203 672.852 l 5
EndSplineSet
Fore
Refer: 670 769 N 1 0 0 1 540 -37 2
Refer: 293 109 N 1 0 0 1 0 0 3
LCarets2: 1 0 
Colour: ff00ff
EndChar

StartChar: uni1E45
Encoding: 7749 7749 198
Width: 523
VWidth: 999
Flags: HW
HStem: -3 21<74 124 124 174 348 398 398 448> 381 58<232.128 342.366> 519 104<240.248 323.458>
VStem: 84 80<2.6647 329.453> 230 104<529.542 612.752> 358 80<2.6647 366.93>
LayerCount: 2
Back
SplineSet
-90.8203 618.652 m 5
 528.32 618.652 l 5
 528.32 522.949 l 5
 -90.8203 522.949 l 5
 -90.8203 618.652 l 5
EndSplineSet
Fore
Refer: 664 729 N 1 0 0 1 136 -69 2
Refer: 294 110 N 1 0 0 1 0 0 3
LCarets2: 1 0 
Colour: ff00ff
EndChar

StartChar: uni1E4D
Encoding: 7757 7757 206
Width: 510
VWidth: 999
Flags: HW
HStem: -10 41<204.375 329.082> 398 41<186.898 318.163> 504 44<263 350> 552 46<145 236> 591 10
VStem: 36 90<124.397 311.463> 384 90<116.419 317.676>
LayerCount: 2
Back
SplineSet
488.281 715.005 m 25
 -33.2031 715.005 l 17
 -33.2031 584.961 l 9
 488.442 584.961 l 25
 488.281 715.005 l 25
EndSplineSet
Fore
Refer: 672 771 N 1 0 0 1 398 -70 2
Refer: 295 111 N 1 0 0 1 0 0 3
Refer: 670 769 N 0.77 0 0 0.88 468 127 2
LCarets2: 1 0 
Colour: ff00ff
EndChar

StartChar: uni1E4E
Encoding: 7758 7758 207
Width: 721
VWidth: 999
Flags: HW
HStem: -10 44<287.518 460.882> 614 44<261.342 446.336> 696.4 48.4<362.3 436.25> 707 91<114.301 190.653 523.347 599.947> 749.2 50.6<262 339.35> 792.1 11
VStem: 42 103<199.871 439.073> 107 91<714.301 790.653> 516 91<714.301 790.653> 576 103<198.639 454.348>
LayerCount: 2
Fore
SplineSet
516 752 m 0xd080
 516 777 537 798 562 798 c 0
 587 798 607 777 607 752 c 0
 607 728 587 707 562 707 c 0
 537 707 516 728 516 752 c 0xd080
107 752 m 0xd1
 107 777 128 798 152 798 c 0
 177 798 198 777 198 752 c 0
 198 728 177 707 152 707 c 0
 128 707 107 728 107 752 c 0xd1
EndSplineSet
Refer: 667 732 N 0.85 0 0 1.1 228 65 2
Refer: 264 79 N 1 0 0 1 0 0 3
LCarets2: 1 0 
Colour: ff80cc
EndChar

StartChar: uni1E55
Encoding: 7765 7765 214
Width: 506
VWidth: 999
Flags: HW
HStem: -235 21<65 115 115 165> -10 44<177.377 312.795> 383 56<211.3 314.639>
VStem: 75 80<-229.32 12 56.5329 336.172 360 408.988> 370 96<125.199 316.254>
LayerCount: 2
Back
SplineSet
-90.8203 672.852 m 5
 528.32 672.852 l 5
 528.32 510.254 l 5
 -90.8203 510.254 l 5
 -90.8203 672.852 l 5
EndSplineSet
Fore
Refer: 670 769 N 1 0 0 1 465 -37 2
Refer: 296 112 N 1 0 0 1 0 0 3
LCarets2: 1 0 
Colour: ff00ff
EndChar

StartChar: uni1E57
Encoding: 7767 7767 216
Width: 506
VWidth: 999
Flags: HW
HStem: -235 21<65 115 115 165> -10 44<177.377 312.795> 383 56<211.3 314.639> 519 104<218.248 301.458>
VStem: 75 80<-229.32 12 56.5329 336.172 360 408.988> 208 104<529.542 612.752> 370 96<125.199 316.254>
LayerCount: 2
Back
SplineSet
-90.8203 618.652 m 5
 528.32 618.652 l 5
 528.32 522.949 l 5
 -90.8203 522.949 l 5
 -90.8203 618.652 l 5
EndSplineSet
Fore
Refer: 664 729 N 1 0 0 1 114 -69 2
Refer: 296 112 N 1 0 0 1 0 0 3
LCarets2: 1 0 
Colour: ff00ff
EndChar

StartChar: uni1E59
Encoding: 7769 7769 218
Width: 355
VWidth: 999
Flags: HW
HStem: -3 21<84 134 134 184> 366 73<237.376 323.929> 519 104<158.248 241.458>
VStem: 94 80<2.6647 334.959 354 408.988> 148 104<529.542 612.752>
LayerCount: 2
Back
SplineSet
-90.8203 618.652 m 5
 528.32 618.652 l 5
 528.32 522.949 l 5
 -90.8203 522.949 l 5
 -90.8203 618.652 l 5
EndSplineSet
Fore
Refer: 664 729 N 1 0 0 1 54 -69 2
Refer: 298 114 N 1 0 0 1 0 0 3
LCarets2: 1 0 
Colour: ff00ff
EndChar

StartChar: uni1E61
Encoding: 7777 7777 226
Width: 366
VWidth: 999
Flags: HW
HStem: -10.0993 36.8687<111.032 227.942> 403 36.0157<146.336 251.608> 519 104<152.248 235.458>
VStem: 51.3361 69.5314<288.574 382.242> 142 104<529.542 612.752> 257.248 76.7631<53.4282 159.41>
LayerCount: 2
Back
SplineSet
-90.8203 618.652 m 5
 528.32 618.652 l 5
 528.32 522.949 l 5
 -90.8203 522.949 l 5
 -90.8203 618.652 l 5
EndSplineSet
Fore
Refer: 2048 115 N 1 0 0 1 0 0 3
Refer: 664 729 N 1 0 0 1 48 -69 2
LCarets2: 1 0 
Colour: ff00ff
EndChar

StartChar: uni1E65
Encoding: 7781 7781 230
Width: 366
VWidth: 999
Flags: HW
HStem: -10.0993 36.8687<111.032 227.942> 403 36.0157<146.336 251.608> 583.2 93.6<59.8231 134.712>
VStem: 50.6 93.6<592.688 667.577> 51.3361 69.5314<288.574 382.242> 257.248 76.7631<53.4282 159.41>
LayerCount: 2
Back
SplineSet
-90.8203 672.852 m 5
 528.32 672.852 l 5
 528.32 510.254 l 5
 -90.8203 510.254 l 5
 -90.8203 672.852 l 5
EndSplineSet
Fore
Refer: 2048 115 N 1 0 0 1 0 0 3
Refer: 670 769 N 1 0 0 1 392 -37 2
Refer: 664 729 N 0.9 0 0 0.9 -34 54 2
LCarets2: 1 0 
Colour: ff00ff
EndChar

StartChar: uni1E69
Encoding: 7785 7785 234
Width: 366
VWidth: 999
Flags: HW
HStem: -167 104<148.248 231.458> -10.0993 36.8687<111.032 227.942> 403 36.0157<146.336 251.608> 519 104<148.248 231.458>
VStem: 51.3361 69.5314<288.574 382.242> 138 104<-156.458 -73.2479 529.542 612.752> 257.248 76.7631<53.4282 159.41>
LayerCount: 2
Back
SplineSet
-90.8203 618.652 m 5
 528.32 618.652 l 5
 528.32 522.949 l 5
 -90.8203 522.949 l 5
 -90.8203 618.652 l 5
EndSplineSet
Fore
Refer: 228 7779 N 1 0 0 1 0 0 3
Refer: 664 729 N 1 0 0 1 44 -69 2
LCarets2: 1 0 
Colour: ff00ff
EndChar

StartChar: uni1E6B
Encoding: 7787 7787 236
Width: 302
VWidth: 999
Flags: HW
HStem: -10 60<139 240.885> 385 44<20 87 167 282> 558 20<150.465 166.167> 629 104<99.2479 182.458>
VStem: 87 80<52.1113 385 429 548.046> 89 104<639.542 722.752>
LayerCount: 2
Back
SplineSet
-90.8203 618.652 m 5
 528.32 618.652 l 5
 528.32 522.949 l 5
 -90.8203 522.949 l 5
 -90.8203 618.652 l 5
EndSplineSet
Fore
Refer: 664 729 N 1 0 0 1 -5 41 2
Refer: 300 116 N 1 0 0 1 0 0 3
LCarets2: 1 0 
Colour: ff00ff
EndChar

StartChar: ampersand
Encoding: 38 38 252
Width: 705
VWidth: 479
Flags: HW
HStem: -10 54<530.578 615.713> -10 37<176.392 313.39> 412 20G<532 541 598.5 613> 609 39<279.741 374.757>
VStem: 44 79<75.4523 241.09> 178 72<441.259 581.579> 391 67<485.443 594.782> 647 16<86.748 93.5>
DStem2: 432 192 392 133 0.589301 -0.807913<-209.301 0 72.6932 198.212>
LayerCount: 2
Back
SplineSet
433.594 118.652 m 4x7e
 570.312 324.219 576.836 404.297 631.836 404.297 c 6
 660.156 404.297 l 6
 665.039 404.297 669.434 406.25 669.922 412.109 c 6
 669.922 428.711 l 5
 667.969 431.152 l 5
 667.969 431.152 613.472 429.199 578.613 429.199 c 28
 544.326 429.199 490.723 431.152 490.723 431.152 c 5
 488.77 428.711 l 5
 488.77 411.133 l 6
 488.77 408.203 489.258 404.785 494.141 404.297 c 6
 522.949 404.297 l 6
 560.913 404.297 534.18 337.891 411.682 160.427 c 4
 352.712 74.9961 314.941 25.3906 231.934 25.3906 c 4x7e
 166.992 25.3906 102.539 61.5234 102.539 163.086 c 4
 102.539 244.629 147.508 296.748 273.926 361.816 c 4
 373.535 413.086 457.031 486.793 457.031 550.293 c 4
 457.031 613.867 399.915 657.227 328.125 657.227 c 4
 225.886 657.227 171.875 587.466 171.875 527.832 c 4
 171.875 481.934 190.479 434.878 246.238 345.703 c 4
 329.59 212.402 449.846 61.5234 449.846 61.5234 c 6
 497.31 -4.72461 535.298 -8.78906 566.895 -8.78906 c 4
 602.051 -8.78906 643.369 23.4111 666.504 95.7031 c 5
 650.879 103.516 l 5
 630.371 63.4766 606.934 46.3867 572.754 46.3867 c 4xbe
 556.401 46.3867 526.562 68.209 494.521 113.281 c 6
 494.521 113.281 342.058 317.451 310.547 372.07 c 4
 266.602 448.242 245.117 499.512 245.117 529.785 c 4
 245.117 596.68 296.613 623.047 323.242 623.047 c 4
 364.746 623.047 389.16 596.191 389.16 550.293 c 4
 389.16 506.406 332.52 445.312 245.495 397.477 c 4
 135.39 336.954 21.9727 266.602 21.9727 162.598 c 4
 21.9727 30.7617 112.793 -8.78906 225.098 -8.78906 c 4
 319.336 -8.78906 384.27 44.4902 433.594 118.652 c 4x7e
EndSplineSet
Fore
SplineSet
432 192 m 5x7f
 503 297 528 366 536 432 c 5
 546 429 565 429 575 429 c 4
 585 429 608 429 618 432 c 5
 579 365 482.268 186.958 460 153 c 5
 494 107 l 2
 525 63 555 44 571 44 c 0
 604 44 627 59 647 98 c 1
 663 90 l 1
 640 20 600 -10 565 -10 c 0xbf
 534 -10 497 -8 450 57 c 2
 421 94 l 1
 375 31 325 -10 240 -10 c 0
 133 -10 44 38 44 166 c 0
 44 238.028 96 301 228 375 c 1
 190 434 178 479 178 517 c 0
 178 576 231 648 331 648 c 0
 401 648 458 602 458 539 c 0
 458 484 393 419 310 371 c 1
 314 363 l 2
 332 332 386 254 432 192 c 5x7f
288 411 m 1
 352 453 391 503 391 539 c 0
 391 584 367 609 326 609 c 0
 300 609 250 585 250 519 c 0
 250 496 260 457 288 411 c 1
250 338 m 1
 147 281 123 227 123 156 c 0
 123 58 184 27 247 27 c 0x7f
 318 27 343 66 392 133 c 1
 335 208 261 317 250 338 c 1
EndSplineSet
Substitution2: "'salt' Stilistische Alternativformen 1" ampersand.alt
Substitution2: "'smcp' Gemeine nach Kapitaelchen 1" ampersand.alt
Substitution2: "'c2sc' Versale nach Kapitaelchen 1" ampersand.alt
AlternateSubs2: "'aalt' Alle Alternativen zeigen 1" ampersand.alt
EndChar

StartChar: quotesingle
Encoding: 39 39 253
Width: 190
VWidth: 999
Flags: W
HStem: 426 218<75.8119 108.678>
VStem: 53 86<487.695 633.98>
LayerCount: 2
Fore
SplineSet
79 426 m 1
 79 426 53 585 53 594 c 0
 53 616 74 644 104 644 c 0
 130 644 139 627 139 611 c 0
 139 595 106 430 106 430 c 1
 79 426 l 1
EndSplineSet
Validated: 3073
EndChar

StartChar: comma
Encoding: 44 44 254
Width: 220
VWidth: 999
Flags: W
HStem: -133 25<45.0064 74.3254> -3 105<67.3677 129.821>
VStem: 131 39<-67.0863 29.4019>
LayerCount: 2
Back
SplineSet
101 101 m 0
 136 101 180 69 180 3 c 0
 180 -76 120 -121 50 -142 c 1
 41 -139 38 -123 44 -118 c 1
 75 -108 126 -83 126 -31 c 0
 126 11 78 22 69 27 c 0
 56 34 52 44 52 56 c 0
 52 79 69 101 101 101 c 0
49.8047 42.9688 m 0
 49.8047 72.2656 73.7305 96.1914 103.027 96.1914 c 0
 132.324 96.1914 156.25 72.2656 156.25 42.9688 c 0
 156.25 13.6719 132.324 -10.2539 103.027 -10.2539 c 0
 73.7305 -10.2539 49.8047 13.6719 49.8047 42.9688 c 0
EndSplineSet
Fore
SplineSet
48 44 m 1
 48 48 l 1
 57.25 74.5 71.75 89.75 102 102 c 1
 106 102 l 1
 142.205 88.8911 170 61.8037 170 -3 c 0
 170 -73 110 -122 50 -133 c 1
 43.25 -127.125 41.625 -117.875 45 -108 c 1
 97 -95 131 -50 131 -29 c 0
 131 -4.5 114.5 -3 102 -3 c 1
 70.75 4 56.75 10.5 48 44 c 1
EndSplineSet
EndChar

StartChar: hyphen
Encoding: 45 45 255
Width: 333
VWidth: 999
Flags: W
HStem: 236 54<36.3813 296.646>
VStem: 33 268<237.375 289.468>
LayerCount: 2
Back
SplineSet
-58.1055 256.836 m 29
 565.43 256.836 l 29
0 572.012 m 5
 527.344 572.012 l 5
 527.344 0 l 5
 0 0 l 5
 0 572.012 l 5
293.457 287.109 m 1
 293.457 238.281 l 1
 39.5508 238.281 l 1
 39.5508 287.109 l 1
 293.457 287.109 l 1
EndSplineSet
Fore
SplineSet
274 236 m 2
 48 236 l 2
 39 236 33 244 33 253 c 0
 33 269 46 290 58 290 c 2
 287 290 l 2
 297 290 301 281 301 272 c 0
 301 261 287 236 274 236 c 2
EndSplineSet
Validated: 3073
Substitution2: "'c2sc' Versale nach Kapitaelchen 1" hyphen.sc
AlternateSubs2: "'aalt' Alle Alternativen zeigen 1" hyphen.sc
Substitution2: "'smcp' Gemeine nach Kapitaelchen 1" hyphen.sc
Substitution2: "'case' Versalformen 1" hyphen.cap
EndChar

StartChar: period
Encoding: 46 46 256
Width: 220
VWidth: 999
Flags: W
HStem: -10 112<73.3677 147.353>
VStem: 54 112<6.28114 82.4613>
LayerCount: 2
Back
SplineSet
57 43 m 4
 57 72 81 96 110 96 c 4
 139 96 163 72 163 43 c 4
 163 14 139 -10 110 -10 c 4
 81 -10 57 14 57 43 c 4
EndSplineSet
Fore
SplineSet
54 44 m 1
 54 48 l 1
 63.25 74.5 77.75 89.75 108 102 c 1
 112 102 l 1
 141 91.5 156.75 76.25 166 48 c 1
 166 44 l 1
 155.75 11.75 140.25 -3 112 -10 c 1
 108 -10 l 1
 76.75 -3 62.75 10.5 54 44 c 1
EndSplineSet
Validated: 3073
EndChar

StartChar: zero
Encoding: 48 48 257
Width: 440
VWidth: 487
Flags: W
HStem: -10 37<172.696 261.037> 538 40<174.827 265.886>
VStem: 37 81<139.082 422.79> 318 81<137.797 432.086>
LayerCount: 2
Back
SplineSet
47 578 m 25
 347 578 l 25
0 568 m 5
 440 568 l 1
 440 0 l 1
 0 0 l 1
 0 568 l 5
EndSplineSet
Fore
SplineSet
216 -10 m 4
 109 -10 37 125 37 278 c 4
 37 465 126 578 220 578 c 4
 263 578 306 554 335 515 c 4
 377 460 399 381 399 287 c 4
 399 65 289 -10 216 -10 c 4
220 538 m 4
 177 538 118 501 118 268 c 4
 118 186 129 27 217 27 c 4
 234 27 280 37 301 115 c 4
 314 163 318 218 318 305 c 4
 318 432 291 498 262 523 c 4
 251 533 236 538 220 538 c 4
EndSplineSet
AlternateSubs2: "'aalt' Alle Alternativen zeigen 1" zero.oldstyle zero.fitted zero.slash zero.slashfitted perthousandzero
Substitution2: "'zero' gestrichene Null 1" zero.slash
Substitution2: "'sups' Hochgestellte 1" zero.superior
Substitution2: "'sinf' Wissenschaftliche Indices 1" zero.inferior
Substitution2: "'pnum' Proportionalziffern 1" zero.fitted
Substitution2: "'onum' Minuskelziffern 1" zero.taboldstyle
EndChar

StartChar: I
Encoding: 73 73 258
Width: 293
VWidth: 999
Flags: W
HStem: -3 21G<96 149 149 202> 628 20G<96 149 149 202>
VStem: 106 86<2.67992 642.32>
AnchorPoint: "unten_anhang" 145 1 basechar 0
AnchorPoint: "unten_punkt" 145 -109 basechar 0
AnchorPoint: "top_punkt" 146 700 basechar 0
AnchorPoint: "top_akzent" 146 798 basechar 0
LayerCount: 2
Back
SplineSet
547.905 600.781 m 2
 547.905 73.7793 l 2
 547.905 37.7793 550.908 26.7793 629.907 26.7793 c 2
 655.903 26.7793 l 1
 655.903 -4.2207 l 1
 620.908 -1.2207 541.904 -1.2207 502.905 -1.2207 c 0
 464.906 -1.2207 385.906 -1.2207 350.905 -4.2207 c 1
 350.905 26.7793 l 1
 376.905 26.7793 l 2
 455.906 26.7793 458.906 37.7793 458.906 73.7793 c 2
 458.906 600.781 l 2
 458.906 636.777 455.906 647.778 376.905 647.778 c 2
 350.905 647.778 l 1
 350.905 678.779 l 1
 385.906 675.781 464.906 675.781 503.906 675.781 c 0
 541.904 675.781 620.908 675.781 655.903 678.779 c 1
 655.903 647.778 l 1
 629.907 647.778 l 2
 550.908 647.778 547.905 636.777 547.905 600.781 c 2
958.984 0.390625 m 1
 693.984 0.390625 l 1
 693.984 28.3906 l 1
 775.986 34.3906 783.984 40.3906 783.984 125.391 c 2
 783.984 525.391 l 2
 783.984 610.391 775.986 616.392 693.984 622.393 c 1
 693.984 650.391 l 1
 958.984 650.391 l 1
 958.984 622.393 l 1
 876.982 616.392 868.984 610.391 868.984 525.391 c 2
 868.984 125.391 l 2
 868.984 39.3906 876.982 34.3906 958.984 28.3906 c 1
 958.984 0.390625 l 1
186.523 72.7539 m 2
 186.523 46.875 189.941 41.5039 195.312 36.1328 c 0
 199.219 32.7148 207.52 28.8086 224.609 28.8086 c 2
 250.977 28.8086 l 2
 255.371 28.8086 259.277 25.8789 259.277 20.5078 c 2
 259.277 -0.976562 l 1
 259.277 -0.976562 186.523 0.976562 147.461 0.976562 c 0
 111.979 0.976562 33.2031 -0.976562 33.2031 -0.976562 c 1
 33.2031 20.5078 l 2
 33.2031 26.041 35.9697 28.8086 41.0156 28.8086 c 2
 67.3828 28.8086 l 2
 85.9375 28.8086 92.7734 32.7148 96.1914 36.1328 c 0
 105.469 45.8984 105.469 55.1758 105.469 72.7539 c 2
EndSplineSet
Fore
SplineSet
106 445 m 2
 106 520 104 588 96 645 c 1
 98 648 l 1
 98 648 115 645 149 645 c 0
 184 645 201 648 201 648 c 1
 202 645 l 1
 194 592 192 520 192 445 c 2
 192 200 l 6
 192 125 194 57 202 0 c 5
 200 -3 l 5
 200 -3 183 0 149 0 c 4
 114 0 97 -3 97 -3 c 5
 96 0 l 5
 104 54 106 125 106 200 c 6
 106 445 l 2
EndSplineSet
Validated: 3073
Position2: "'cpsp' Versalabstaende 1" dx=2 dy=0 dh=5 dv=0
Substitution2: "'c2sc' Versale nach Kapitaelchen 1" i.sc
EndChar

StartChar: J
Encoding: 74 74 259
Width: 315
VWidth: 999
Flags: HW
HStem: -173 60<-12.1065 99.8448> 628 20G<130 183 183 236>
VStem: 140 86<-30.1855 642.32>
AnchorPoint: "top_punkt" 181 723 basechar 0
AnchorPoint: "top_akzent" 182 806 basechar 0
LayerCount: 2
Back
SplineSet
139.16 24.4141 m 2
 139.16 431.641 l 2
 139.16 496.582 138.184 518.066 137.207 560.059 c 0
 136.719 613.77 121.094 621.094 41.9922 621.094 c 0
 31.7383 621.094 31.7383 628.418 31.7383 636.23 c 0
 31.7383 642.09 33.6914 648.438 40.0391 648.438 c 0
 47.3633 648.438 126.465 644.531 183.594 644.531 c 0
 242.188 644.531 300.293 648.438 307.617 648.438 c 0
 313.965 648.438 315.43 642.09 315.43 636.23 c 0
 315.43 628.418 315.43 621.094 305.664 621.094 c 0
 247.559 621.094 231.934 613.77 230.957 560.059 c 0
 229.98 518.066 229.004 496.582 229.004 431.641 c 2
 229.004 108.887 l 2
 229.004 -22.9492 176.27 -118.164 64.4531 -169.922 c 0
 32.7148 -184.57 13.6719 -188.965 -7.32422 -188.965 c 0
 -55.1758 -188.965 -75.1953 -159.18 -75.1953 -128.418 c 0
 -75.1953 -103.516 -58.1055 -75.6836 -21.4844 -75.6836 c 0
 22.9492 -75.6836 49.3164 -127.441 80.0781 -127.441 c 0
 109.375 -127.441 139.16 -108.887 139.16 24.4141 c 2
EndSplineSet
Fore
SplineSet
140 95 m 2
 140 445 l 2
 140 520 138 588 130 645 c 1
 132 648 l 1
 132 648 149 645 183 645 c 0
 218 645 235 648 235 648 c 1
 236 645 l 1
 228 592 226 520 226 445 c 2
 226 117 l 2
 226 2.5 216 -27 163 -96 c 24
 121 -150 68 -172 5 -172 c 0
 -14 -172 -32 -168 -40 -163 c 1
 -41 -160 l 1
 -30 -141 -20 -105 -13 -78 c 1
 -2 -77 l 1
 9 -97 27 -112 56 -112 c 0
 135 -112 140 7.02187 140 95 c 2
EndSplineSet
Substitution2: "'ss02' Stilgruppe 2 1" J.alt
Position2: "'cpsp' Versalabstaende 1" dx=2 dy=0 dh=5 dv=0
Substitution2: "'c2sc' Versale nach Kapitaelchen 1" j.sc
EndChar

StartChar: K
Encoding: 75 75 260
Width: 637
VWidth: 999
Flags: W
HStem: -3 21G<96 149 149 202 426 479.5 577.31 585.5> 628 20G<96 149 149 202 440.5 491.5 541 577>
VStem: 106 86<2.67992 642.32>
DStem2: 281 352 197 322 0.662528 -0.749037<0 415.76>
AnchorPoint: "unten_anhang" 148 -1 basechar 0
AnchorPoint: "unten_punkt" 342 -109 basechar 0
AnchorPoint: "top_punkt" 335 719 basechar 0
AnchorPoint: "top_akzent" 336 798 basechar 0
LayerCount: 2
Back
SplineSet
186 347 m 5x3c
 224 349 246 364 267 386 c 6
 435 562 l 6
 462.997 593.108 469.154 612.366 431 616 c 6
 410 618 l 6
 406.019 618.379 402 621 402 626 c 6
 402 645 l 5
 404 646 l 5
 404 646 480 645 520 645 c 4
 555 645 616 646 616 646 c 5
 621 645 l 5
 621 626 l 6
 621 621 616 618 610 618 c 4
 570 613 531 607 485 558 c 6
 345 407 l 6
 312 372 308 365 308 358 c 4
 308 350 311 343 320 333 c 6
 539 73 l 6
 564 42 588.23 32.11 617 28 c 6
 624 27 l 6x3c
 627.96 26.4346 633 24 633 19 c 6x9c
 633 0 l 5x3c
 630 -2 l 5x5c
 630 -2 555 0 516 0 c 4x3c
 480 0 456 -2 456 -2 c 5x9c
 454 0 l 5
 454 6 l 6
 454 24 454 48 434 73 c 6
 271 271 l 6
 250 298 222 309 186 309 c 5
 186 347 l 5x3c
EndSplineSet
Fore
SplineSet
171 339 m 2
 171 345 173 344 176 344 c 0
 180 344 192 346 200 353 c 0
 288 430 396 546 485 648 c 1
 498 645 521 645 534 645 c 0
 549 645 569 645 585 648 c 1
 497 571 349 433 281 354 c 1
 281 352 l 1
 595 -3 l 1
 576 0 552 0 533 0 c 0
 516 0 488 0 471 -3 c 1
 381 108 238 281 197 322 c 0
 191 327 178 329 175 329 c 0
 173 329 171 329 171 332 c 2
 171 339 l 2
EndSplineSet
Refer: 258 73 N 1 0 0 1 0 0 2
Validated: 35845
Position2: "'cpsp' Versalabstaende 1" dx=2 dy=0 dh=5 dv=0
AlternateSubs2: "'aalt' Alle Alternativen zeigen 1" K.alt k.sc
Substitution2: "'ss02' Stilgruppe 2 1" K.alt
Substitution2: "'c2sc' Versale nach Kapitaelchen 1" k.sc
Colour: ff80cc
EndChar

StartChar: L
Encoding: 76 76 261
Width: 526
VWidth: 999
Flags: HW
HStem: 0 54<193.662 416.584> 628 20G<92 146 146 199>
VStem: 103 86<55.2087 642.32>
AnchorPoint: "unten_anhang" 260 1 basechar 0
AnchorPoint: "unten_punkt" 260 -110 basechar 0
AnchorPoint: "top_akzent" 149 804 basechar 0
AnchorPoint: "top_punkt" 148 721 basechar 0
LayerCount: 2
Fore
SplineSet
189 200 m 2
 189 183 190 78 197 54 c 1
 331 54 479 66 479 66 c 1
 481 62 l 1
 480 54 479 39 479 29 c 7
 479 19 480 14 481 0 c 1
 479 -3 l 1
 463 -1 440 0 419 0 c 2
 146 0 l 7
 112 0 94 -3 94 -3 c 1
 93 0 l 1
 101 54 103 125 103 200 c 2
 103 445 l 2
 103 520.008 100 588 92 645 c 1
 94 648 l 1
 94 648 112 645 146 645 c 7
 181 645 198 648 198 648 c 1
 199 645 l 1
 191 592 189 520.005 189 445 c 2
 189 200 l 2
EndSplineSet
Position2: "'cpsp' Versalabstaende 1" dx=2 dy=0 dh=5 dv=0
Substitution2: "'c2sc' Versale nach Kapitaelchen 1" l.sc
EndChar

StartChar: M
Encoding: 77 77 262
Width: 839
Flags: W
HStem: -3 21G<46.5 57.5 111.5 117.486 361.968 453.552 697.173 711.5 787.5 795.5>
AnchorPoint: "unten_anhang" 107 2 basechar 0
AnchorPoint: "unten_punkt" 393 -110 basechar 0
AnchorPoint: "top_akzent" 417 804 basechar 0
AnchorPoint: "top_punkt" 416 721 basechar 0
LayerCount: 2
Back
SplineSet
665 87 m 2
 637 534 l 1
 635 534 l 1
 410 5 l 2
 406 -3 402 -6 396 -6 c 0
 390 -6 383.821 -2.07324 381 5 c 2
 174 524 l 1
 172 524 l 1
 130 86 l 18
 127.231 57.1328 134.712 31.2529 164 29 c 2
 190 27 l 2
 194.985 26.6162 200 24 200 19 c 2
 200 1 l 1
 198 -2 l 1
 198 -2 146 0 106 0 c 0
 71 0 16 -2 16 -2 c 1
 15 0 l 1
 15 19 l 2
 15 24 18.0166 26.5566 24 27 c 2
 51 29 l 2
 81.1862 31.236 89 59 91 86 c 2
 139 574 l 18
 141.839 602.86 134.204 613.71 101 616 c 2
 72 618 l 2
 65.0166 618.481 62 621 62 625 c 2
 62 643 l 1
 65 646 l 1
 212 646 l 1
 417 137 l 2
 420 128 422 124 425 124 c 0
 427 124 429.853 128.062 434 138 c 2
 646 646 l 1
 780 646 l 1
 782 643 l 1
 782 625 l 2
 782 619 773.992 618.222 771 618 c 2
 744 616 l 2
 714.661 613.827 704.164 599.545 706 574 c 10
 741 87 l 2
 743 55 749.143 31.4338 782 29 c 2
 809 27 l 2
 815.98 26.4824 820 24 820 19 c 2
 820 0 l 1
 818 -2 l 1
 818 -2 745 0 706 0 c 0
 670 0 599 -2 599 -2 c 1
 596 0 l 1
 596 19 l 2
 596 24 601.011 26.7041 605 27 c 2
 632 29 l 2
 659.81 31.06 666.625 61.0518 665 87 c 2
1565.43 458.496 m 1
 1592.29 458.496 l 1
 1376.46 -70.8008 l 1
 1349.61 -70.8008 l 1
 1565.43 458.496 l 1
EndSplineSet
Fore
SplineSet
133 662 m 5
 159 662 l 5
 243.356 487.404 330.066 320.799 424.898 146.533 c 5
 703 662 l 5
 725 662 l 5
 753 419 772 214 803 -3 c 5
 788 0 768 0 753 0 c 5
 738 0 719 0 704 -3 c 5
 690.347 162.781 677.646 315.248 658.476 472.949 c 5
 574.609 318.153 490.104 166.677 417 0 c 5
 398 0 l 5
 325.936 152.892 241.544 312.422 160.524 472.126 c 5
 142.613 315.976 117.973 101.108 117 -3 c 5
 106 0 90 0 79 0 c 4
 67 0 52 0 41 -3 c 5
 74 207 112 461 133 662 c 5
EndSplineSet
Validated: 3073
Position2: "'cpsp' Versalabstaende 1" dx=2 dy=0 dh=5 dv=0
Substitution2: "'c2sc' Versale nach Kapitaelchen 1" m.sc
EndChar

StartChar: N
Encoding: 78 78 263
Width: 695
VWidth: 999
Flags: W
HStem: -3 14G<91 127 127 164 577 592> 628 20G<91 144 144 173.45 543 580 580 616>
VStem: 101 53<2.67992 476.582> 553 53<162.883 642.32>
DStem2: 158 647 193 455 0.620566 -0.784154<137.385 609.621>
AnchorPoint: "unten_anhang" 124 -3 basechar 0
AnchorPoint: "unten_punkt" 348 -109 basechar 0
AnchorPoint: "top_akzent" 346 804 basechar 0
AnchorPoint: "top_punkt" 345 721 basechar 0
LayerCount: 2
Back
SplineSet
590 -8 m 5
 605 -8 l 5
 602 52 601 139 601 237 c 6
 601 313 l 6
 601 370 603 434 605 494 c 4
 607 554 610 609 614 647 c 5
 602 646 588 645 577 645 c 4
 567 645 555 646 542 647 c 5
 547 609 551 557 555 500 c 4
 558 443 558 381 558 324 c 6
 558 162 l 5
 557 161 l 5
 554 165 551 169 548 172 c 4
 545 175 542 178 540 181 c 4
 479 241 400 322 320 408 c 4
 241 493 159 580 94 655 c 5
 79 655 l 5
 79 632 80 593 81 544 c 4
 81 496 82 439 82 379 c 6
 82 332 l 6
 82 275 82 211 80 151 c 4
 79 91 75 36 70 -2 c 5
 82 -1 97 0 107 0 c 4
 117 0 132 -1 142 -2 c 5
 135 36 133 91 130 151 c 4
 126 211 125 275 125 332 c 6
 125 491 l 5
 128 492 l 5
 134 484 140 476 147 470 c 4
 230 386 319 294 397 211 c 4
 475 126 544 48 590 -8 c 5
EndSplineSet
Fore
SplineSet
101 445 m 18
 101 520 99 588 91 645 c 1
 93 648 l 1
 93 648 110 645 144 645 c 1
 148.5 645 158 647 158 647 c 1
 501 203 l 2
 544.323 146.92 553 123.553 553 178 c 10
 553 445 l 6
 553 520 551 588 543 645 c 5
 545 648 l 5
 545 648 555.667 645 580 645 c 4
 602.333 645 615 648 615 648 c 5
 616 645 l 5
 608 592 606 520 606 445 c 6
 606 21 l 2
 606 2 599 -10 585 -10 c 0
 569 -10 553 -1 542 14 c 2
 193 455 l 2
 155.887 503.029 154 499.961 154 439 c 2
 154 200 l 6
 154 125 156 57 164 0 c 5
 162 -3 l 5
 162 -3 151.333 0 127 0 c 4
 104.667 0 92 -3 92 -3 c 5
 91 0 l 5
 99 53 101 125 101 200 c 6
 101 445 l 18
EndSplineSet
Validated: 3105
Position2: "'cpsp' Versalabstaende 1" dx=2 dy=0 dh=5 dv=0
Substitution2: "'c2sc' Versale nach Kapitaelchen 1" n.sc
EndChar

StartChar: O
Encoding: 79 79 264
Width: 721
VWidth: 999
Flags: W
HStem: -10 44<287.518 460.882> 614 44<261.342 446.336>
VStem: 42 103<199.871 439.073> 576 103<198.639 454.348>
AnchorPoint: "unten_anhang" 361 0 basechar 0
AnchorPoint: "unten_punkt" 361 -113 basechar 0
AnchorPoint: "top_akzent" 366 804 basechar 0
AnchorPoint: "top_punkt" 365 721 basechar 0
LayerCount: 2
Back
SplineSet
60.0586 657.715 m 29
 584.473 657.715 l 29
563.477 566.406 m 0
 629.395 499.023 659.668 426.27 659.668 324.707 c 0
 659.668 233.887 630.371 155.762 571.289 87.4023 c 0
 510.742 17.5781 439.453 -12.207 355.469 -12.207 c 0
 270.02 -12.207 186.035 20.5078 129.883 76.6602 c 0
 65.918 141.113 34.1797 214.844 34.1797 318.359 c 0
 34.1797 377.441 42.4805 476.074 136.23 569.824 c 0
 195.801 629.883 263.672 657.227 343.75 657.227 c 0
 436.523 657.227 501.953 628.906 563.477 566.406 c 0
331.055 622.559 m 0
 273.926 622.559 228.516 601.562 190.43 555.176 c 0
 145.996 500.977 124.023 433.594 124.023 327.148 c 0
 124.023 227.539 145.508 147.949 214.844 78.6133 c 0
 243.164 50.7812 289.062 20.5078 353.516 20.5078 c 0
 416.992 20.5078 468.75 41.9922 508.789 90.332 c 0
 547.852 137.695 566.895 200.684 566.895 305.176 c 0
 566.895 409.18 549.316 490.723 479.98 560.059 c 0
 435.547 604.492 389.648 622.559 331.055 622.559 c 0
EndSplineSet
Fore
SplineSet
679 329 m 7
 679 129 550 -10 359 -10 c 7
 187 -10 42 113 42 310 c 7
 42 506 179 658 358 658 c 7
 538 658 679 527 679 329 c 7
345 614 m 7
 249 614 145 537 145 327 c 7
 145 135 259 34 379 34 c 7
 493 34 576 131 576 310 c 7
 576 518 486 614 345 614 c 7
EndSplineSet
Position2: "'cpsp' Versalabstaende 1" dx=2 dy=0 dh=5 dv=0
Substitution2: "'c2sc' Versale nach Kapitaelchen 1" o.sc
EndChar

StartChar: P
Encoding: 80 80 265
Width: 522
VWidth: 999
Flags: HW
HStem: -3 21G<93 146 146 199> 282 34<189.825 339.655> 618 34<171.719 345.938>
VStem: 103 86<2.67992 292 319.76 608.938> 401 97<393.808 563.368>
AnchorPoint: "unten_anhang" 150 -3 basechar 0
AnchorPoint: "unten_punkt" 240 -110 basechar 0
AnchorPoint: "top_akzent" 277 803 basechar 0
AnchorPoint: "top_punkt" 276 720 basechar 0
LayerCount: 2
Back
SplineSet
105.957 71.2891 m 2xdc
 105.957 573.73 l 2
 105.957 605.957 79.1016 619.141 61.5234 619.141 c 0
 53.2227 619.141 28.8086 617.188 24.9023 617.188 c 0
 18.0664 617.188 17.0898 621.094 17.0898 624.023 c 2
 17.0898 644.531 l 1xec
 20.0195 646.484 l 1
 38.0859 646.973 92.9912 647.109 138.672 649.414 c 0
 190.43 652.344 250.488 653.809 276.367 653.809 c 0
 461.426 653.809 497.07 544.922 497.07 485.84 c 0
 497.07 401.367 445.312 281.738 263.184 281.738 c 0
 227.539 281.738 209.473 284.668 186.523 291.992 c 1
 186.523 71.2891 l 2
 186.523 40.5273 201.66 27.832 241.211 27.832 c 2
 267.578 27.832 l 2
 271.973 27.832 275.879 24.9023 275.879 19.5312 c 2
 275.879 0.976562 l 1
 273.926 -0.976562 l 1
 273.926 -0.976562 187.012 0.976562 147.949 0.976562 c 0
 112.305 0.976562 19.043 -0.976562 19.043 -0.976562 c 1
 17.0898 0.976562 l 1
 17.0898 19.5312 l 2
 17.0898 24.9023 20.0195 27.832 24.9023 27.832 c 2
 51.2695 27.832 l 2
 92.2852 27.832 105.957 43.457 105.957 71.2891 c 2xdc
186.523 573.73 m 2
 186.523 319.824 l 1
 197.754 317.383 233.398 314.941 257.812 314.941 c 0
 355.469 314.941 411.621 360.352 411.621 468.262 c 0
 411.621 594.727 337.891 619.629 268.555 619.629 c 0xdc
 197.266 619.629 186.523 603.027 186.523 573.73 c 2
-125.977 644.531 m 1
 781.25 644.531 l 1
EndSplineSet
Fore
SplineSet
103 445 m 6
 103 520 101 588 93 645 c 5
 95 648 l 5
 95 648 112 645 146 645 c 7
 176 645 250 652 276 652 c 7
 461 652 498 545 498 486 c 7
 498 401 445 282 263 282 c 7
 228 282 211 285 189 292 c 5
 189 200 l 6
 189 125 191 57 199 0 c 5
 197 -3 l 5
 197 -3 180 0 146 0 c 7
 111 0 94 -3 94 -3 c 5
 93 0 l 5
 101 54 103 124.999 103 200 c 6
 103 445 l 6
189 574 m 6
 189 326 l 5
 202 319 233 316 258 316 c 7
 355 316 401 360 401 468 c 7
 401 595 338 618 269 618 c 7
 197 618 189 603 189 574 c 6
EndSplineSet
Position2: "'cpsp' Versalabstaende 1" dx=2 dy=0 dh=5 dv=0
Substitution2: "'c2sc' Versale nach Kapitaelchen 1" p.sc
EndChar

StartChar: Q
Encoding: 81 81 266
Width: 721
VWidth: 999
Flags: HW
HStem: -10 44<287.518 460.882> 614 44<261.342 446.336>
VStem: 42 103<199.871 439.073> 576 103<198.639 454.348>
AnchorPoint: "top_akzent" 348 803 basechar 0
AnchorPoint: "top_punkt" 346 720 basechar 0
LayerCount: 2
Back
SplineSet
422 -2 m 5xde
 371 -13 256 -62 178 -173 c 5
 139 -153 l 5
 188 -82 305 13 413 28 c 5
 422 -2 l 5xde
139 -153 m 5
 171 -98 253 -70 298 -70 c 4
 408 -70 489 -152 577 -152 c 4
 606 -152 642 -142 664 -115 c 5
 681 -127 l 5
 642 -183 600 -209 537 -209 c 4
 407 -209 344 -114 251 -114 c 4
 236 -114 198 -127 178 -173 c 5
 139 -153 l 5
60.0586 657.715 m 25
 584.473 657.715 l 25
EndSplineSet
Fore
SplineSet
532 59 m 5
 590.06 30.6455 677.804 -35.4014 800 -77 c 5
 800 -83 l 5
 764 -102 725 -125 706 -140 c 5
 593.525 -76.0938 604.013 -59.1836 467.5 12.1211 c 5
 532 59 l 5
EndSplineSet
Refer: 264 79 N 1 0 0 1 0 0 3
Position2: "'cpsp' Versalabstaende 1" dx=2 dy=0 dh=5 dv=0
Substitution2: "'c2sc' Versale nach Kapitaelchen 1" q.sc
Colour: ff80cc
EndChar

StartChar: R
Encoding: 82 82 267
Width: 579
VWidth: 999
Flags: HW
HStem: -3 21G<93 146 146 199 441.5 456.5 557 569> 286 44<189 295.962> 613 39<171.299 352.344>
VStem: 103 86<2.67992 286 330 603.161> 401 97<391.218 564.52>
AnchorPoint: "unten_anhang" 148 -1 basechar 0
AnchorPoint: "unten_punkt" 258 -111 basechar 0
AnchorPoint: "top_akzent" 269 808 basechar 0
AnchorPoint: "top_punkt" 268 725 basechar 0
LayerCount: 2
Back
SplineSet
609 18 m 5xbc
 605 -8 l 5
 593 -8 582 -8 570 -7 c 4
 495 -3 453 19 408 84 c 4xbc
 373 133 337 195 307 244 c 4
 290 272 273 284 221 284 c 6
 189 284 l 5
 189 125 l 6
 189 40 198 34 278 28 c 5
 278 0 l 5
 15 0 l 5
 15 28 l 5
 97 34 106 40 106 125 c 6x7c
 106 527 l 6
 106 612 98 615 20 622 c 5
 20 650 l 5
 268 650 l 6
 341 650 390 641 428 616 c 4
 468 590 494 545 494 485 c 4
 494 399 441 346 367 314 c 5
 384 281 426 214 456 169 c 4
 492 117 512 91 537 65 c 4
 564 35 587 24 609 18 c 5xbc
189 317 m 5
 237 317 l 6
 288 317 321 325 346 345 c 4
 385 375 401 415 401 469 c 4
 401 577 330 617 254 617 c 4
 225 617 208 613 200 607 c 4
 193 602 189 590 189 563 c 6
 189 317 l 5
EndSplineSet
Fore
SplineSet
339 314 m 1
 401 235 516 60 569 0 c 1
 567 -3 l 1
 547 0 535 0 515 0 c 3
 496 0 466 0 447 -3 c 1
 436 31 390 104 340 176 c 0
 309 220 276 265 243 300 c 1
 339 314 l 1
189 286 m 1
 189 200 l 2
 189 125 191 57 199 0 c 1
 197 -3 l 1
 197 -3 180 0 146 0 c 3
 111 0 94 -3 94 -3 c 1
 93 0 l 1
 101 54 103 125 103 200 c 2
 103 445 l 2
 103 520 101 588 93 645 c 1
 95 648 l 1
 95 648 112 645 146 645 c 3
 176 645 246 652 271 652 c 3
 334 652 397 649 445 604 c 0
 481 570 498 529 498 479 c 3
 498 397 452 345 398 318 c 0
 363 300 314 286 189 286 c 1
272 613 m 3
 201 613 189 598 189 569 c 2
 189 330 l 1
 237 330 l 2
 334 330 401 353 401 478 c 3
 401 596 333 613 272 613 c 3
EndSplineSet
Position2: "'cpsp' Versalabstaende 1" dx=2 dy=0 dh=5 dv=0
AlternateSubs2: "'aalt' Alle Alternativen zeigen 1" R.alt r.sc
Substitution2: "'ss02' Stilgruppe 2 1" R.alt
Substitution2: "'c2sc' Versale nach Kapitaelchen 1" r.sc
EndChar

StartChar: S
Encoding: 83 83 268
Width: 480
VWidth: 999
Flags: HW
HStem: -10 43<144.783 306.652> 618 40<169.749 308.002>
VStem: 54 74<450.242 564.087> 354 85<107.526 231.282>
AnchorPoint: "unten_anhang" 217 2 basechar 0
AnchorPoint: "unten_punkt" 237 -111 basechar 0
AnchorPoint: "top_akzent" 255 803 basechar 0
AnchorPoint: "top_punkt" 254 720 basechar 0
LayerCount: 2
Back
SplineSet
60 121 m 5xd8
 72 121 l 5xd8
 92 76 140 23 221 23 c 4
 304 23 355 84 355 159 c 4
 355 333 58 258 58 480 c 4
 58 584 138 658 263 658 c 4
 322 658 365 644 403 614 c 5
 391 592 385 570 377 535 c 5
 366 535 l 5
 353 569 324 623 254 623 c 4
 183 623 132 575 132 506 c 4xe8
 132 330 429 403 429 195 c 4
 429 80 343 -17 198 -17 c 4
 120 -17 75 10 42 37 c 5
 54 66 57 85 60 121 c 5xd8
EndSplineSet
Fore
SplineSet
229 33 m 3
 297 33 354 70 354 151 c 3
 354 239 307 265 246 289 c 0
 155 324 54 373 54 485 c 3
 54 591 157 658 244 658 c 3
 366 658 402 613 402 613 c 1
 404 610 l 1
 395 580 388 550 384 514 c 1
 374 513 l 1
 346 575 307 618 235 618 c 3
 169 618 128 573 128 512 c 3
 128 429 219 394 261 379 c 0
 345 349 439 302 439 186 c 3
 439 84 335 -10 220 -10 c 3
 98 -10 39 35 39 35 c 1
 37 38 l 1
 45 68 53 100 57 136 c 1
 67 137 l 1
 95 75 157 33 229 33 c 3
EndSplineSet
Position2: "'cpsp' Versalabstaende 1" dx=2 dy=0 dh=5 dv=0
Substitution2: "'c2sc' Versale nach Kapitaelchen 1" s.sc
EndChar

StartChar: T
Encoding: 84 84 269
Width: 540
VWidth: 999
Flags: HW
HStem: -3 21G<217 270 270 323> 574 21G<15 219 321 525> 586 59<17.7551 222.338 317.662 522.245>
VStem: 227 86<2.67992 584.82>
AnchorPoint: "unten_anhang" 266 1 basechar 0
AnchorPoint: "unten_punkt" 273 -107 basechar 0
AnchorPoint: "top_akzent" 270 803 basechar 0
AnchorPoint: "top_punkt" 268 720 basechar 0
LayerCount: 2
Back
SplineSet
340 518 m 2
 340 545 340 597 343 637 c 1
 427 637 511.761 630.172 553 623 c 1
 552 630 552 635 552 640 c 2
 552 665 l 2
 552 669 552 675 553 682 c 1
 534.271 680.752 440.2 678 365 678 c 2
 229 678 l 2
 206 678 183 678 160 679 c 0
 114 679 70 681 41 682 c 1
 42 675 42 669 42 665 c 2
 42 640 l 2
 42 635 42 630 41 623 c 1
 82.2393 630.172 167 637 251 637 c 1
 254 598 254 546 254 518 c 2
EndSplineSet
Fore
SplineSet
227 445 m 2xb0
 227 462 226 562 219 586 c 1xb0
 85 586 17 574 17 574 c 1xd0
 15 578 l 1
 17 593 17 617 15 645 c 1
 17 648 l 1
 33 646 56 645 77 645 c 2
 463 645 l 2
 484 645 507 646 523 648 c 1
 525 645 l 1xb0
 523 617 523 593 525 578 c 1
 523 574 l 1xd0
 523 574 455 586 321 586 c 1
 314 562 313 462 313 445 c 2
 313 200 l 2
 313 125 315 57 323 0 c 1
 321 -3 l 1
 321 -3 304 0 270 0 c 7
 235 0 218 -3 218 -3 c 1
 217 0 l 1
 225 54 227 125 227 200 c 2
 227 445 l 2xb0
EndSplineSet
Position2: "'cpsp' Versalabstaende 1" dx=2 dy=0 dh=5 dv=0
Substitution2: "'c2sc' Versale nach Kapitaelchen 1" t.sc
EndChar

StartChar: U
Encoding: 85 85 270
Width: 661
VWidth: 999
Flags: W
HStem: -10 51<254.999 440.968> 628 20G<76 129 129 182 511 548 548 584>
VStem: 86 86<139.485 642.32> 521 53<134.498 642.32>
AnchorPoint: "unten_anhang" 328 4 basechar 0
AnchorPoint: "unten_punkt" 328 -109 basechar 0
AnchorPoint: "top_akzent" 346 805 basechar 0
AnchorPoint: "top_punkt" 345 722 basechar 0
LayerCount: 2
Back
SplineSet
-46.875 0.976562 m 1
 990.234 0.976562 l 1
741.699 27.832 m 2
 768.066 27.832 l 2
 772.461 27.832 776.367 24.9023 776.367 19.5312 c 2
 776.367 0.976562 l 1
 774.414 -0.976562 l 1
 19.5312 -0.976562 l 1
 17.5781 0.976562 l 1
 17.5781 19.5312 l 2
 17.5781 24.9023 20.5078 27.832 25.3906 27.832 c 2
 51.7578 27.832 l 2
 92.7734 27.832 702.148 27.832 741.699 27.832 c 2
681.152 646.484 m 1
 683.105 644.531 l 1
 683.105 625.977 l 2
 683.105 620.605 680.176 617.676 675.293 617.676 c 2
 648.926 617.676 l 2
 607.91 617.676 70.8008 617.676 31.25 617.676 c 6
 4.88281 617.676 l 6
 0.488281 617.676 -3.41797 620.605 -3.41797 625.977 c 6
 -3.41797 644.531 l 5
 -1.46484 646.484 l 5
 681.152 646.484 l 1
-104.98 644.531 m 1
 802.246 644.531 l 1
EndSplineSet
Fore
SplineSet
521 445 m 2
 521 520 519 588 511 645 c 1
 513 648 l 1
 513 648 523.667 645 548 645 c 7
 570.333 645 583 648 583 648 c 1
 584 645 l 1
 576 592 574 520 574 445 c 2
 574 295 l 2
 574 117 526 -10 321 -10 c 7
 231 -10 86 32 86 236 c 2
 86 445 l 2
 86 520 84 588 76 645 c 1
 78 648 l 1
 78 648 95 645 129 645 c 7
 164 645 181 648 181 648 c 1
 182 645 l 1
 174 592 172 520 172 445 c 2
 172 269 l 2
 172 215.013 174 41 342 41 c 7
 511 41 521 165 521 277 c 2
 521 445 l 2
EndSplineSet
Position2: "'cpsp' Versalabstaende 1" dx=2 dy=0 dh=5 dv=0
Substitution2: "'c2sc' Versale nach Kapitaelchen 1" u.sc
EndChar

StartChar: V
Encoding: 86 86 271
Width: 631
Flags: HW
HStem: -10 21G<244 366> 628 20G<24.5 41 122.5 135.937 510.821 534 562.5 607>
AnchorPoint: "unten_anhang" 303 3 basechar 0
AnchorPoint: "unten_punkt" 303 -108 basechar 0
AnchorPoint: "top_akzent" 331 805 basechar 0
AnchorPoint: "top_punkt" 329 722 basechar 0
LayerCount: 2
Back
SplineSet
484.162 565 m 6
 497.79 603.253 477.084 614.682 440 617 c 6
 424 618 l 6
 420.006 618.222 416 621 416 626 c 6
 416 645 l 5
 418 646 l 5
 418 646 489 645 528 645 c 4
 563 645 620 646 620 646 c 5
 622 645 l 5
 622 626 l 6
 622 621 618.993 618.271 614 618 c 4
 558.667 615 541.737 587.723 528.5 552.5 c 6
 325 11 l 6
 319.342 -4.13086 312 -12 301 -12 c 4
 291 -12 283.31 -3.89355 278 11 c 6
 83.7041 556 l 6
 68.7268 598.011 60.5 613.5 8 618 c 4
 4.01462 618.342 0 621 0 626 c 6
 0 645 l 5
 2 646 l 5
 2 646 80 645 119 645 c 4
 154 645 233 646 233 646 c 5
 235 645 l 5
 235 626 l 6
 235 621 231.966 618.584 227 618 c 6
 210 616 l 6
 162.655 610.43 155.487 601.942 166 572 c 6
 323.5 127 l 5
 328.125 127 l 5
 484.162 565 l 6
EndSplineSet
Fore
SplineSet
323.992 132.252 m 1
 395.684 298.297 493.642 519.404 528 648 c 1
 540 645 567 645 578 645 c 7
 589 645 601 645 613 648 c 1
 512 427 414 212 318 -10 c 1
 290 -10 l 1
 198 209 66 547 16 648 c 1
 33 645 59 645 76 645 c 7
 93 645 114 645 131 648 c 1
 140.873 613.443 190.77 436.012 321.991 132.252 c 1
 323.992 132.252 l 1
EndSplineSet
Position2: "'cpsp' Versalabstaende 1" dx=2 dy=0 dh=5 dv=0
Substitution2: "'c2sc' Versale nach Kapitaelchen 1" v.sc
AlternateSubs2: "'aalt' Alle Alternativen zeigen 1" V.alt
EndChar

StartChar: W
Encoding: 87 87 272
Width: 951
Flags: HW
HStem: -10 21G<244 326.967 564 686> 628 20G<24.5 41 117.5 131 344.5 361 442.5 456 831 854 882.5 927>
AnchorPoint: "unten_anhang" 295 0 basechar 0
AnchorPoint: "unten_punkt" 449 -107 basechar 0
AnchorPoint: "top_akzent" 430 805 basechar 0
AnchorPoint: "top_punkt" 429 722 basechar 0
LayerCount: 2
Back
SplineSet
785.495 565.001 m 6
 798.16 603.583 778.417 614.684 741.333 617.001 c 6
 725.333 618.001 l 6
 721.339 618.223 717.333 621.001 717.333 626.001 c 6
 717.333 645.001 l 5
 719.333 646.001 l 5
 719.333 646.001 790.333 645.001 829.333 645.001 c 4
 864.333 645.001 921.333 646.001 921.333 646.001 c 5
 923.333 645.001 l 5
 923.333 626.001 l 6
 923.333 621.001 920.325 618.271 915.333 618.001 c 4
 860 615.001 841.866 588.153 829.833 552.501 c 6
 643 11 l 6
 637.92 -3.72363 630 -12 616 -12 c 4
 603 -12 591 -5 585 12 c 6
 468 367 l 22
 463 381 458 395 454 395 c 4
 449 395 443.99 382.004 440 370 c 14
 321 12 l 6
 317 -2 307 -12 293 -12 c 4
 278 -12 267.422 -4.20508 262 12 c 6
 80.1514 555.5 l 6
 62.4639 608.95 56.7257 614.537 12 618 c 4
 5.02075 618.54 0 621 0 625 c 6
 0 644 l 5
 2 646 l 5
 2 646 54 645 92 645 c 4
 143 645 213 646 213 646 c 5
 215 644 l 5
 215 626 l 6
 215 621 211.994 618.272 206 618 c 6
 184 617 l 6
 164.586 616.118 156 611 156 598 c 4
 156 591 158.367 583.127 162 572 c 6
 312.5 111 l 5
 314 111 l 5
 420 442 l 6
 424 454 427 467 427 480 c 4
 427 489 426 498 422 508 c 6
 406.906 554 l 6
 398.753 578.847 385.75 615 333 618 c 4
 326.011 618.397 321 621 321 625 c 6
 321 644 l 5
 323 646 l 5
 323 646 379 645 419 645 c 4
 468 645 547 646 547 646 c 5
 550 644 l 5
 550 625 l 6
 550 620 544.991 618.275 541 618 c 6
 512 616 l 6
 485.891 614.199 476.332 596.237 490 554 c 6
 634 109 l 5
 636 109 l 5
 785.495 565.001 l 6
EndSplineSet
Fore
SplineSet
494.904 384.585 m 1
 318 -10 l 1
 290 -10 l 1
 198 209 66 547 16 648 c 1
 33 645 59 645 76 645 c 7
 93 645 109 645 126 648 c 1
 136 613 188 434 323 123 c 1
 325 123 l 1
 368.851 224.71 423.459 348.677 467.363 459.656 c 1
 495.545 530.896 494.904 384.585 494.904 384.585 c 1
644 132 m 1
 716 298 814 519 848 648 c 1
 860 645 887 645 898 645 c 7
 909 645 921 645 933 648 c 1
 832 427 734 212 638 -10 c 1
 610 -10 l 1
 518 209 386 547 336 648 c 1
 353 645 379 645 396 645 c 7
 413 645 434 645 451 648 c 1
 461 613 511 436 642 132 c 1
 644 132 l 1
EndSplineSet
Position2: "'cpsp' Versalabstaende 1" dx=2 dy=0 dh=5 dv=0
Substitution2: "'c2sc' Versale nach Kapitaelchen 1" w.sc
AlternateSubs2: "'aalt' Alle Alternativen zeigen 1" W.alt
EndChar

StartChar: X
Encoding: 88 88 273
Width: 571
Flags: MW
HStem: -2 28<4 61 169 190 398 420 570 617> 586 27<411 444 538 597>
DStem2: 122 99 155 73 0.593199 0.805056<-35.2356 230.04 328.87 586.289> 191 543 249 326 0.578967 -0.815351<-35.4928 216.477 291.97 559.314>
AnchorPoint: "unten_anhang" 97 0 basechar 0
AnchorPoint: "unten_punkt" 307 -107 basechar 0
AnchorPoint: "top_akzent" 332 805 basechar 0
AnchorPoint: "top_punkt" 331 722 basechar 0
LayerCount: 2
Back
SplineSet
13 625 m 2
 13 644 l 1
 17 646 l 1
 17 646 108 645 119 645 c 4
 124 645 239 646 239 646 c 1
 239 646 242 644 243 644 c 1
 243 625 l 2
 243 620 240.656 618.166 238 618 c 2
 206 616 l 2
 173.471 613.967 181.611 599.144 201 572 c 2
 320 396 l 2
 325 389 329 385 332 385 c 0
 335 385 339 389 345 397 c 2
 474 572 l 2
 492.282 597.595 497.436 614.038 468 616 c 2
 438 618 l 2
 434.009 618.266 431 620 431 625 c 2
 431 645 l 1
 433 646 l 1
 433 646 521 645 532 645 c 0
 537 645 629 646 629 646 c 1
 632 645 l 1
 632 625 l 2
 632 622 630.996 618.264 623 618 c 0
 562.5 616 540 588 513 552 c 2
 382 375 l 2
 373 363 369 354 369 345 c 0
 369 335 375 325 385 312 c 2
 539 102 l 2
 566 63 600.5 30 645 27 c 0
 649.989 26.6637 652 23 652 20 c 2
 652 0 l 1
 650 -2 l 1
 623 -1 557 0 545 0 c 0
 539 0 420 -2 420 -2 c 1
 417 0 l 1
 417 20 l 2
 417 24 419.02 26.6016 423 27 c 2
 443 29 l 2
 483.099 33.0099 480.911 39.0298 456 73 c 2
 324 261 l 2
 318 269 314 272 310 272 c 0
 307 272 301 266 295 258 c 2
 163 77 l 2
 146.389 53.0062 138.881 33.1178 178 29 c 2
 197 27 l 2
 202.07 26.4658 203 23 203 20 c 2
 203 0 l 1
 200 -2 l 1
 200 -2 103 0 88 0 c 0
 83 0 4 -2 4 -2 c 1
 3 0 l 1
 3 20 l 2
 3 25 8.00801 26.6901 14 27 c 0
 72 30 107 74 129 104 c 2
 266 291 l 2
 272 299 276 308 276 314 c 0
 276 324 271 333 262 344 c 2
 118 549 l 2
 77 607 46.5 615 29 618 c 0
 19.1438 619.69 13 621 13 625 c 2
966.577 92.5117 m 10
 1311.04 595.884 l 18
 1317.25 604.761 1321.54 611.567 1323.91 616.304 c 0
 1328.05 623.994 1328.65 630.361 1325.68 635.391 c 0
 1323.91 638.354 1316.66 639.976 1303.94 640.273 c 2
 1272.42 640.718 l 2
 1270.94 640.718 1270.35 642.192 1270.64 645.156 c 2
 1270.64 660.693 l 1
 1363.86 658.472 l 0
 1454.86 660.693 l 1
 1454.86 645.601 l 2
 1454.86 642.349 1451.89 640.718 1445.98 640.718 c 2
 1422.01 640.273 l 2
 1409.28 639.976 1399.96 638.354 1394.04 635.391 c 0
 1383.69 630.063 1375.7 623.706 1370.07 616.304 c 0
 1365.63 610.679 1360.75 603.877 1355.42 595.884 c 10
 1010.97 92.5117 l 18
 1004.75 82.7461 1004.75 82.7461 998.091 72.0928 c 0
 993.95 64.6934 993.354 58.332 996.318 53.0049 c 0
 998.389 50.0449 1005.64 48.418 1018.07 48.1221 c 2
 1050.91 47.6777 l 2
 1052.39 47.6777 1053.13 46.0508 1053.13 42.7949 c 2
 1053.13 27.7031 l 1
 948.818 29.9229 l 0
 869.805 27.7031 l 1
 869.805 43.2393 l 2
 869.805 46.1982 872.471 47.6777 877.798 47.6777 c 2
 899.99 48.1221 l 2
 913.013 48.418 922.334 50.0449 927.959 53.0049 c 0
 937.427 57.4443 945.415 63.8066 951.929 72.0928 c 0
 954.888 75.6426 959.771 82.4492 966.577 92.5117 c 10
1303.49 90.7354 m 10
 953.257 598.55 l 18
 947.046 607.427 942.012 614.229 938.164 618.965 c 0
 931.064 627.256 922.925 633.613 913.75 638.057 c 0
 907.832 641.016 898.364 642.637 885.342 642.939 c 2
 868.477 643.379 l 2
 862.852 643.379 860.19 644.858 860.483 647.822 c 2
 860.483 663.354 l 1
 965.688 661.138 l 0
 1082.88 663.354 l 1
 1082.43 648.262 l 2
 1082.43 645.01 1081.84 643.379 1080.65 643.379 c 2
 1042.48 642.939 l 2
 1030.05 642.939 1022.95 641.309 1021.17 638.057 c 0
 1017.92 632.729 1018.66 626.367 1023.39 618.965 c 0
 1026.65 613.34 1031.09 606.538 1036.71 598.55 c 2
 1386.5 90.7354 l 2
 1393.15 81.4141 1393.15 81.4141 1401.59 70.3164 c 0
 1407.21 62.918 1415.35 56.5557 1426 51.2285 c 0
 1431.92 48.2705 1441.39 46.6426 1454.41 46.3457 c 2
 1475.27 45.9023 l 2
 1481.19 45.9023 1484.16 44.2744 1484.16 41.0195 c 2
 1483.71 25.9277 l 1
 1380.73 28.1465 l 0
 1261.32 25.9277 l 1
 1260.87 41.4629 l 2
 1260.87 44.4229 1261.62 45.9023 1263.1 45.9023 c 2
 1297.72 46.3457 l 2
 1310.15 46.6426 1317.25 48.2705 1319.02 51.2285 c 0
 1321.99 56.2598 1321.25 62.623 1316.81 70.3164 c 0
 1315.03 73.5723 1310.59 80.3779 1303.49 90.7354 c 10
EndSplineSet
Fore
SplineSet
107 -3 m 1
 96 0 77 0 65 0 c 3
 54 0 34 0 23 -3 c 1
 356.769 492.319 364.05 481.677 454 648 c 1
 465 645 485 645 496 645 c 3
 507 645 527 645 538 648 c 1
 461.591 540.382 263.531 285.98 107 -3 c 1
554 -3 m 1
 536 0 514 0 496 0 c 3
 478 0 456 0 438 -3 c 1
 333.261 198.1 262 321 48 648 c 1
 65 645 87 645 104 645 c 3
 121 645 143 645 161 648 c 1
 212.976 540.245 312.102 389.535 554 -3 c 1
EndSplineSet
Position2: "'cpsp' Versalabstaende 1" dx=2 dy=0 dh=5 dv=0
Substitution2: "'c2sc' Versale nach Kapitaelchen 1" x.sc
EndChar

StartChar: Y
Encoding: 89 89 274
Width: 591
Flags: HW
HStem: -3 21G<242.42 247 334 339.566> 628 20G<24.5 36 121.5 157.5 454.375 486 503.5 557.5>
AnchorPoint: "unten_anhang" 295 1 basechar 0
AnchorPoint: "unten_punkt" 295 -109 basechar 0
AnchorPoint: "top_akzent" 295 805 basechar 0
AnchorPoint: "top_punkt" 293 722 basechar 0
LayerCount: 2
Back
SplineSet
254 72 m 6
 254 259 l 6
 254 269.667 250.808 292.502 245.49 301.667 c 6
 99.6655 547 l 6
 68.0469 600.194 57.8897 614.009 22 617 c 6
 10 618 l 6
 7.01074 618.249 0 619 0 625 c 6
 0 645 l 5
 1 646 l 5
 1 646 94 645 107 645 c 4
 113 645 222 646 222 646 c 5
 223 645 l 5
 223 626 l 6
 223 622 220.998 618.138 217 618 c 6
 188 617 l 6
 152.709 615.783 160.005 602.379 175 576 c 6
 312 335 l 5
 314 335 l 5
 442 576 l 6
 458.712 607.466 450.4 614.507 428 616 c 6
 398 618 l 6
 394.009 618.266 393 622 393 625 c 6
 393 645 l 5
 394 646 l 5
 394 646 473 645 486 645 c 4
 495 645 573 646 573 646 c 5
 575 645 l 5
 575 625 l 6
 575 620 570.973 618.568 565 618 c 6
 544 616 l 6
 508.725 612.64 498.565 594.556 482.228 565 c 6
 341.265 310 l 6
 335.506 299.433 334 286 334 267.667 c 6
 334 72 l 6
 334 41 350 27 389 27 c 6
 416 27 l 6
 420 27 424 24 424 19 c 6
 424 0 l 5
 422 -2 l 5
 422 -2 335 0 296 0 c 4
 260 0 167 -2 167 -2 c 5
 165 0 l 5
 165 19 l 6
 165 24 168 27 173 27 c 6
 199 27 l 6
 240 27 254 44 254 72 c 6
EndSplineSet
Fore
SplineSet
246 275 m 1
 208 340 56 588 16 648 c 1
 33 645 56 645 73 645 c 7
 90 645 113 645 130 648 c 1
 185 540 245 444 310 332 c 1
 246 275 l 1
302.558 336 m 1
 360.986 427.629 428.75 541.557 480 648 c 1
 492 645 509 645 522 645 c 7
 534 645 551 645 564 648 c 1
 443 463 375 365 334 285 c 1
 302.558 336 l 1
334.007 338.5 m 1
 334.161 246.335 337.133 54.4287 342 -3 c 1
 326 0 305 0 290 0 c 7
 275 0 255 0 239 -3 c 1
 245.84 63.4434 245.996 229.527 246 329 c 1
 334.007 338.5 l 1
EndSplineSet
Position2: "'cpsp' Versalabstaende 1" dx=2 dy=0 dh=5 dv=0
Substitution2: "'c2sc' Versale nach Kapitaelchen 1" y.sc
EndChar

StartChar: Z
Encoding: 90 90 275
Width: 604
VWidth: 999
Flags: W
HStem: 0 65<342.812 567> 0 54<167 384.097> 580 65<60 285.715> 591 54<216.239 431.922>
DStem2: 49 38 172 72 0.583231 0.812307<82.0079 674.465>
AnchorPoint: "unten_anhang" 287 4 basechar 0
AnchorPoint: "unten_punkt" 287 -107 basechar 0
AnchorPoint: "top_akzent" 320 803 basechar 0
AnchorPoint: "top_punkt" 319 720 basechar 0
LayerCount: 2
Back
SplineSet
53.9551 657.715 m 5
 90.8203 655.029 87.4023 645.508 134.766 645.508 c 6
 485.352 645.508 l 21
 516.113 648.926 535.645 650.391 548.34 650.391 c 4
 567.383 650.391 570.312 646.973 570.312 639.648 c 4
 570.312 628.906 566.895 618.652 546.875 590.82 c 6
 172.363 71.7773 l 6
 166.504 63.4766 163.574 56.6406 163.574 51.7578 c 4
 163.574 42.9688 172.363 39.0625 188.965 39.0625 c 6
 431.641 39.0625 l 6
 511.719 39.0625 546.387 143.066 552.734 176.758 c 5
 579.59 174.316 l 5
 551.27 0 l 5
 59.5703 0 l 6
 45.8984 0 40.5273 5.37109 40.5273 14.6484 c 4
 40.5273 22.4609 43.457 30.2734 49.3164 38.0859 c 6
 437.5 578.613 l 6
 443.359 586.426 446.289 593.262 446.289 598.145 c 4
 446.289 603.516 442.871 606.445 435.547 606.445 c 6
 175.781 606.445 l 6
 100.586 606.445 83.0078 555.176 61.5234 486.328 c 5
 31.7383 491.211 l 5
 39.5508 532.227 49.5605 604.492 53.9551 657.715 c 5
EndSplineSet
Fore
SplineSet
167 54 m 1x50
 298 54 567 65 567 65 c 1x80
 569 62 l 1
 568 54 567 39 567 29 c 3
 567 19 568 14 569 0 c 1x40
 567 -3 l 1
 551 -1 531.75 3.12536e-06 496 0 c 2x80
 113 0 l 2
 83 0 26 -3 26 -3 c 1
 23 1 l 17
 34 15 43 30 49 38 c 2
 438 579 l 2
 443 586 440 591 435 591 c 3x50
 312 591 60 580 60 580 c 25x20
 58 583 l 1
 59 591 60 606 60 616 c 3
 60 626 59 631 58 645 c 1x10
 60 648 l 1
 76 646 99 645 121 645 c 2x20
 445 645 l 2
 476 645 554.5 648.75 571 651 c 1
 575.5 651 577 649 577 645 c 3
 577 634 567 619 547 591 c 2
 172 72 l 2
 167 63 167 59 167 54 c 1x50
EndSplineSet
Position2: "'cpsp' Versalabstaende 1" dx=2 dy=0 dh=5 dv=0
Substitution2: "'c2sc' Versale nach Kapitaelchen 1" z.sc
EndChar

StartChar: bracketleft
Encoding: 91 91 276
Width: 361
VWidth: 999
Flags: W
HStem: -192 29<229.756 325> 673 30<223.987 325>
VStem: 110 68<-135 644.358>
LayerCount: 2
Fore
SplineSet
110 -192 m 1
 110 703 l 1
 325 703 l 5
 325 673 l 5
 188 663 178 648 178 561 c 6
 178 -50 l 6
 178 -137 187 -152 325 -163 c 5
 325 -192 l 5
 110 -192 l 1
EndSplineSet
Substitution2: "'c2sc' Versale nach Kapitaelchen 1" bracketleft.sc
AlternateSubs2: "'aalt' Alle Alternativen zeigen 1" bracketleft.sc
Substitution2: "'case' Versalformen 1" bracketleft.sc
EndChar

StartChar: backslash
Encoding: 92 92 277
Width: 292
VWidth: 999
Flags: HMW
HStem: 688 10G<11 58>
DStem2: 55 698 11 698 0.294569 -0.95563<0 767.788>
LayerCount: 2
Fore
SplineSet
60 698 m 5
 290 -48 l 5
 241 -48 l 1
 11 698 l 1
 60 698 l 5
EndSplineSet
EndChar

StartChar: underscore
Encoding: 95 95 280
Width: 486
VWidth: 999
Flags: W
HStem: -154 44<5 482>
LayerCount: 2
Fore
SplineSet
482 -110 m 1
 482 -154 l 1
 5 -154 l 1
 5 -110 l 1
 482 -110 l 1
EndSplineSet
Validated: 3073
EndChar

StartChar: a
Encoding: 97 97 281
Width: 461
VWidth: 999
Flags: HW
HStem: -10 51<138.029 242.029 327.75 409.627> 394 45<147.355 264.803>
VStem: 42 81<56.8026 162.817> 293 79.07<81.0426 223 264.049 363.451>
DStem2: 199 243 212 202 0.972687 0.232119<-72.5363 85.8176>
AnchorPoint: "ogonek" 410 16 basechar 0
AnchorPoint: "unten_anhang" 167 -5 basechar 0
AnchorPoint: "unten_punkt" 196 -108 basechar 0
AnchorPoint: "top_punkt" 210 550 basechar 0
AnchorPoint: "top_akzent" 209 645 basechar 0
LayerCount: 2
Back
SplineSet
64 382 m 1
 99 420 147 439 207 439 c 0
 250 439 287 427 318 404 c 128
 349 381 364 345 364 297 c 2
 364 76 l 2
 364 62 367 55 373 53 c 0
 375 52 378 52 380 52 c 128
 382 52 385 52 388 53 c 128
 391 54 395 56 399 58 c 0
 409 63 418 69 426 75 c 1
 426 25 l 1
 398 3 375 -8 354 -8 c 2
 352 -8 l 2
 351 -8 350 -8 348 -8 c 128
 347 -9 343 -9 337 -9 c 0
 312 -9 295 -1 286 13 c 0
 282 19 279 26 277 34 c 1
 242 5 203 -9 161 -9 c 0
 129 -9 103 2 84 22 c 1
 65 44 55 66 55 90 c 0
 55 132 68 162 95 180 c 1
 120 198 149 213 181 224 c 1
 186 224 189 226 192 228 c 1
 193 228 194 228 196 229 c 128
 198 230 199 230 200 231 c 128
 201 231 202 231 202 232 c 2
 278 261 l 1
 278 284 l 2
 278 333 252 358 200 358 c 0
 199 358 197 358 196 358 c 128
 194 357 193 357 193 357 c 2
 183 357 l 1
 137 351 98 328 64 287 c 1
 64 382 l 1
278 86 m 1
 278 214 l 1
 227 193 l 2
 211 185 196 178 182 171 c 0
 155 156 142 136 142 111 c 0
 142 93 146 79 155 71 c 0
 168 57 187 50 209 50 c 128
 232 50 255 62 278 86 c 1
EndSplineSet
Fore
SplineSet
368 76 m 3
 368 56 373 45 384 45 c 3
 398 45 411 59 420 66 c 1
 423 64 l 1
 439 43 l 1
 408 3 382 -10 351 -10 c 3
 304 -10 293 32 291 48 c 1
 289 48 l 1
 239 3 212 -10 160 -10 c 3
 90 -10 42 24 42 98 c 3
 42 166 103 220 199 243 c 2
 287 264 l 2
 290 265 293 269 293 276 c 3
 293 389 237 394 203 394 c 3
 158 394 116 350 90 305 c 1
 77 306 l 1
 61 373 l 1
 64 377 l 1
 88 398 140 439 212 439 c 3
 284 439 372 412 372 277 c 3
 372 266 368 105 368 76 c 3
292 223 m 1
 212 202 l 2
 138 183 123 147 123 102 c 3
 123 71 147 41 189 41 c 3
 217 41 249 63 275 84 c 0
 283 90 289 97 289 110 c 2
 292 223 l 1
EndSplineSet
Substitution2: "'sups' Hochgestellte 1" a.superior
AlternateSubs2: "'aalt' Alle Alternativen zeigen 1" a.sc
Substitution2: "'sinf' Wissenschaftliche Indices 1" a.inferior
Substitution2: "'smcp' Gemeine nach Kapitaelchen 1" a.sc
EndChar

StartChar: b
Encoding: 98 98 282
Width: 497
VWidth: 999
Flags: W
HStem: -10 44<179.548 305.024> 385 54<196.637 317.65> 678 20G<143.465 159.167>
VStem: 75 80<58.0308 360.44 384 667.981> 375 85<134.529 320.197>
AnchorPoint: "unten_punkt" 234 -108 basechar 0
AnchorPoint: "top_punkt" 276 553 basechar 0
LayerCount: 2
Back
SplineSet
144.043 696.289 m 5
 144.043 386.719 l 5
 156.738 400.391 168.945 410.645 181.152 417.969 c 4
 210.449 436.035 239.746 443.848 270.508 443.848 c 4
 305.664 443.848 339.355 432.617 369.629 405.273 c 4
 418.945 361.328 441.895 306.152 441.895 239.258 c 4
 441.895 161.133 417.48 99.6094 369.629 53.2227 c 4
 355.469 39.5508 339.844 27.3438 321.777 16.6016 c 4
 296.387 0.976562 264.16 -9.76562 225.586 -9.76562 c 4
 183.105 -9.76562 147.461 1.95312 118.164 27.3438 c 5
 109.375 14.4854 96.1914 -1.30176 86.9141 -11.2305 c 5
 66.4062 -6.34766 l 5
 68.8477 17.0898 69.3359 33.2031 69.3359 72.2656 c 6
 69.3359 576.66 l 6
 69.3359 623.047 59.5703 644.043 39.5508 644.043 c 4
 7.32422 640.625 l 6
 4.39453 640.137 1.95312 642.578 1.95312 645.508 c 6
 0 670.898 l 5
 15.625 670.898 52.2461 676.27 69.3359 679.688 c 4
 87.4023 683.105 102.051 687.5 122.07 696.289 c 5
 144.043 696.289 l 5
144.043 56.1523 m 5
 164.062 31.7383 189.453 18.0664 220.215 18.0664 c 4
 240.723 18.0664 292.48 22.4609 325.684 75.6836 c 4
 349.609 113.77 364.746 162.109 364.746 226.074 c 4
 364.746 251.953 361.816 305.664 330.078 351.074 c 4
 308.594 381.348 284.18 400.391 250 400.391 c 4
 229.004 400.391 209.961 396.973 192.383 388.672 c 4
 173.34 380.371 157.715 369.629 144.043 355.957 c 5
 144.043 56.1523 l 5
EndSplineSet
Fore
SplineSet
155 500 m 2
 155 384 l 1
 189 421 232 439 280 439 c 0
 367 439 460 364 460 242 c 0
 460 83 338 -10 236 -10 c 0
 193 -10 163 2 134 27 c 1
 119.5 14 110 2 101 -12 c 1
 91.5 -12 76 -10.75 70 -7 c 1
 74.25 14.75 75 32 75 71 c 2
 75 482 l 2
 75 558 72.667 627.333 65 670 c 1
 67 673 l 1
 107.5 676 130.931 687.972 156 698 c 1
 162.333 698 165 695 165 688 c 1
 157.333 626.667 155 574 155 500 c 2
155 81 m 1
 175 56 199 34 230 34 c 0
 325 34 375 110 375 224 c 0
 375 321 321 385 260 385 c 0
 249 385 194 383 155 343 c 1
 155 81 l 1
EndSplineSet
Validated: 3073
Substitution2: "'sinf' Wissenschaftliche Indices 1" b.inferior
Substitution2: "'sups' Hochgestellte 1" b.superior
AlternateSubs2: "'aalt' Alle Alternativen zeigen 1" b.sc
Substitution2: "'smcp' Gemeine nach Kapitaelchen 1" b.sc
EndChar

StartChar: c
Encoding: 99 99 283
Width: 437
VWidth: 999
Flags: W
HStem: -10 54<198.612 332.08> 394 45<189.998 317.695>
VStem: 36 85<130.336 304.92>
AnchorPoint: "ogonek" 370 42 basechar 0
AnchorPoint: "unten_anhang" 263 3 basechar 0
AnchorPoint: "unten_punkt" 247 -113 basechar 0
AnchorPoint: "top_punkt" 256 550 basechar 0
AnchorPoint: "top_akzent" 253 645 basechar 0
LayerCount: 2
Back
SplineSet
427 84 m 5
 417 88 l 5
 389 49 344 27 288 27 c 4
 238 27 199 46 174 78 c 4
 147 111 134 158 134 214 c 4
 134 264 145 312 169 349 c 4
 194 384 231 407 286 407 c 4
 345 407 382 375 393 324 c 5
 407 325 l 5
 411 350 420 382 429 401 c 5
 404 420 348 439 282 439 c 4
 224 439 166 421 122 385 c 4
 78 349 49 293 49 214 c 4
 49 133 77 76 119 40 c 4
 161 4 216 -12 270 -12 c 4
 332 -12 386 6 418 35 c 5
 419 46 422 73 427 84 c 5
404 96 m 1
 393 68 375 46 347 24 c 0
 317 2 281 -9 239 -9 c 0
 177 -9 130 11 93 53 c 0
 55 96 37 151 37 212 c 0
 37 278 57 335 99 379 c 0
 140 423 186 444 241 444 c 0
 277 444 312 437 337 424 c 0
 393 396 399 354 399 340 c 0
 399 304 372 299 363 299 c 0
 343 299 322 307 317 330 c 0
 312 359 307 376 294 388 c 0
 277 404 258 410 235 410 c 0
 193 410 162 389 138 348 c 0
 128 329 114 293 114 234 c 0
 114 164 132 108 170 71 c 0
 194 48 224 35 263 35 c 0
 286 35 306 40 326 49 c 0
 352 62 376 81 392 104 c 1
 404 96 l 1
EndSplineSet
Fore
SplineSet
260 394 m 0
 194 394 121 340 121 230 c 0
 121 113 194 44 271 44 c 0
 314 44 350 62 381 107 c 1
 385 107 l 1
 405 91 l 1
 372 22.5 309 -10 249 -10 c 0
 123 -10 36 79 36 208 c 0
 36 350 153 439 261 439 c 0
 311 439 364 423 395 407 c 1
 397 404 l 1
 374 322 l 1
 361 321 l 1
 334.5 366.5 298.5 394 260 394 c 0
EndSplineSet
Substitution2: "'sinf' Wissenschaftliche Indices 1" c.inferior
Substitution2: "'sups' Hochgestellte 1" c.superior
Substitution2: "'smcp' Gemeine nach Kapitaelchen 1" c.sc
AlternateSubs2: "'aalt' Alle Alternativen zeigen 1" c.sc
EndChar

StartChar: d
Encoding: 100 100 284
Width: 514
VWidth: 999
Flags: W
HStem: -10 57<184.507 297.415> -3 21G<374 383.667 449.5 458> 394 45<189.467 329.898> 678 20G<429.466 445.167>
VStem: 40 85<116.128 302.432> 361 80<87.1288 364.244 417 667.981>
AnchorPoint: "top_akzent" 239 645 basechar 0
AnchorPoint: "top_punkt" 240 550 basechar 0
AnchorPoint: "ogonek" 333 20 basechar 0
AnchorPoint: "unten_punkt" 242 -107 basechar 0
LayerCount: 2
Back
SplineSet
515.84 50.293 m 5xaf
 515.84 25.3906 l 5x6f
 494.355 21.4844 420.625 8.78906 363.496 -11.7188 c 5
 363.496 52.2461 l 5
 303.438 16.6016 l 6
 264.863 -5.85938 238.496 -11.7188 226.289 -11.7188 c 4
 147.676 -11.7188 44.6484 60.0586 44.6484 197.754 c 4
 44.6484 334.473 164.277 441.895 298.555 441.895 c 4xaf
 312.227 441.895 340.547 438.965 363.496 431.152 c 5x9f
 363.496 569.824 l 6
 363.496 634.766 358.613 637.695 287.324 642.578 c 5
 287.324 666.504 l 5
 338.594 673.34 404.512 687.988 441.133 700.684 c 5
 441.133 113.281 l 6
 441.133 62.0117 447.969 57.1289 484.59 53.2227 c 6
 515.84 50.293 l 5xaf
363.496 83.4961 m 5xaf
 363.496 355.469 l 5
 339.57 389.648 299.531 405.273 261.934 405.273 c 4
 216.523 405.273 134.004 367.188 134.004 224.609 c 4
 134.004 107.422 205.781 50.293 268.77 50.293 c 4
 304.414 50.293 339.57 65.918 363.496 83.4961 c 5xaf
EndSplineSet
Fore
SplineSet
361 64 m 1x7c
 325 17.5 266 -10 218 -10 c 0xbc
 110 -10 40 80 40 203 c 0
 40 339.006 146.8 439 277 439 c 0
 297 439 338 430 361 417 c 1
 361 482 l 2
 361 558 358.667 627.333 351 670 c 1
 353 673 l 1
 393.5 676 416.931 687.972 442 698 c 1
 448.333 698 451 695 451 688 c 1
 443.333 626.667 441 574 441 500 c 2
 441 192 l 2
 441 117 450 43 458 0 c 1
 456 -3 l 1
 443 -1 424.127 0 411.5 0 c 0
 397 0 390.333 -1.33301 377 -3 c 1
 371 -3 368 -2 368 0 c 1
 363 64 l 1
 361 64 l 1x7c
361 109 m 1
 361 335 l 1
 337 373 313 394 266 394 c 0
 217.6 394 125 371.027 125 221 c 0
 125 96 190 47 244 47 c 0
 284.5 47 324.5 62.5 361 109 c 1
EndSplineSet
Validated: 3073
Substitution2: "'sinf' Wissenschaftliche Indices 1" d.inferior
Substitution2: "'sups' Hochgestellte 1" d.superior
AlternateSubs2: "'aalt' Alle Alternativen zeigen 1" d.sc
Substitution2: "'smcp' Gemeine nach Kapitaelchen 1" d.sc
EndChar

StartChar: e
Encoding: 101 101 285
Width: 442
VWidth: 999
Flags: W
HStem: -10 59<197.345 335.48> 243 44<125 319.997> 399 40<175.584 290.389>
VStem: 34 88<132.133 243 287 305.396> 320 89<254.5 358.106>
AnchorPoint: "ogonek" 373 41 basechar 0
AnchorPoint: "top_akzent" 238 645 basechar 0
AnchorPoint: "top_punkt" 245 550 basechar 0
AnchorPoint: "unten_punkt" 237 -108 basechar 0
LayerCount: 2
Back
SplineSet
377.93 93.2617 m 5
 397.949 76.6602 l 5
 360.352 24.9023 300.781 -12.207 229.492 -12.207 c 4
 91.7969 -12.207 34.1797 90.332 34.1797 199.219 c 4
 34.1797 351.074 134.277 441.895 229.492 441.895 c 4
 360.84 441.895 392.09 339.355 392.09 254.883 c 4
 392.09 243.652 384.766 237.793 374.023 237.793 c 6
 110.84 237.793 l 5
 110.84 231.934 109.863 226.074 109.863 217.773 c 4
 109.863 116.211 180.664 37.1094 253.418 37.1094 c 4
 308.105 37.1094 343.262 55.1758 377.93 93.2617 c 5
114.258 276.855 m 5
 297.852 276.855 l 6
 307.617 276.855 312.5 281.738 312.5 290.527 c 4
 312.5 383.789 264.648 407.715 228.516 407.715 c 4
 205.566 407.715 130.859 398.926 114.258 276.855 c 5
EndSplineSet
Fore
SplineSet
396 105 m 1
 416 79 l 1
 378 27 317 -10 245 -10 c 3
 108 -10 34 84 34 199 c 3
 34 351 144 439 239 439 c 3
 371 439 409 344 409 260 c 3
 409 249 402 243 391 243 c 2
 122 243 l 1
 122 94 209 49 265 49 c 3
 320 49 361 67 396 105 c 1
125 287 m 1
 306 287 l 2
 316 287 320 292 320 301 c 3
 320 376 275 399 239 399 c 3
 216 399 142 391 125 287 c 1
EndSplineSet
Substitution2: "'sups' Hochgestellte 1" e.superior
AlternateSubs2: "'aalt' Alle Alternativen zeigen 1" e.sc
Substitution2: "'sinf' Wissenschaftliche Indices 1" e.inferior
Substitution2: "'smcp' Gemeine nach Kapitaelchen 1" e.sc
EndChar

StartChar: f
Encoding: 102 102 286
Width: 308
VWidth: 999
Flags: W
HStem: -3 21G<83 133 133 183> 385 44<22 93 173 289> 638 60<212.167 319.107>
VStem: 93 80<2.67975 385 429 572.061>
AnchorPoint: "unten_anhang" 133 10 basechar 0
AnchorPoint: "unten_punkt" 132 -111 basechar 0
LayerCount: 2
Back
SplineSet
452.406 87.2852 m 10
 452.406 378.035 l 25
 380.496 378.035 l 25
 380.496 413.546 l 25
 452.406 413.546 l 25
 452.406 423.312 l 2
 452.406 495.811 458.327 548.188 470.163 580.449 c 0
 478.451 603.232 492.061 622.031 511.001 636.821 c 0
 534.38 655.171 558.94 664.346 584.688 664.346 c 0
 623.75 664.048 654.678 653.989 677.461 634.16 c 0
 687.524 625.874 692.554 614.482 692.554 599.98 c 0
 692.554 590.806 689.741 583.413 684.116 577.788 c 0
 677.905 571.87 669.912 569.497 660.146 570.684 c 0
 644.468 572.759 633.96 580.747 628.633 594.653 c 0
 621.23 613.887 612.651 626.47 602.886 632.383 c 0
 596.968 635.938 590.459 637.71 583.354 637.71 c 0
 562.349 637.71 544.438 621.733 529.644 589.771 c 0
 520.469 567.876 515.884 525.552 515.884 462.818 c 10
 515.884 413.546 l 25
 612.207 413.546 l 25
 612.207 378.035 l 25
 515.884 378.035 l 17
 515.884 87.2852 l 18
 515.884 80.1836 516.182 73.377 516.772 66.8662 c 0
 517.358 59.4688 521.064 53.1055 527.866 47.7783 c 0
 531.421 44.8203 539.707 43.1914 552.725 42.8965 c 2
 567.373 42.4521 l 2
 570.928 42.4521 572.7 40.8242 572.7 37.5693 c 2
 572.7 22.4775 l 1
 482.591 24.252 l 0
 396.032 22.4775 l 1
 396.032 38.0137 l 2
 396.032 40.9727 397.66 42.4521 400.915 42.4521 c 2
 415.563 42.8965 l 2
 428.586 43.1914 436.87 44.8203 440.421 47.7783 c 0
 446.636 52.2168 450.337 58.5801 451.519 66.8662 c 0
 452.112 71.0098 452.406 77.8164 452.406 87.2852 c 10
EndSplineSet
Fore
SplineSet
148 622 m 0
 184 671 239 698 302 698 c 3
 321 698 339 694 347 689 c 1
 348 686 l 1
 337 667 327 631 320 604 c 1
 309 603 l 1
 298 623 280 638 251 638 c 3
 193.657 638 168 590.172 168 535 c 3
 168 517 173 476 173 439 c 26
 173 429 l 1
 281 429 l 2
 286 429 289 427 289 423 c 2
 289 398 l 2
 289 389 275 385 266 385 c 2
 173 385 l 1
 173 200 l 2
 173 124.766 174.5 57 183 0 c 1
 181 -3 l 1
 181 -3 167.333 0 133 0 c 3
 98 0 84 -3 84 -3 c 1
 83 0 l 1
 91.5 53.5 93 125.497 93 200 c 2
 93 385 l 1
 27 385 l 2
 23 385 22 386 22 391 c 2
 22 409 l 2
 22 417 27 429 45 429 c 2
 93 429 l 1
 93 469 l 2
 93 547 112 573 148 622 c 0
EndSplineSet
Substitution2: "'sinf' Wissenschaftliche Indices 1" f.inferior
Substitution2: "'sups' Hochgestellte 1" f.superior
Substitution2: "'smcp' Gemeine nach Kapitaelchen 1" f.sc
AlternateSubs2: "'aalt' Alle Alternativen zeigen 1" f.sc
EndChar

StartChar: g
Encoding: 103 103 287
Width: 479
VWidth: 999
Flags: W
HStem: -238 43<141.427 314.366> -15 62<137.607 251.772> -12 66<172.809 355.253> 136 44<169.974 279.135> 395 44<163.808 275.455>
VStem: 32 66<-157.208 -57.419> 59 78<215.424 363.363> 64 56<55.5258 149.891> 308 76<209.668 361.5> 392 61<-135.741 -44.0939>
AnchorPoint: "unten_punkt" 225 -88 basechar 0
AnchorPoint: "top_akzent" 220 645 basechar 0
AnchorPoint: "top_punkt" 220 549 basechar 0
LayerCount: 2
Back
SplineSet
52 292 m 4
 52 401.85 143.758 447 248 447 c 5
 433 449 l 5
 433 380 l 5
 341 380 l 5
 344.333 375.333 347.667 371 351 367 c 134
 360 356 l 6
 366.228 349.772 370.589 343.353 375 336 c 5
 381 322.5 l 134
 384.48 314.96 388 301.152 388 280 c 4
 388 278 388 276 388 274 c 4
 387.333 273.333 387 272.5 387 271.5 c 134
 387 268 l 6
 387 256.8 380.067 232.29 369 212 c 6
 363 202 l 6
 354.599 187.997 344.273 170.637 311 154 c 5
 291.5 146 l 134
 287.332 144.245 256.7 135 248 135 c 5
 226 131 l 5
 169.441 122.299 164 108.8 164 94 c 4
 164 59.2002 261.229 45.9424 301 36 c 5
 359.462 24.6328 387.3 4.7002 402 -10 c 5
 419.354 -31.0732 431 -56.2002 431 -87 c 4
 431 -144.2 393.627 -230 219 -230 c 4
 89.8594 -230 12 -168.322 12 -94 c 4
 12 -16.3799 61.9053 12.7705 125 28 c 5
 120.227 30.3867 80 53.4844 80 85 c 4
 80 110.6 100.318 136.329 151 149 c 5
 151 153 l 5
 106.385 166.728 52 208.6 52 292 c 4
221 -159 m 4
 274.662 -159 345 -146 345 -94 c 4
 345 -53.2002 296.632 -33.6055 251 -26 c 5
 237 -24 l 6
 232.333 -23.333 227.667 -23 223 -23 c 4
 218.333 -22.333 214 -22 210 -22 c 6
 198 -22 l 6
 136.029 -22 96 -49.2002 96 -90 c 4
 96 -117.6 114.1 -159 221 -159 c 4
308 293 m 6
 308 330.566 269.347 370 221 370 c 4
 169.133 370 132 331.9 132 289 c 4
 132 234.249 171.901 207 222 207 c 4
 277.341 207 308 244.094 308 291 c 6
 308 293 l 6
EndSplineSet
Fore
SplineSet
308 279 m 3x9ac0
 308 354 274 395 214 395 c 3
 162 395 137 347 137 302 c 3
 137 238 161 180 227 180 c 3
 262 180 308 208 308 279 c 3x9ac0
384 289 m 3
 384 191 306 136 222 136 c 3
 185 136 160 143 137 157 c 1xbac0
 126 140 120 119 120 99 c 3
 120 56 150 47 178 47 c 3xd9c0
 183 47 193 48 207 49 c 0
 230 52 253 54 270 54 c 3
 305 54 373.5 53 411 21 c 0
 438.991 -2.88577 453 -36 453 -68 c 3
 453 -176 313 -238 184 -238 c 3
 111 -238 32 -211 32 -124 c 3xbcc0
 32 -81 59 -35 110 -3 c 1
 85 10 64 38 64 74 c 3xb9c0
 64 108 79 151 106 175 c 1
 79 202 59 233 59 287 c 3
 59 379 138 439 223 439 c 3
 244.464 439 264.339 436.038 282.27 430.442 c 1
 356.82 434.319 392.166 444.946 440 449 c 1
 443 446 l 1
 441 437 440 429 440 420 c 3
 440 411 441 403 443 394 c 1
 440 391 l 1
 398.78 395.182 365.769 399.007 335.635 401.409 c 1
 366.337 375.04 384 336.134 384 289 c 3
147.1 -13.7112 m 1
 110.3 -42.953 98 -70.9192 98 -104 c 3
 98 -172 178 -195 212 -195 c 3
 298 -195 392 -152 392 -91 c 3
 392 -65 385.497 -50.8164 348 -29 c 0
 320.5 -13 283 -12 235 -12 c 3xbcc0
 221.2 -12 195.5 -15 166 -15 c 3xdcc0
 160.079 -15 153.516 -14.5328 147.1 -13.7112 c 1
EndSplineSet
Substitution2: "'sinf' Wissenschaftliche Indices 1" g.inferior
Substitution2: "'sups' Hochgestellte 1" g.superior
AlternateSubs2: "'aalt' Alle Alternativen zeigen 1" g.sc
Substitution2: "'smcp' Gemeine nach Kapitaelchen 1" g.sc
EndChar

StartChar: h
Encoding: 104 104 288
Width: 520
VWidth: 999
Flags: W
HStem: -3 21G<73 123 123 173 348 398 398 448> 382 57<239.694 343.936> 678 20G<151.465 167.167>
VStem: 83 80<2.66453 327.568 360 667.98> 358 80<2.66453 368.709>
AnchorPoint: "ogonek" 411 10 basechar 0
AnchorPoint: "top_punkt" 300 550 basechar 0
AnchorPoint: "top_akzent" 299 645 basechar 0
AnchorPoint: "unten_punkt" 259 -111 basechar 0
LayerCount: 2
Fore
SplineSet
358 180 m 2
 358 285 l 2
 358 366 339 382 283 382 c 0
 254 382 211 356 163 309 c 1
 163 180 l 2
 163 103.766 164.5 57 173 0 c 1
 171 -3 l 1
 171 -3 157.333 0 123 0 c 0
 88 0 74 -3 74 -3 c 1
 73 0 l 1
 81.5 53.5 83 105.477 83 180 c 2
 83 481 l 6
 83 557 80.667 627.333 73 670 c 5
 75 673 l 5
 115.5 676 138.931 687.972 164 698 c 5
 170.333 698 173 695 173 688 c 5
 165.333 626.667 163 575 163 501 c 6
 163 360 l 1
 230 427 289 439 328 439 c 0
 400 439 438 387 438 284 c 2
 438 180 l 2
 438 103.759 439.5 57 448 0 c 1
 446 -3 l 1
 446 -3 432.333 0 398 0 c 0
 363 0 349 -3 349 -3 c 1
 348 0 l 1
 356.5 53.5 358 105.47 358 180 c 2
EndSplineSet
Validated: 3073
Substitution2: "'sinf' Wissenschaftliche Indices 1" h.inferior
Substitution2: "'salt' Stilistische Alternativformen 1" h.alt
Substitution2: "'sups' Hochgestellte 1" h.superior
AlternateSubs2: "'aalt' Alle Alternativen zeigen 1" h.sc h.alt
Substitution2: "'smcp' Gemeine nach Kapitaelchen 1" h.sc
EndChar

StartChar: i
Encoding: 105 105 289
Width: 268
VWidth: 999
Flags: W
HStem: -3 21<84 134 134 184> 419 20<162.5 178> 519 102<92.7346 175.265>
VStem: 83 102<528.735 611.265> 94 80<2.6647 408.973>
AnchorPoint: "unten_anhang" 137 12 basechar 0
AnchorPoint: "ogonek" 209 10 basechar 0
AnchorPoint: "unten_punkt" 136 -107 basechar 0
LayerCount: 2
Back
SplineSet
-90.8203 618.652 m 5
 528.32 618.652 l 5
 528.32 522.949 l 5
 -90.8203 522.949 l 5
 -90.8203 618.652 l 5
-57.1289 0.976562 m 1
 990.234 0.976562 l 1
741.699 27.832 m 2
 768.066 27.832 l 2
 772.461 27.832 776.367 24.9023 776.367 19.5312 c 2
 776.367 0.976562 l 1
 774.414 -0.976562 l 1
 9.27734 -0.976562 l 1
 7.32422 0.976562 l 1
 7.32422 19.5312 l 2
 7.32422 24.9023 10.2539 27.832 15.1367 27.832 c 2
 41.5039 27.832 l 2
 82.5195 27.832 702.148 27.832 741.699 27.832 c 2
EndSplineSet
Fore
Refer: 673 775 N 1 0 0 1 314 -34 2
Refer: 419 305 N 1 0 0 1 0 0 3
Substitution2: "'smcp' Gemeine nach Kapitaelchen i > i.sc 1" i.sc
Substitution2: "'smcp' Gemeine nach Kapitaelchen i > idotaccent.sc" idotaccent.sc
Substitution2: "'sinf' Wissenschaftliche Indices 1" i.inferior
Substitution2: "'sups' Hochgestellte 1" i.superior
AlternateSubs2: "'aalt' Alle Alternativen zeigen 1" i.sc
Colour: ff00ff
EndChar

StartChar: j
Encoding: 106 106 290
Width: 282
VWidth: 999
Flags: HW
HStem: -213 54<7.07281 93.8915> 419 20<180.5 196> 518 104<110.248 193.458>
VStem: 100 104<528.542 611.752> 112 80<-114.292 408.973>
LayerCount: 2
Back
SplineSet
-98.6328 618.652 m 1
 520.508 618.652 l 1
 520.508 522.949 l 1
 -98.6328 522.949 l 1
 -98.6328 618.652 l 1
510.742 502.441 m 1
 481.934 549.316 444.336 594.727 409.668 632.324 c 1
 430.176 645.508 l 1
 469.238 616.699 501.465 591.309 535.645 555.176 c 1
 572.754 593.262 606.445 618.652 643.555 645.508 c 1
 662.598 632.324 l 1
 627.93 592.773 589.844 548.34 560.547 502.441 c 1
 510.742 502.441 l 1
-210.449 647.949 m 1
 -208.496 596.68 -162.109 556.152 -101.562 556.152 c 0
 -55.6641 556.152 3.90625 585.938 6.34766 647.949 c 1
 32.7148 634.277 l 1
 22.9492 533.691 -51.7578 499.023 -101.562 499.023 c 0
 -179.199 499.023 -229.98 556.641 -237.305 634.277 c 1
 -210.449 647.949 l 1
144.043 645.508 m 1
 172.852 598.633 209.473 555.664 245.117 515.625 c 1
 224.609 502.441 l 1
 185.547 531.25 151.855 556.152 118.164 592.285 c 1
 81.0547 554.199 48.3398 529.297 11.2305 502.441 c 1
 -8.30078 515.625 l 1
 26.8555 555.176 64.9414 599.609 94.2383 645.508 c 1
 144.043 645.508 l 1
-98.6328 664.062 m 1
 520.508 664.062 l 1
 520.508 500.977 l 1
 -98.6328 500.977 l 1
 -98.6328 664.062 l 1
438.477 662.598 m 17
 441.895 664.062 448.242 665.039 453.125 665.039 c 0
 480.957 665.039 493.652 654.297 501.953 646.484 c 0
 504.395 644.531 506.348 643.066 508.301 641.602 c 1
 510.742 630.859 l 1
 395.996 521.973 l 2
 380.371 507.324 373.535 502.441 367.188 502.441 c 0
 359.375 502.441 352.539 507.812 352.539 514.648 c 0
 352.539 520.02 352.539 527.344 358.887 537.109 c 2
 438.477 662.598 l 17
-98.6328 616.211 m 1
 520.508 616.211 l 1
 520.508 525.391 l 1
 -98.6328 525.391 l 1
 -98.6328 616.211 l 1
80.0781 570.801 m 0
 80.0781 595.703 100.586 616.211 125.488 616.211 c 0
 150.391 616.211 170.898 595.703 170.898 570.801 c 0
 170.898 545.898 150.391 525.391 125.488 525.391 c 0
 100.586 525.391 80.0781 545.898 80.0781 570.801 c 0
240.723 570.801 m 0
 240.723 595.703 261.23 616.211 286.133 616.211 c 0
 311.035 616.211 331.543 595.703 331.543 570.801 c 0
 331.543 545.898 311.035 525.391 286.133 525.391 c 0
 261.23 525.391 240.723 545.898 240.723 570.801 c 0
EndSplineSet
Fore
Refer: 673 775 S 1 0 0 1 332 -34 2
Refer: 1268 63166 N 1 0 0 1 0 0 3
Substitution2: "'sinf' Wissenschaftliche Indices 1" j.inferior
Substitution2: "'sups' Hochgestellte 1" j.superior
Substitution2: "'smcp' Gemeine nach Kapitaelchen 1" j.sc
AlternateSubs2: "'aalt' Alle Alternativen zeigen 1" j.sc idotaccent.sc
Colour: ff00ff
EndChar

StartChar: k
Encoding: 107 107 291
Width: 476
VWidth: 999
Flags: HW
HStem: -3 21G<75 125 125 175 330.524 373.667 479.5 486> 212 25<164 188.776> 412 20G<450.5 462> 678 20<153.465 169.167>
VStem: 85 80<2.67975 667.981>
AnchorPoint: "unten_anhang" 125 9 basechar 0
AnchorPoint: "top_punkt" 276 551 basechar 0
AnchorPoint: "top_akzent" 275 646 basechar 0
AnchorPoint: "unten_punkt" 263 -107 basechar 0
LayerCount: 2
Back
SplineSet
88 563 m 6
 88 628 78 641 58 641 c 14
 26 643 l 22
 22.7568 643.203 20 645 20 648 c 6
 18 672 l 5
 58.5 675 127.931 687.973 153 698 c 5
 162 698 166 695 166 688 c 5
 166 688 163 648 163 583 c 6
 163 237 l 5
 189 243 240 288 294 347 c 4
 304.537 357.537 341.5 399 281 402 c 4
 276.006 402.248 273 406 273 410 c 6
 273 429 l 5
 273 429 276 430 276 431 c 5
 313 430 327 429 365 429 c 4
 401 429 415 430 452 431 c 5
 456 429 l 5
 456 410 l 6
 456 405 449.95 402.707 445 402 c 6
 438 401 l 6
 410.7 397.1 367 380 342 354 c 6
 266 270 l 6
 263 267 262 264 262 260 c 4
 262 255 264 250 267 246 c 6
 384 73 l 6
 402 46 434.15 31.55 459 28 c 6
 466 27 l 6
 472.93 26.0098 475 24 475 19 c 6
 475 0 l 5
 473 -2 l 5
 443 -1 419 0 388 0 c 4
 358 0 341 -1 321 -2 c 5
 318 0 l 5
 318 19 l 6
 318 32 315 44 295 73 c 6
 222 176 l 6
 202 205 188 212 163 212 c 5
 163 72 l 6
 163 33.8906 182.5 30 208 27 c 4
 211.973 26.5326 216 24 216 19 c 6
 216 0 l 5
 214 -2 l 5
 175 -1 165 0 124 0 c 4
 85 0 71 -1 21 -2 c 5
 19 0 l 5
 19 19 l 6
 19 24 21.0273 26.4766 26 27 c 6
 45 29 l 6
 77.6384 32.4356 88 43 88 72 c 6
 88 563 l 6
EndSplineSet
Fore
SplineSet
157 237 m 5
 168 237 177 242 190 252 c 4
 229.641 282.493 301.875 366.47 345 429 c 5
 372 429 427 429 446 432 c 5
 448 429 l 5
 383.038 373.881 300.435 278.896 261 238 c 5
 356.426 122.83 394.616 78.6338 469 0 c 5
 467 -3 l 5
 458 -1.16699 423.667 0 407 0 c 4
 390 0 356.333 -1.16699 341 -3 c 5
 270.049 95.8252 251 135 186 203 c 5
 177 211 164 212 157 212 c 5
 157 237 l 5
EndSplineSet
Refer: 2047 108 N 1 0 0 1 -5 0 2
Substitution2: "'sinf' Wissenschaftliche Indices 1" k.inferior
Substitution2: "'sups' Hochgestellte 1" k.superior
AlternateSubs2: "'aalt' Alle Alternativen zeigen 1" k.sc
Substitution2: "'smcp' Gemeine nach Kapitaelchen 1" k.sc
Colour: ff80cc
EndChar

StartChar: l.superior
Encoding: 737 737 292
Width: 161
VWidth: 917
Flags: W
HStem: 364 23<18 30 129 142> 701 21<11.0015 49.8307>
VStem: 55 49<388.434 699.995>
LayerCount: 2
Back
SplineSet
0 738.77 m 29
 307.129 738.77 l 29
0.488281 636.719 m 29
 307.617 636.719 l 29
0.488281 630.859 m 29
 307.617 630.859 l 29
0.488281 687.988 m 29
 307.617 687.988 l 29
 307.617 358.398 l 29
 0.488281 358.398 l 29
 0.488281 687.988 l 29
0.488281 682.129 m 29
 307.617 682.129 l 29
 307.617 364.258 l 29
 0.488281 364.258 l 29
 0.488281 682.129 l 29
EndSplineSet
Fore
SplineSet
55 651 m 2
 55 693 49 700 36 700 c 10
 15 701 l 18
 13 701 11 702 11 704 c 2
 10 722 l 1
 36 724 82 732 98 739 c 1
 104 739 106 737 106 732 c 1
 106 732 104 705.999 104 664 c 2
 104 415 l 2
 104 394.5 111.708 390.162 129 388 c 2
 137 387 l 2
 138.984 386.752 142 386 142 382 c 2
 142 364 l 1
 142 364 103.573 365 79 365 c 24
 55.207 365 18 364 18 364 c 1
 18 382 l 2
 18 384 18.0312 386.504 22 387 c 2
 30 388 l 2
 54.3077 391.038 55 394.001 55 415 c 2
 55 651 l 2
EndSplineSet
Validated: 3073
Colour: ff00ff
EndChar

StartChar: m
Encoding: 109 109 293
Width: 765
VWidth: 999
Flags: HW
HStem: -3 21G<70 120 120 170 332 382 382 432 595 645 645 695> 381 58<226.093 320.744 483.539 587.727>
VStem: 80 80<2.6647 331.01> 342 80<2.66453 310.443> 605 80<2.66453 366.224>
AnchorPoint: "unten_anhang" 120 9 basechar 0
AnchorPoint: "top_punkt" 386 550 basechar 0
AnchorPoint: "top_akzent" 385 645 basechar 0
AnchorPoint: "unten_punkt" 385 -105 basechar 0
LayerCount: 2
Back
SplineSet
758.789 0 m 1xdc
 549.316 0 l 1
 549.316 25.3906 l 1
 607.422 31.25 618.164 35.6445 618.164 105.469 c 2
 618.164 269.531 l 2
 618.164 339.355 593.75 383.789 531.738 383.789 c 0
 496.094 383.789 458.984 364.258 421.387 332.52 c 1
 423.34 320.801 424.316 310.059 424.316 291.504 c 2
 424.316 99.6094 l 2
 424.316 37.5977 433.105 31.25 487.305 25.3906 c 1
 487.305 0 l 1
 276.855 0 l 1
 276.855 25.3906 l 1
 337.891 31.25 346.68 36.6211 346.68 101.562 c 2
 346.68 270.508 l 2
 346.68 343.262 320.801 383.789 261.23 383.789 c 0
 221.68 383.789 183.105 357.422 153.809 332.52 c 1xdc
 153.809 101.562 l 2
 153.809 37.5977 161.621 31.25 209.961 25.3906 c 1
 209.961 0 l 1
 1.95312 0 l 1
 1.95312 25.3906 l 1
 66.8945 31.25 76.1719 37.5977 76.1719 101.562 c 2
 76.1719 305.176 l 2
 76.1719 368.164 73.2422 373.047 16.1133 381.836 c 1
 16.1133 404.297 l 1
 59.082 412.598 109.375 425.293 152.832 444.824 c 1
 152.832 365.234 l 1xbc
 173.34 378.906 194.824 396.484 224.609 415.527 c 0
 250 431.152 273.926 441.895 305.176 441.895 c 0
 352.539 441.895 395.02 412.598 414.551 361.328 c 1
 442.871 382.812 471.68 401.367 496.094 416.504 c 0
 517.09 430.176 542.48 441.895 569.824 441.895 c 0
 646.973 441.895 694.824 387.695 694.824 291.504 c 2
 694.824 101.562 l 2
 694.824 35.6445 703.125 31.25 758.789 25.3906 c 1
 758.789 0 l 1xdc
913.574 333.496 m 1
 938.965 360.84 953.613 376.465 958.008 380.859 c 0
 969.238 391.113 981.445 399.414 994.629 405.273 c 128
 1007.81 411.133 1020.51 413.574 1033.69 413.574 c 0
 1055.18 413.574 1073.73 406.738 1089.36 393.066 c 128
 1104.98 379.395 1115.23 359.375 1120.61 333.496 c 1
 1146.48 366.211 1168.46 388.184 1186.52 398.438 c 128
 1204.1 408.691 1222.66 413.574 1241.21 413.574 c 0
 1259.77 413.574 1275.88 408.691 1290.53 398.438 c 128
 1304.69 388.184 1315.92 371.094 1324.22 347.656 c 0
 1329.59 332.031 1332.52 306.641 1332.52 272.461 c 2
 1332.52 109.863 l 2
 1332.52 86.4258 1333.98 70.3125 1337.4 61.5234 c 0
 1339.84 55.1758 1344.24 50.293 1351.07 45.8984 c 128
 1357.91 41.5039 1369.14 39.5508 1384.28 39.5508 c 1
 1384.28 24.9023 l 1
 1213.87 24.9023 l 1
 1213.87 39.5508 l 1
 1221.19 39.5508 l 2
 1235.84 39.5508 1247.56 42.4805 1255.86 48.8281 c 0
 1261.72 53.2227 1265.62 60.5469 1268.07 70.3125 c 0
 1269.04 74.707 1269.53 87.8906 1269.53 109.863 c 2
 1269.53 272.461 l 2
 1269.53 303.711 1266.6 325.195 1259.77 337.891 c 0
 1250 355.469 1233.89 364.258 1212.4 364.258 c 0
 1199.22 364.258 1185.55 360.84 1172.36 353.516 c 128
 1158.69 346.191 1142.58 332.52 1123.54 312.5 c 1
 1122.56 308.105 l 1
 1123.54 290.527 l 1
 1123.54 109.863 l 2
 1123.54 84.4727 1124.51 68.3594 1127.44 62.0117 c 128
 1129.88 55.6641 1134.77 50.293 1142.09 45.8984 c 128
 1149.41 41.5039 1162.11 39.5508 1179.69 39.5508 c 1
 1179.69 24.9023 l 1
 1004.88 24.9023 l 1
 1004.88 39.5508 l 1
 1023.93 39.5508 1037.11 41.9922 1044.43 46.875 c 128
 1051.27 51.7578 1056.64 59.5703 1059.08 69.3359 c 0
 1060.55 73.7305 1061.04 87.4023 1061.04 109.863 c 2
 1061.04 272.461 l 2
 1061.04 303.711 1057.13 325.684 1048.83 339.355 c 0
 1037.6 356.934 1021.97 365.723 1002.44 365.723 c 0
 988.77 365.723 975.098 361.328 961.914 353.516 c 0
 940.918 341.309 924.805 327.637 913.574 312.5 c 1
 913.574 109.863 l 2
 913.574 85.4492 915.039 69.3359 918.457 62.0117 c 128
 921.387 54.1992 926.27 48.8281 932.129 44.9219 c 128
 938.477 41.5039 951.172 39.5508 969.727 39.5508 c 1
 969.727 24.9023 l 1
 798.828 24.9023 l 1
 798.828 39.5508 l 1
 814.941 39.5508 825.684 41.5039 832.031 44.9219 c 128
 838.379 48.8281 843.262 54.6875 846.191 62.9883 c 128
 849.609 70.8008 851.562 86.9141 851.562 109.863 c 2
 851.562 254.395 l 2
 851.562 295.898 850.098 322.754 848.145 334.961 c 0
 846.191 344.238 843.262 350.098 839.844 354.004 c 128
 835.938 357.422 830.566 358.887 824.219 358.887 c 0
 816.895 358.887 808.594 356.934 798.828 352.539 c 1
 792.969 367.676 l 1
 897.461 413.574 l 1
 913.574 413.574 l 1
 913.574 333.496 l 1
EndSplineSet
Fore
SplineSet
605 180 m 2
 605 292 l 2
 605 359 585 381 531 381 c 0
 492 381 469 364 421 311 c 1
 422 299 422 295 422 281 c 2
 422 180 l 2
 422 103.766 423.5 57 432 0 c 1
 430 -3 l 1
 430 -3 416.333 0 382 0 c 0
 347 0 333 -3 333 -3 c 1
 332 0 l 1
 340.5 53.5 342 105.483 342 180 c 2
 342 290 l 2
 342 357 307 381 269 381 c 0
 234 381 207 359 160 310 c 1
 160 180 l 2
 160 104 161.5 57 170 0 c 1
 168 -3 l 1
 168 -3 154.333 0 120 0 c 0
 85 0 71 -3 71 -3 c 1
 70 0 l 1
 78.5 53.5 80 105 80 180 c 2
 80 235 l 2
 80 309.667 77.667 368.333 70 411 c 1
 72 414 l 1
 112.5 417 132.931 428.972 158 439 c 1
 164.333 439 167 436 167 429 c 1
 162 398.667 157.806 360 157.806 360 c 1
 160 360 l 1
 207 410 243 439 305 439 c 0
 361 439 408 405 415 360 c 1
 472 420 513 439 567 439 c 0
 675 439 685 369 685 280 c 2
 685 180 l 2
 685 103.766 686.5 57 695 0 c 1
 693 -3 l 1
 693 -3 679.333 0 645 0 c 0
 610 0 596 -3 596 -3 c 1
 595 0 l 1
 603.5 53.5 605 105.483 605 180 c 2
EndSplineSet
Substitution2: "'sinf' Wissenschaftliche Indices 1" m.inferior
Substitution2: "'sups' Hochgestellte 1" m.superior
AlternateSubs2: "'aalt' Alle Alternativen zeigen 1" m.sc
Substitution2: "'smcp' Gemeine nach Kapitaelchen 1" m.sc
EndChar

StartChar: n
Encoding: 110 110 294
Width: 523
VWidth: 999
Flags: W
HStem: -3 21G<74 124 124 174 348 398 398 448> 381 58<232.128 342.366>
VStem: 84 80<2.6647 329.453> 358 80<2.6647 366.93>
AnchorPoint: "unten_anhang" 124 9 basechar 0
AnchorPoint: "top_punkt" 261 550 basechar 0
AnchorPoint: "unten_punkt" 261 -111 basechar 0
AnchorPoint: "top_akzent" 260 646 basechar 0
LayerCount: 2
Back
SplineSet
-41.9922 443.848 m 5
 658.203 443.848 l 5
-41.9922 320.801 m 5
 658.203 320.801 l 5
636.719 430.664 m 5
 638.672 428.711 l 5
 638.672 410.156 l 6
 638.672 404.785 635.742 401.855 630.859 401.855 c 6
 604.492 401.855 l 6
 563.477 401.855 46.875 401.855 7.32422 401.855 c 6
 -19.043 401.855 l 6
 -23.4375 401.855 -27.3438 404.785 -27.3438 410.156 c 6
 -27.3438 428.711 l 5
 -25.3906 430.664 l 5
 636.719 430.664 l 5
-41.9922 428.711 m 5
 658.203 428.711 l 5
-84.4727 0.976562 m 5
 795.898 0 l 5
714.355 27.832 m 6
 740.723 27.832 l 6
 745.117 27.832 749.023 24.9023 749.023 19.5312 c 6
 749.023 0.976562 l 5
 747.07 -0.976562 l 5
 -18.0664 -0.976562 l 5
 -20.0195 0.976562 l 5
 -20.0195 19.5312 l 6
 -20.0195 24.9023 -17.0898 27.832 -12.207 27.832 c 6
 14.1602 27.832 l 6
 55.1758 27.832 674.805 27.832 714.355 27.832 c 6
-57.1289 0.976562 m 5
EndSplineSet
Fore
SplineSet
438 180 m 6
 438 104 439 57 448 0 c 5
 446 -3 l 5
 446 -3 432 0 398 0 c 4
 363 0 349 -3 349 -3 c 5
 348 0 l 5
 357 54 358 105 358 180 c 6
 358 278 l 2
 358 348 348 381 295 381 c 0
 251 381 214.999 367 163.999 307 c 1
 164 180 l 2
 164.001 104 165.5 57 174 0 c 1
 172 -3 l 1
 172 -3 158.333 0 124 0 c 0
 89 0 75 -3 75 -3 c 1
 74 0 l 1
 82.5 53.5 84 105 84 180 c 2
 84 235 l 2
 84 309.667 81.667 368.333 74 411 c 1
 76 414 l 1
 116.5 417 136.931 428.972 162 439 c 1
 168.333 439 171 436 171 429 c 1
 166 398.667 161.806 357 161.806 357 c 1
 163.999 356.998 l 1
 227.999 431.998 274 439 325 439 c 0
 415 439 438 370 438 281 c 2
 438 180 l 6
EndSplineSet
Substitution2: "'sinf' Wissenschaftliche Indices 1" n.inferior
AlternateSubs2: "'aalt' Alle Alternativen zeigen 1" n.sc
Substitution2: "'sups' Hochgestellte 1" n.superior
Substitution2: "'smcp' Gemeine nach Kapitaelchen 1" n.sc
EndChar

StartChar: o
Encoding: 111 111 295
Width: 510
VWidth: 999
Flags: W
HStem: -10 41<204.375 329.082> 398 41<186.898 318.163>
VStem: 36 90<124.397 311.463> 384 90<116.419 317.676>
AnchorPoint: "unten_anhang" 255.1 -3 basechar 0
AnchorPoint: "ogonek" 402.2 44 basechar 0
AnchorPoint: "unten_punkt" 262.8 -107 basechar 0
AnchorPoint: "top_punkt" 261.7 550 basechar 0
AnchorPoint: "top_akzent" 251.8 645 basechar 0
LayerCount: 2
Back
SplineSet
140 439 m 5
 137 350 l 5
 140 350 l 5
 204 425 252 439 303 439 c 4
 393 439 413 370 413 281 c 6
 413 72 l 6
 413 43 423.741 32.29 455 29 c 6
 474 27 l 6
 478.973 26.4766 483 24 483 19 c 6
 483 0 l 5
 481 -2 l 5
 481 -2 415.127 0 373 0 c 28
 334.772 0 275 -2 275 -2 c 5
 273 0 l 5
 273 19 l 6
 273 24 276.05 26.293 281 27 c 6
 295 29 l 6
 326.99 33.5703 338 43 338 72 c 6
 338 288 l 6
 338 358 326 391 273 391 c 4
 229 391 191 374 140 314 c 5
 140 72 l 6
 140 43 150.24 33.6797 183 29 c 6
 197 27 l 6
 201.95 26.293 205 24 205 19 c 6
 205 0 l 5
 203 -2 l 5
 203 -2 140.788 0 101 0 c 28
 60.4326 0 -3 -2 -3 -2 c 5
 -5 0 l 5
 -5 19 l 6
 -5 24 -1.97266 26.4766 3 27 c 6
 22 29 l 6
 55.1328 32.4873 65 43 65 72 c 6
 65 321 l 6
 65 371 57.4111 381.324 43 383 c 6
 0 387 l 5
 -2 411 l 5
 68.5 422 107.5 431 136 442 c 5
 138.438 442 140 441.375 140 439 c 5
EndSplineSet
Fore
SplineSet
250 398 m 7
 164 398 126 315 126 228 c 7
 126 151 165 31 269 31 c 7
 314 31 384 63 384 187 c 7
 384 334 335 398 250 398 c 7
36 205 m 7
 36 342 126 439 257 439 c 7
 414 439 474 318 474 214 c 7
 474 107 398 -10 255 -10 c 7
 117 -10 36 95 36 205 c 7
EndSplineSet
Substitution2: "'sups' Hochgestellte 1" o.superior
AlternateSubs2: "'aalt' Alle Alternativen zeigen 1" o.sc
Substitution2: "'sinf' Wissenschaftliche Indices 1" o.inferior
Substitution2: "'smcp' Gemeine nach Kapitaelchen 1" o.sc
EndChar

StartChar: p
Encoding: 112 112 296
Width: 506
VWidth: 999
Flags: HW
HStem: -235 21G<65 115 115 165> -10 44<177.377 312.795> 383 56<211.3 314.639>
VStem: 75 80<-229.32 12 56.5329 336.172 360 408.988> 370 96<125.199 316.254>
AnchorPoint: "top_punkt" 272 551 basechar 0
AnchorPoint: "top_akzent" 271 646 basechar 0
LayerCount: 2
Back
SplineSet
75 -158 m 2
 75 338 l 2
 75 376 66 383 53 383 c 0
 40 383 28 382 11 378 c 1
 6 406 l 1
 21 408 56 414 75 420 c 0
 108 432 122 443 135 443 c 2
 150 443 l 1
 150 363 l 1
 168 391 194 416 214 427 c 0
 232 436 264 443 284 443 c 0
 318 443 360 430 388 397 c 0
 425 353 448 303 448 239 c 0
 448 237 l 0
 448 167 429 107 388 61 c 0
 347 14 299 -9 242 -9 c 0
 206 -9 175 -1 150 13 c 1
 150 -158 l 2
 150 -187 160 -202 193 -202 c 2
 212 -202 l 2
 216 -202 220 -205 220 -210 c 2
 220 -229 l 1
 218 -231 l 1
 218 -231 150 -229 111 -229 c 0
 75 -229 7 -231 7 -231 c 1
 6 -229 l 1
 6 -210 l 2
 6 -205 8 -202 13 -202 c 2
 32 -202 l 2
 66 -202 75 -187 75 -158 c 2
150 316 m 9
 150 68 l 1
 184 28 220 26 236 26 c 0
 275 26 305 38 327 63 c 0
 356 97 370 145 370 210 c 0
 370 272 357 322 329 358 c 0
 311 382 291 397 257 397 c 0
 239 397 217 390 198 375 c 0
 179 362 161 342 150 316 c 9
EndSplineSet
Fore
SplineSet
75 -32 m 2
 75 235 l 2
 75 309.667 72.667 368.333 65 411 c 1
 67 414 l 1
 107.5 417 128.931 428.972 154 439 c 1
 160.333 439 163 436 163 429 c 1
 158 398.667 153.806 360 153.806 360 c 1
 156 360 l 1
 202 430 254 439 286 439 c 0
 383 439 466 341 466 235 c 0
 466 94.1387 373.248 -10 244 -10 c 0
 208 -10 181 -2 155 12 c 1
 155 -32 l 2
 155 -107.234 156.5 -175 165 -232 c 1
 163 -235 l 1
 163 -235 149.333 -232 115 -232 c 0
 80 -232 66 -235 66 -235 c 1
 65 -232 l 1
 73.5 -178.5 75 -106.503 75 -32 c 2
155 301 m 9
 155 77 l 1
 190 36 222 34 238 34 c 0
 345 34 370 126 370 208 c 0
 370 321 320 383 259 383 c 0
 225 383 177 354 155 301 c 9
EndSplineSet
Substitution2: "'sinf' Wissenschaftliche Indices 1" p.inferior
Substitution2: "'sups' Hochgestellte 1" p.superior
AlternateSubs2: "'aalt' Alle Alternativen zeigen 1" p.sc
Substitution2: "'smcp' Gemeine nach Kapitaelchen 1" p.sc
EndChar

StartChar: q
Encoding: 113 113 297
Width: 506
VWidth: 999
Flags: W
HStem: -235 21G<338 388 388 438> -10 54<196.244 332.844> 395 44<181.224 308.331>
VStem: 36 96<116.553 308.845> 348 80<-229.32 23 53.5727 355.766>
AnchorPoint: "top_punkt" 247 550 basechar 0
AnchorPoint: "top_akzent" 246 645 basechar 0
LayerCount: 2
Back
SplineSet
338.379 -158.203 m 6
 338.379 24.9023 l 5
 322.754 12.207 291.016 -7.8125 234.375 -7.8125 c 4
 170.898 -7.8125 123.535 13.6719 88.8672 57.1289 c 4
 53.7109 101.074 35.6445 151.367 35.6445 209.473 c 4
 35.6445 279.297 57.6172 349.609 115.234 398.926 c 4
 148.926 428.223 190.43 443.359 238.77 443.359 c 4
 287.598 443.359 330.566 429.688 363.77 400.391 c 5
 378.906 423.34 l 6
 384.766 434.082 392.578 444.336 400.391 444.336 c 4
 411.133 444.336 413.086 429.199 413.086 417.48 c 6
 413.086 -158.203 l 6
 413.086 -186.523 423.34 -202.148 456.055 -202.148 c 6
 475.098 -202.148 l 6
 479.492 -202.148 483.398 -205.078 483.398 -210.449 c 6
 483.398 -229.004 l 5
 481.445 -230.957 l 5
 481.445 -230.957 413.086 -229.004 374.023 -229.004 c 4
 338.379 -229.004 260.254 -230.957 260.254 -230.957 c 5
 258.301 -229.004 l 5
 258.301 -210.449 l 6
 258.301 -205.078 261.23 -202.148 266.113 -202.148 c 6
 295.41 -202.148 l 6
 329.102 -202.148 338.379 -186.523 338.379 -158.203 c 6
338.379 337.402 m 5
 310.547 382.812 276.855 409.18 234.863 409.18 c 4
 199.219 409.18 166.992 394.531 142.578 356.934 c 4
 124.023 328.125 111.816 284.18 111.816 229.492 c 4
 111.816 145.996 135.742 106.934 154.785 85.4492 c 4
 183.105 53.7109 217.285 36.1328 258.301 36.1328 c 4
 276.855 36.1328 312.012 38.5742 338.379 58.1055 c 5
 338.379 337.402 l 5
EndSplineSet
Fore
SplineSet
348 -32 m 2
 348 23 l 1
 333 10 304 -10 247 -10 c 0
 103 -10 36 114 36 207 c 0
 36 339 130 439 252 439 c 0
 301 439 344 428 377 399 c 1
 392 423 l 2
 399 435 408 442 415 442 c 0
 426 442 428 431 428 417 c 2
 428 -32 l 2
 428 -107.234 429.5 -175 438 -232 c 1
 436 -235 l 1
 436 -235 422.333 -232 388 -232 c 0
 353 -232 339 -235 339 -235 c 1
 338 -232 l 1
 346.5 -178.5 348 -106 348 -32 c 2
348 326 m 1
 321 371 290 395 248 395 c 0
 168 395 132 331 132 227 c 0
 132 76 213 44 271 44 c 0
 290 44 322 46 348 66 c 1
 348 326 l 1
EndSplineSet
Validated: 3073
Substitution2: "'sinf' Wissenschaftliche Indices 1" q.inferior
Substitution2: "'sups' Hochgestellte 1" q.superior
AlternateSubs2: "'aalt' Alle Alternativen zeigen 1" q.sc
Substitution2: "'smcp' Gemeine nach Kapitaelchen 1" q.sc
EndChar

StartChar: r
Encoding: 114 114 298
Width: 355
VWidth: 999
Flags: HMW
HStem: -3 21G<84 134 134 184> 366 73<237.376 323.929>
VStem: 94 80<2.6647 334.959 354 408.988>
AnchorPoint: "unten_anhang" 134 7 basechar 0
AnchorPoint: "top_punkt" 192 551 basechar 0
AnchorPoint: "top_akzent" 191 646 basechar 0
AnchorPoint: "unten_punkt" 135 -108 basechar 0
LayerCount: 2
Back
SplineSet
343 424 m 5
 341 429 l 5
 330 432 314 435 297 435 c 4
 245 435 202 404 170 335 c 5
 166 335 l 5
 166 361 168 404 171 429 c 5
 163 428 148 427 134 427 c 4
 119 427 101 428 91 429 c 5
 94 402 95 369 96 337 c 4
 96 319 96 303 97 287 c 4
 97 270 97 256 97 242 c 6
 97 205 l 6
 97 191 97 175 97 157 c 5
 96 137 96 119 96 100 c 4
 95 62 94 24 91 -2 c 5
 101 -1 119 0 134 0 c 4
 148 0 166 -1 176 -2 c 5
 174 24 172 62 172 100 c 6
 171 119 171 137 171 156 c 4
 170 173 170 189 170 203 c 6
 170 241 l 6
 170 278 178 310 195 335 c 4
 211 359 235 375 267 375 c 4
 286 375 304 371 317 361 c 5
 323 362 l 5
 327 380 337 410 343 424 c 5
EndSplineSet
Fore
SplineSet
174 354 m 5
 200 393 252 439 299 439 c 4
 317 439 323 437 340 432 c 5
 344 428 l 5
 324 354 l 5
 316 352 l 5
 298 366 277 366 258 366 c 4
 243 366 218 356 198 338 c 4
 182 322 174 296 174 272 c 2
 174 180 l 2
 174 104 176 57 184 0 c 1
 182 -3 l 1
 182 -3 168 0 134 0 c 0
 99 0 85 -3 85 -3 c 1
 84 0 l 1
 92 54 94 105 94 180 c 2
 94 235 l 2
 94 310 87 368 79 411 c 1
 81 414 l 1
 122 417 140 429 165 439 c 1
 171 439 174 436 174 429 c 1
 173 400 172 354 172 354 c 5
 174 354 l 5
EndSplineSet
Substitution2: "'sinf' Wissenschaftliche Indices 1" r.inferior
Substitution2: "'sups' Hochgestellte 1" r.superior
AlternateSubs2: "'aalt' Alle Alternativen zeigen 1" r.sc
Substitution2: "'smcp' Gemeine nach Kapitaelchen 1" r.sc
EndChar

StartChar: s.superior
Encoding: 738 738 299
Width: 253
VWidth: 625
Flags: W
HStem: 358 25<80.9729 158.544> 612 25<95.0438 164.113>
VStem: 28 22<418.49 458> 35 48<535.6 606.623> 170 54<388.398 462.244> 196 23<545 573.721>
LayerCount: 2
Back
SplineSet
0.488281 636.719 m 25
 307.617 636.719 l 25
0.488281 630.859 m 25
 307.617 630.859 l 25
0.488281 687.988 m 25
 307.617 687.988 l 25
 307.617 358.398 l 25
 0.488281 358.398 l 25
 0.488281 687.988 l 25
0.488281 682.129 m 25
 307.617 682.129 l 25
 307.617 364.258 l 25
 0.488281 364.258 l 25
 0.488281 682.129 l 25
EndSplineSet
Fore
SplineSet
28 458 m 1xe8
 50 458 l 1
 51 444 57 417 73 401 c 0
 80 395 99 383 122 383 c 0
 146 383 170 394 170 421 c 0xe8
 170 442 162 462 112 483 c 0
 66 502 35 518 35 563 c 0
 35 605 80 637 129 637 c 0
 160 637 199 627 210 620 c 1
 219 545 l 1
 196 544 l 1
 182 602 148 612 129 612 c 0
 104 612 83 599 83 572 c 0xd4
 83 548 93 539 127 525 c 0
 178 504 224 485 224 435 c 0
 224 374 158 358 124 358 c 0
 94 358 72 372 52 372 c 0
 49 372 39 371 33 370 c 1
 33 394 31 426 28 458 c 1xe8
EndSplineSet
Validated: 3073
Colour: ff00ff
EndChar

StartChar: t
Encoding: 116 116 300
Width: 302
VWidth: 999
Flags: MW
HStem: -10 60<139 240.885> 385 44<20 87 167 282> 558 20G<150.465 166.167>
VStem: 87 80<52.1113 385 429 548.046>
AnchorPoint: "unten_anhang" 165 -3 basechar 0
AnchorPoint: "ogonek" 237 15 basechar 0
AnchorPoint: "unten_punkt" 163 -107 basechar 0
LayerCount: 2
Fore
SplineSet
87 429 m 5
 87 487 87 508 80 550 c 5
 82 553 l 5
 122.5 556 137.931 567.972 163 578 c 5
 169.333 578 172 575.333 172 568 c 5
 167.5 510 167 503.797 167 429 c 5
 274 429 l 6
 279 429 282 427 282 423 c 6
 282 398 l 6
 282 389 268 385 258 385 c 6
 167 385 l 5
 167 242 l 6
 167 182 164 142 164 112 c 4
 164 71 170 50 197 50 c 4
 223 50 239 52.333 265.667 67.667 c 5
 278 40 l 5
 239.333 4 204 -10 162 -10 c 4
 116 -10 84 22 84 69 c 4
 84 99 87 171 87 231 c 6
 87 385 l 5
 24 385 l 6
 21 385 20 386 20 389 c 6
 20 425 l 6
 20 428 21 429 23 429 c 6
 87 429 l 5
EndSplineSet
Validated: 3073
Substitution2: "'sinf' Wissenschaftliche Indices 1" t.inferior
Substitution2: "'sups' Hochgestellte 1" t.superior
AlternateSubs2: "'aalt' Alle Alternativen zeigen 1" t.sc
Substitution2: "'smcp' Gemeine nach Kapitaelchen 1" t.sc
EndChar

